<?xml version="1.0" encoding="utf-8"?>
<!-- Generator: Adobe Illustrator 17.0.0, SVG Export Plug-In . SVG Version: 6.00 Build 0)  -->
<!DOCTYPE svg PUBLIC "-//W3C//DTD SVG 1.1//EN" "http://www.w3.org/Graphics/SVG/1.1/DTD/svg11.dtd">
<svg version="1.1" id="图层_1" xmlns="http://www.w3.org/2000/svg" xmlns:xlink="http://www.w3.org/1999/xlink" x="0px" y="0px"
	 width="1088.235px" height="966.667px" viewBox="0 0 1088.235 966.667" enable-background="new 0 0 1088.235 966.667"
	 xml:space="preserve">
<circle fill="#595757" stroke="#FFFFFF" stroke-width="3.1783" cx="809.563" cy="903.523" r="11.546"/>
<line fill="none" stroke="#DCDDDD" stroke-width="15.6502" x1="952.555" y1="902.376" x2="1034.9" y2="902.376"/>
<rect x="800.366" y="932.026" transform="matrix(0.7071 -0.7071 0.7071 0.7071 -428.4302 848.1259)" fill="#005FAF" stroke="#FFFFFF" width="18.395" height="18.395"/>
<text transform="matrix(1 0 0 1 840.3793 908.07)" font-family="'HYTieXianHei-EEJ'" font-size="13"> 中值</text>
<text transform="matrix(1 0 0 1 840.3793 948.5163)" font-family="'HYTieXianHei-EEJ'" font-size="13"> 周琦数据</text>
<text transform="matrix(1 0 0 1 951.9286 948.5163)" font-family="'HYTieXianHei-EEJ'" font-size="13">同位置球员正常范围</text>
<text transform="matrix(1 0 0 1 1032.0454 62.7438)" fill="#716D6D" font-family="'ArialMT'" font-size="15">3.10</text>
<text transform="matrix(1 0 0 1 895.0454 62.7438)" fill="#716D6D" font-family="'ArialMT'" font-size="15">3.20</text>
<text transform="matrix(1 0 0 1 758.0454 62.7438)" fill="#716D6D" font-family="'ArialMT'" font-size="15">3.30</text>
<text transform="matrix(1 0 0 1 622.0454 62.7438)" fill="#716D6D" font-family="'ArialMT'" font-size="15">3.40</text>
<text transform="matrix(1 0 0 1 485.0454 62.7438)" fill="#716D6D" font-family="'ArialMT'" font-size="15">3.50</text>
<text transform="matrix(1 0 0 1 348.0452 62.7438)" fill="#716D6D" font-family="'ArialMT'" font-size="15">3.60</text>
<text transform="matrix(1 0 0 1 212.0452 62.7438)" fill="#716D6D" font-family="'ArialMT'" font-size="15">3.70</text>
<text transform="matrix(1 0 0 1 75.0453 62.7438)" fill="#716D6D" font-family="'ArialMT'" font-size="15">3.80</text>
<text transform="matrix(1 0 0 1 1042.0454 20.7438)" fill="#716D6D" font-family="'AdobeSongStd-Light-GBpc-EUC-H'" font-size="12">最快</text>
<text transform="matrix(1 0 0 1 686.0454 20.7438)" fill="#716D6D" font-family="'ArialMT'" font-size="12">Mid</text>
<text transform="matrix(1 0 0 1 72.0453 20.7438)" enable-background="new    "><tspan x="0" y="0" fill="#716D6D" font-family="'ArialMT'" font-size="12"> </tspan><tspan x="3.334" y="0" fill="#716D6D" font-family="'AdobeSongStd-Light-GBpc-EUC-H'" font-size="12">最慢（秒）</tspan></text>
<text transform="matrix(1 0 0 1 30.0453 39.7438)" fill="#716D6D" font-family="'AdobeSongStd-Light-GBpc-EUC-H'" font-size="15">冲刺跑</text>
<line fill="none" stroke="#847F7F" stroke-width="2" x1="1052.047" y1="32.744" x2="82.047" y2="32.744"/>
<line fill="none" stroke="#DCDDDD" stroke-width="15" x1="819.047" y1="32.744" x2="560.047" y2="32.744"/>
<circle stroke="#FFFFFF" stroke-width="0.5" cx="1052.047" cy="32.744" r="5"/>
<circle fill="#595757" stroke="#FFFFFF" stroke-width="2" cx="696.047" cy="32.744" r="9"/>
<circle stroke="#FFFFFF" stroke-width="0.5" cx="82.047" cy="32.744" r="5"/>
<circle fill="#3261C7" stroke="#FFFFFF" stroke-width="0.5" cx="560.047" cy="32.744" r="5"/>
<text transform="matrix(1 0 0 1 1032.0454 142.9839)" fill="#716D6D" font-family="'ArialMT'" font-size="15">10.26</text>
<text transform="matrix(1 0 0 1 909.0454 142.9839)" fill="#716D6D" font-family="'ArialMT'" font-size="15">10.66</text>
<text transform="matrix(1 0 0 1 787.0454 142.9839)" fill="#716D6D" font-family="'ArialMT'" font-size="15">11.06</text>
<text transform="matrix(1 0 0 1 665.0454 142.9839)" fill="#716D6D" font-family="'ArialMT'" font-size="15">11.46</text>
<text transform="matrix(1 0 0 1 543.0454 142.9839)" fill="#716D6D" font-family="'ArialMT'" font-size="15">11.86</text>
<text transform="matrix(1 0 0 1 421.0454 142.9839)" fill="#716D6D" font-family="'ArialMT'" font-size="15">12.26</text>
<text transform="matrix(1 0 0 1 299.0454 142.9839)" fill="#716D6D" font-family="'ArialMT'" font-size="15">12.66</text>
<text transform="matrix(1 0 0 1 177.0454 142.9839)" fill="#716D6D" font-family="'ArialMT'" font-size="15">13.06</text>
<text transform="matrix(1 0 0 1 55.0456 142.9839)" fill="#716D6D" font-family="'ArialMT'" font-size="15">13.46</text>
<text transform="matrix(1 0 0 1 1042.0454 100.9839)" fill="#716D6D" font-family="'AdobeSongStd-Light-GBpc-EUC-H'" font-size="12">最快</text>
<text transform="matrix(1 0 0 1 596.0454 100.9839)" fill="#716D6D" font-family="'ArialMT'" font-size="12">Mid</text>
<text transform="matrix(1 0 0 1 72.0456 100.9839)" enable-background="new    "><tspan x="0" y="0" fill="#716D6D" font-family="'ArialMT'" font-size="12"> </tspan><tspan x="3.334" y="0" fill="#716D6D" font-family="'AdobeSongStd-Light-GBpc-EUC-H'" font-size="12">最慢（秒）</tspan></text>
<text transform="matrix(1 0 0 1 15.0456 119.9839)" fill="#716D6D" font-family="'AdobeSongStd-Light-GBpc-EUC-H'" font-size="15">绕桩变向</text>
<line fill="none" stroke="#847F7F" stroke-width="2" x1="1052.047" y1="112.984" x2="82.047" y2="112.984"/>
<line fill="none" stroke="#DCDDDD" stroke-width="15" x1="722.047" y1="113.984" x2="490.047" y2="113.984"/>
<circle stroke="#FFFFFF" stroke-width="0.5" cx="1052.047" cy="112.984" r="5"/>
<circle fill="#595757" stroke="#FFFFFF" stroke-width="2" cx="606.047" cy="112.984" r="9"/>
<circle stroke="#FFFFFF" stroke-width="0.5" cx="82.047" cy="112.984" r="5"/>
<circle fill="#3261C7" stroke="#FFFFFF" stroke-width="0.5" cx="743.047" cy="112.984" r="5"/>
<text transform="matrix(1 0 0 1 1033.0454 232.7176)" fill="#716D6D" font-family="'ArialMT'" font-size="15">2.69</text>
<text transform="matrix(1 0 0 1 918.0454 232.7176)" fill="#716D6D" font-family="'ArialMT'" font-size="15">2.79</text>
<text transform="matrix(1 0 0 1 804.0454 232.7176)" fill="#716D6D" font-family="'ArialMT'" font-size="15">2.89</text>
<text transform="matrix(1 0 0 1 690.0454 232.7176)" fill="#716D6D" font-family="'ArialMT'" font-size="15">2.99</text>
<text transform="matrix(1 0 0 1 576.0454 232.7176)" fill="#716D6D" font-family="'ArialMT'" font-size="15">3.09</text>
<text transform="matrix(1 0 0 1 462.0454 232.7176)" fill="#716D6D" font-family="'ArialMT'" font-size="15">3.19</text>
<text transform="matrix(1 0 0 1 348.0452 232.7176)" fill="#716D6D" font-family="'ArialMT'" font-size="15">3.29</text>
<text transform="matrix(1 0 0 1 234.0452 232.7176)" fill="#716D6D" font-family="'ArialMT'" font-size="15">3.39</text>
<text transform="matrix(1 0 0 1 120.0452 232.7176)" fill="#716D6D" font-family="'ArialMT'" font-size="15">3.49</text>
<text transform="matrix(1 0 0 1 1043.0454 190.7176)" fill="#716D6D" font-family="'AdobeSongStd-Light-GBpc-EUC-H'" font-size="12">最快</text>
<text transform="matrix(1 0 0 1 552.0454 190.7176)" fill="#716D6D" font-family="'ArialMT'" font-size="12">Mid</text>
<text transform="matrix(1 0 0 1 73.0453 190.7176)" enable-background="new    "><tspan x="0" y="0" fill="#716D6D" font-family="'ArialMT'" font-size="12"> </tspan><tspan x="3.334" y="0" fill="#716D6D" font-family="'AdobeSongStd-Light-GBpc-EUC-H'" font-size="12">最慢（秒）</tspan></text>
<text transform="matrix(1 0 0 1 32.0453 209.7176)" fill="#716D6D" font-family="'AdobeSongStd-Light-GBpc-EUC-H'" font-size="15">折反跑</text>
<line fill="none" stroke="#847F7F" stroke-width="2" x1="1053.045" y1="202.718" x2="83.045" y2="202.718"/>
<line fill="none" stroke="#DCDDDD" stroke-width="15" x1="710.045" y1="202.718" x2="402.045" y2="202.718"/>
<circle stroke="#FFFFFF" stroke-width="0.5" cx="1052.045" cy="202.718" r="5"/>
<circle fill="#595757" stroke="#FFFFFF" stroke-width="2" cx="562.045" cy="202.718" r="9"/>
<circle stroke="#FFFFFF" stroke-width="0.5" cx="83.045" cy="202.718" r="5"/>
<circle fill="#3261C7" stroke="#FFFFFF" stroke-width="0.5" cx="813.045" cy="202.718" r="5"/>
<line fill="none" stroke="#DAD7D7" stroke-width="0.5" x1="82.046" y1="284.684" x2="82.046" y2="294.684"/>
<text transform="matrix(1 0 0 1 62.0453 314.6838)" fill="#716D6D" font-family="'ArialMT'" font-size="15">20.5</text>
<line fill="none" stroke="#DAD7D7" stroke-width="0.5" x1="201.046" y1="284.684" x2="201.046" y2="294.684"/>
<text transform="matrix(1 0 0 1 181.0452 314.6838)" fill="#716D6D" font-family="'ArialMT'" font-size="15">22.6</text>
<line fill="none" stroke="#DAD7D7" stroke-width="0.5" x1="321.046" y1="284.684" x2="321.046" y2="294.684"/>
<text transform="matrix(1 0 0 1 301.0452 314.6838)" fill="#716D6D" font-family="'ArialMT'" font-size="15">24.7</text>
<line fill="none" stroke="#DAD7D7" stroke-width="0.5" x1="441.046" y1="284.684" x2="441.046" y2="294.684"/>
<text transform="matrix(1 0 0 1 421.0452 314.6838)" fill="#716D6D" font-family="'ArialMT'" font-size="15">26.8</text>
<line fill="none" stroke="#DAD7D7" stroke-width="0.5" x1="561.046" y1="284.684" x2="561.046" y2="294.684"/>
<text transform="matrix(1 0 0 1 541.0454 314.6838)" fill="#716D6D" font-family="'ArialMT'" font-size="15">28.9</text>
<line fill="none" stroke="#DAD7D7" stroke-width="0.5" x1="681.046" y1="284.684" x2="681.046" y2="294.684"/>
<text transform="matrix(1 0 0 1 661.0454 314.6838)" fill="#716D6D" font-family="'ArialMT'" font-size="15">31</text>
<line fill="none" stroke="#DAD7D7" stroke-width="0.5" x1="800.046" y1="284.684" x2="800.046" y2="294.684"/>
<text transform="matrix(1 0 0 1 780.0454 314.6838)" fill="#716D6D" font-family="'ArialMT'" font-size="15">33.1</text>
<line fill="none" stroke="#DAD7D7" stroke-width="0.5" x1="920.046" y1="284.684" x2="920.046" y2="294.684"/>
<text transform="matrix(1 0 0 1 900.0454 314.6838)" fill="#716D6D" font-family="'ArialMT'" font-size="15">35.2</text>
<line fill="none" stroke="#DAD7D7" stroke-width="0.5" x1="1040.046" y1="284.684" x2="1040.046" y2="294.684"/>
<text transform="matrix(1 0 0 1 1020.0454 314.6838)" fill="#716D6D" font-family="'ArialMT'" font-size="15">37.3</text>
<text transform="matrix(1 0 0 1 72.0453 272.6838)" fill="#716D6D" font-family="'AdobeSongStd-Light-GBpc-EUC-H'" font-size="12">最低（英寸）</text>
<text transform="matrix(1 0 0 1 528.0454 272.6838)" fill="#716D6D" font-family="'ArialMT'" font-size="12">Mid</text>
<text transform="matrix(1 0 0 1 1042.0454 272.6838)" fill="#716D6D" font-family="'AdobeSongStd-Light-GBpc-EUC-H'" font-size="12">最高</text>
<text transform="matrix(1 0 0 1 12.0453 291.6838)" fill="#716D6D" font-family="'AdobeSongStd-Light-GBpc-EUC-H'" font-size="15">垂直纵跳</text>
<line fill="none" stroke="#847F7F" stroke-width="2" x1="82.046" y1="284.684" x2="1052.046" y2="284.684"/>
<line fill="none" stroke="#DCDDDD" stroke-width="15" x1="395.046" y1="284.684" x2="652.046" y2="284.684"/>
<circle stroke="#FFFFFF" stroke-width="0.5" cx="82.046" cy="284.684" r="5"/>
<circle fill="#595757" stroke="#FFFFFF" stroke-width="2" cx="538.046" cy="284.684" r="9"/>
<circle stroke="#FFFFFF" stroke-width="0.5" cx="1052.046" cy="284.684" r="5"/>
<circle fill="#3261C7" stroke="#FFFFFF" stroke-width="0.5" cx="709.046" cy="284.684" r="5"/>
<line fill="none" stroke="#DAD7D7" stroke-width="0.5" x1="82.046" y1="373.967" x2="82.046" y2="383.967"/>
<text transform="matrix(1 0 0 1 62.0456 403.967)" fill="#716D6D" font-family="'ArialMT'" font-size="15">25</text>
<line fill="none" stroke="#DAD7D7" stroke-width="0.5" x1="200.046" y1="373.967" x2="200.046" y2="383.967"/>
<text transform="matrix(1 0 0 1 180.0454 403.967)" fill="#716D6D" font-family="'ArialMT'" font-size="15">26.9</text>
<line fill="none" stroke="#DAD7D7" stroke-width="0.5" x1="319.046" y1="373.967" x2="319.046" y2="383.967"/>
<text transform="matrix(1 0 0 1 299.0454 403.967)" fill="#716D6D" font-family="'ArialMT'" font-size="15">28.8</text>
<line fill="none" stroke="#DAD7D7" stroke-width="0.5" x1="438.046" y1="373.967" x2="438.046" y2="383.967"/>
<text transform="matrix(1 0 0 1 418.0454 403.967)" fill="#716D6D" font-family="'ArialMT'" font-size="15">30.7</text>
<line fill="none" stroke="#DAD7D7" stroke-width="0.5" x1="557.046" y1="373.967" x2="557.046" y2="383.967"/>
<text transform="matrix(1 0 0 1 537.0454 403.967)" fill="#716D6D" font-family="'ArialMT'" font-size="15">32.6</text>
<line fill="none" stroke="#DAD7D7" stroke-width="0.5" x1="676.046" y1="373.967" x2="676.046" y2="383.967"/>
<text transform="matrix(1 0 0 1 656.0454 403.967)" fill="#716D6D" font-family="'ArialMT'" font-size="15">34.5</text>
<line fill="none" stroke="#DAD7D7" stroke-width="0.5" x1="795.046" y1="373.967" x2="795.046" y2="383.967"/>
<text transform="matrix(1 0 0 1 775.0454 403.967)" fill="#716D6D" font-family="'ArialMT'" font-size="15">36.4</text>
<line fill="none" stroke="#DAD7D7" stroke-width="0.5" x1="914.046" y1="373.967" x2="914.046" y2="383.967"/>
<text transform="matrix(1 0 0 1 894.0454 403.967)" fill="#716D6D" font-family="'ArialMT'" font-size="15">38.3</text>
<line fill="none" stroke="#DAD7D7" stroke-width="0.5" x1="1033.046" y1="373.967" x2="1033.046" y2="383.967"/>
<text transform="matrix(1 0 0 1 1013.0454 403.967)" fill="#716D6D" font-family="'ArialMT'" font-size="15">40.2</text>
<text transform="matrix(1 0 0 1 72.0456 361.967)" fill="#716D6D" font-family="'AdobeSongStd-Light-GBpc-EUC-H'" font-size="12">最低（英寸）</text>
<text transform="matrix(1 0 0 1 541.0454 361.967)" fill="#716D6D" font-family="'ArialMT'" font-size="12">Mid</text>
<text transform="matrix(1 0 0 1 1042.0454 361.967)" fill="#716D6D" font-family="'AdobeSongStd-Light-GBpc-EUC-H'" font-size="12">最高</text>
<text transform="matrix(1 0 0 1 25.0456 380.967)" fill="#716D6D" font-family="'AdobeSongStd-Light-GBpc-EUC-H'" font-size="15">助跑跳</text>
<line fill="none" stroke="#847F7F" stroke-width="2" x1="82.046" y1="373.967" x2="1052.046" y2="373.967"/>
<line fill="none" stroke="#DCDDDD" stroke-width="15" x1="426.046" y1="373.967" x2="739.046" y2="373.967"/>
<circle stroke="#FFFFFF" stroke-width="0.5" cx="82.046" cy="373.967" r="5"/>
<circle fill="#595757" stroke="#FFFFFF" stroke-width="2" cx="551.046" cy="373.967" r="9"/>
<circle stroke="#FFFFFF" stroke-width="0.5" cx="1052.046" cy="373.967" r="5"/>
<circle fill="#3261C7" stroke="#FFFFFF" stroke-width="0.5" cx="520.046" cy="373.967" r="5"/>
<line fill="none" stroke="#DAD7D7" stroke-width="0.5" x1="82.045" y1="459.718" x2="82.045" y2="469.718"/>
<text transform="matrix(1 0 0 1 62.0453 489.7176)" fill="#716D6D" font-family="'ArialMT'" font-size="15">0</text>
<line fill="none" stroke="#DAD7D7" stroke-width="0.5" x1="203.045" y1="459.718" x2="203.045" y2="469.718"/>
<text transform="matrix(1 0 0 1 183.0452 489.7176)" fill="#716D6D" font-family="'ArialMT'" font-size="15">3.25</text>
<line fill="none" stroke="#DAD7D7" stroke-width="0.5" x1="324.046" y1="459.718" x2="324.046" y2="469.718"/>
<text transform="matrix(1 0 0 1 304.0452 489.7176)" fill="#716D6D" font-family="'ArialMT'" font-size="15">6.5</text>
<line fill="none" stroke="#DAD7D7" stroke-width="0.5" x1="445.046" y1="459.718" x2="445.046" y2="469.718"/>
<text transform="matrix(1 0 0 1 425.0452 489.7176)" fill="#716D6D" font-family="'ArialMT'" font-size="15">9.75</text>
<line fill="none" stroke="#DAD7D7" stroke-width="0.5" x1="567.045" y1="459.718" x2="567.045" y2="469.718"/>
<text transform="matrix(1 0 0 1 547.0454 489.7176)" fill="#716D6D" font-family="'ArialMT'" font-size="15">13</text>
<line fill="none" stroke="#DAD7D7" stroke-width="0.5" x1="688.045" y1="459.718" x2="688.045" y2="469.718"/>
<text transform="matrix(1 0 0 1 668.0454 489.7176)" fill="#716D6D" font-family="'ArialMT'" font-size="15">16.25</text>
<line fill="none" stroke="#DAD7D7" stroke-width="0.5" x1="809.045" y1="459.718" x2="809.045" y2="469.718"/>
<text transform="matrix(1 0 0 1 789.0454 489.7176)" fill="#716D6D" font-family="'ArialMT'" font-size="15">19.5</text>
<line fill="none" stroke="#DAD7D7" stroke-width="0.5" x1="930.045" y1="459.718" x2="930.045" y2="469.718"/>
<text transform="matrix(1 0 0 1 910.0454 489.7176)" fill="#716D6D" font-family="'ArialMT'" font-size="15">22.75</text>
<line fill="none" stroke="#DAD7D7" stroke-width="0.5" x1="1052.046" y1="459.718" x2="1052.046" y2="469.718"/>
<text transform="matrix(1 0 0 1 1032.0454 489.7176)" fill="#716D6D" font-family="'ArialMT'" font-size="15">26</text>
<text transform="matrix(1 0 0 1 72.0453 447.7176)" fill="#716D6D" font-family="'AdobeSongStd-Light-GBpc-EUC-H'" font-size="12">最少（84kg重复推起次数）</text>
<text transform="matrix(1 0 0 1 538.0454 447.7176)" fill="#716D6D" font-family="'ArialMT'" font-size="12">Mid</text>
<text transform="matrix(1 0 0 1 1042.0454 447.7176)" fill="#716D6D" font-family="'AdobeSongStd-Light-GBpc-EUC-H'" font-size="12">最多</text>
<text transform="matrix(1 0 0 1 33.0453 466.7176)" fill="#716D6D" font-family="'AdobeSongStd-Light-GBpc-EUC-H'" font-size="15">卧推</text>
<line fill="none" stroke="#847F7F" stroke-width="2" x1="82.045" y1="459.718" x2="1052.046" y2="459.718"/>
<line fill="none" stroke="#DCDDDD" stroke-width="15" x1="417.046" y1="459.718" x2="678.045" y2="459.718"/>
<circle stroke="#FFFFFF" stroke-width="0.5" cx="82.045" cy="459.718" r="5"/>
<circle fill="#595757" stroke="#FFFFFF" stroke-width="2" cx="548.045" cy="459.718" r="9"/>
<circle stroke="#FFFFFF" stroke-width="0.5" cx="1052.045" cy="459.718" r="5"/>
<line fill="none" stroke="#DAD7D7" stroke-width="0.5" x1="83.545" y1="546.717" x2="83.545" y2="556.717"/>
<text transform="matrix(1 0 0 1 63.5456 576.717)" fill="#716D6D" font-family="'ArialMT'" font-size="15">1.9939</text>
<line fill="none" stroke="#DAD7D7" stroke-width="0.5" x1="202.545" y1="546.717" x2="202.545" y2="556.717"/>
<text transform="matrix(1 0 0 1 182.5454 576.717)" fill="#716D6D" font-family="'ArialMT'" font-size="15">2.0189</text>
<line fill="none" stroke="#DAD7D7" stroke-width="0.5" x1="321.545" y1="546.717" x2="321.545" y2="556.717"/>
<text transform="matrix(1 0 0 1 301.5454 576.717)" fill="#716D6D" font-family="'ArialMT'" font-size="15">2.0439</text>
<line fill="none" stroke="#DAD7D7" stroke-width="0.5" x1="441.545" y1="546.717" x2="441.545" y2="556.717"/>
<text transform="matrix(1 0 0 1 421.5454 576.717)" fill="#716D6D" font-family="'ArialMT'" font-size="15">2.0689</text>
<line fill="none" stroke="#DAD7D7" stroke-width="0.5" x1="560.545" y1="546.717" x2="560.545" y2="556.717"/>
<text transform="matrix(1 0 0 1 540.5454 576.717)" fill="#716D6D" font-family="'ArialMT'" font-size="15">2.0939</text>
<line fill="none" stroke="#DAD7D7" stroke-width="0.5" x1="679.545" y1="546.717" x2="679.545" y2="556.717"/>
<text transform="matrix(1 0 0 1 659.5454 576.717)" fill="#716D6D" font-family="'ArialMT'" font-size="15">2.1189</text>
<line fill="none" stroke="#DAD7D7" stroke-width="0.5" x1="799.545" y1="546.717" x2="799.545" y2="556.717"/>
<text transform="matrix(1 0 0 1 779.5454 576.717)" fill="#716D6D" font-family="'ArialMT'" font-size="15">2.1439</text>
<line fill="none" stroke="#DAD7D7" stroke-width="0.5" x1="918.545" y1="546.717" x2="918.545" y2="556.717"/>
<text transform="matrix(1 0 0 1 898.5454 576.717)" fill="#716D6D" font-family="'ArialMT'" font-size="15">2.1689</text>
<line fill="none" stroke="#DAD7D7" stroke-width="0.5" x1="1037.545" y1="546.717" x2="1037.545" y2="556.717"/>
<text transform="matrix(1 0 0 1 1017.5454 576.717)" fill="#716D6D" font-family="'ArialMT'" font-size="15">2.1939</text>
<text transform="matrix(1 0 0 1 73.5456 534.717)" fill="#716D6D" font-family="'AdobeSongStd-Light-GBpc-EUC-H'" font-size="12">最低（米）</text>
<text transform="matrix(1 0 0 1 497.5454 534.717)" fill="#716D6D" font-family="'ArialMT'" font-size="12">Mid</text>
<text transform="matrix(1 0 0 1 1043.5454 534.717)" fill="#716D6D" font-family="'AdobeSongStd-Light-GBpc-EUC-H'" font-size="12">最高</text>
<text transform="matrix(1 0 0 1 13.5456 553.717)" fill="#716D6D" font-family="'AdobeSongStd-Light-GBpc-EUC-H'" font-size="15">穿鞋身高</text>
<line fill="none" stroke="#847F7F" stroke-width="2" x1="83.545" y1="546.717" x2="1053.545" y2="546.717"/>
<line fill="none" stroke="#DCDDDD" stroke-width="15" x1="355.545" y1="546.717" x2="658.545" y2="546.717"/>
<circle stroke="#FFFFFF" stroke-width="0.5" cx="83.545" cy="546.717" r="5"/>
<circle fill="#595757" stroke="#FFFFFF" stroke-width="2" cx="507.545" cy="546.717" r="9"/>
<circle stroke="#FFFFFF" stroke-width="0.5" cx="1051.545" cy="546.717" r="5"/>
<circle fill="#3261C7" stroke="#FFFFFF" stroke-width="0.5" cx="1022.545" cy="546.717" r="5"/>
<line fill="none" stroke="#DAD7D7" stroke-width="0.5" x1="83.044" y1="805.177" x2="83.044" y2="815.177"/>
<text transform="matrix(1 0 0 1 63.0441 835.1776)" fill="#716D6D" font-family="'ArialMT'" font-size="15">0.032</text>
<line fill="none" stroke="#DAD7D7" stroke-width="0.5" x1="204.044" y1="805.177" x2="204.044" y2="815.177"/>
<text transform="matrix(1 0 0 1 184.044 835.1776)" fill="#716D6D" font-family="'ArialMT'" font-size="15">0.054</text>
<line fill="none" stroke="#DAD7D7" stroke-width="0.5" x1="325.044" y1="805.177" x2="325.044" y2="815.177"/>
<text transform="matrix(1 0 0 1 305.044 835.1776)" fill="#716D6D" font-family="'ArialMT'" font-size="15">0.076</text>
<line fill="none" stroke="#DAD7D7" stroke-width="0.5" x1="446.044" y1="805.177" x2="446.044" y2="815.177"/>
<text transform="matrix(1 0 0 1 426.044 835.1776)" fill="#716D6D" font-family="'ArialMT'" font-size="15">0.098</text>
<line fill="none" stroke="#DAD7D7" stroke-width="0.5" x1="568.044" y1="805.177" x2="568.044" y2="815.177"/>
<text transform="matrix(1 0 0 1 548.0439 835.1776)" fill="#716D6D" font-family="'ArialMT'" font-size="15">0.12</text>
<line fill="none" stroke="#DAD7D7" stroke-width="0.5" x1="689.044" y1="805.177" x2="689.044" y2="815.177"/>
<text transform="matrix(1 0 0 1 669.0439 835.1776)" fill="#716D6D" font-family="'ArialMT'" font-size="15">0.142</text>
<line fill="none" stroke="#DAD7D7" stroke-width="0.5" x1="810.044" y1="805.177" x2="810.044" y2="815.177"/>
<text transform="matrix(1 0 0 1 790.0439 835.1776)" fill="#716D6D" font-family="'ArialMT'" font-size="15">0.164</text>
<line fill="none" stroke="#DAD7D7" stroke-width="0.5" x1="931.044" y1="805.177" x2="931.044" y2="815.177"/>
<text transform="matrix(1 0 0 1 911.0439 835.1776)" fill="#716D6D" font-family="'ArialMT'" font-size="15">0.186</text>
<line fill="none" stroke="#DAD7D7" stroke-width="0.5" x1="1053.044" y1="805.177" x2="1053.044" y2="815.177"/>
<text transform="matrix(1 0 0 1 1033.0439 835.1776)" fill="#716D6D" font-family="'ArialMT'" font-size="15">0.208</text>
<text transform="matrix(1 0 0 1 73.0441 793.1776)" fill="#716D6D" font-family="'AdobeSongStd-Light-GBpc-EUC-H'" font-size="12">最低</text>
<text transform="matrix(1 0 0 1 329.044 793.1776)" fill="#716D6D" font-family="'ArialMT'" font-size="12">Mid</text>
<text transform="matrix(1 0 0 1 1043.0439 793.1776)" fill="#716D6D" font-family="'AdobeSongStd-Light-GBpc-EUC-H'" font-size="12">最高</text>
<text transform="matrix(1 0 0 1 26.0441 812.1776)" fill="#716D6D" font-family="'AdobeSongStd-Light-GBpc-EUC-H'" font-size="15">体脂率</text>
<line fill="none" stroke="#847F7F" stroke-width="2" x1="83.044" y1="805.177" x2="1053.044" y2="805.177"/>
<line fill="none" stroke="#DCDDDD" stroke-width="15" x1="242.044" y1="805.177" x2="468.044" y2="805.177"/>
<circle stroke="#FFFFFF" stroke-width="0.5" cx="83.044" cy="805.177" r="5"/>
<circle fill="#595757" stroke="#FFFFFF" stroke-width="2" cx="339.044" cy="805.177" r="9"/>
<circle stroke="#FFFFFF" stroke-width="0.5" cx="1051.044" cy="805.177" r="5"/>
<circle fill="#3261C7" stroke="#FFFFFF" stroke-width="0.5" cx="171.044" cy="805.177" r="5"/>
<line fill="none" stroke="#DAD7D7" stroke-width="0.5" x1="81.544" y1="726.871" x2="81.544" y2="736.871"/>
<text transform="matrix(1 0 0 1 61.5441 756.8714)" fill="#716D6D" font-family="'ArialMT'" font-size="15">82.64</text>
<line fill="none" stroke="#DAD7D7" stroke-width="0.5" x1="205.544" y1="726.871" x2="205.544" y2="736.871"/>
<text transform="matrix(1 0 0 1 185.544 756.8714)" fill="#716D6D" font-family="'ArialMT'" font-size="15">89.64</text>
<line fill="none" stroke="#DAD7D7" stroke-width="0.5" x1="329.544" y1="726.871" x2="329.544" y2="736.871"/>
<text transform="matrix(1 0 0 1 309.544 756.8714)" fill="#716D6D" font-family="'ArialMT'" font-size="15">96.64</text>
<line fill="none" stroke="#DAD7D7" stroke-width="0.5" x1="454.544" y1="726.871" x2="454.544" y2="736.871"/>
<text transform="matrix(1 0 0 1 434.544 756.8714)" fill="#716D6D" font-family="'ArialMT'" font-size="15">103.64</text>
<line fill="none" stroke="#DAD7D7" stroke-width="0.5" x1="578.544" y1="726.871" x2="578.544" y2="736.871"/>
<text transform="matrix(1 0 0 1 558.5439 756.8714)" fill="#716D6D" font-family="'ArialMT'" font-size="15">110.64</text>
<line fill="none" stroke="#DAD7D7" stroke-width="0.5" x1="702.544" y1="726.871" x2="702.544" y2="736.871"/>
<text transform="matrix(1 0 0 1 682.5439 756.8714)" fill="#716D6D" font-family="'ArialMT'" font-size="15">117.64</text>
<line fill="none" stroke="#DAD7D7" stroke-width="0.5" x1="827.544" y1="726.871" x2="827.544" y2="736.871"/>
<text transform="matrix(1 0 0 1 807.5439 756.8714)" fill="#716D6D" font-family="'ArialMT'" font-size="15">124.64</text>
<line fill="none" stroke="#DAD7D7" stroke-width="0.5" x1="951.544" y1="726.871" x2="951.544" y2="736.871"/>
<text transform="matrix(1 0 0 1 931.5439 756.8714)" fill="#716D6D" font-family="'ArialMT'" font-size="15">131.64</text>
<text transform="matrix(1 0 0 1 1013.5439 756.8714)" fill="#716D6D" font-family="'ArialMT'" font-size="15">138.64</text>
<text transform="matrix(1 0 0 1 71.5441 714.8715)" fill="#716D6D" font-family="'AdobeSongStd-Light-GBpc-EUC-H'" font-size="12">最轻（公斤）</text>
<text transform="matrix(1 0 0 1 525.5439 714.8715)" fill="#716D6D" font-family="'ArialMT'" font-size="12">Mid</text>
<text transform="matrix(1 0 0 1 1041.5439 714.8715)" fill="#716D6D" font-family="'AdobeSongStd-Light-GBpc-EUC-H'" font-size="12">最重</text>
<text transform="matrix(1 0 0 1 28.5441 733.8715)" fill="#716D6D" font-family="'AdobeSongStd-Light-GBpc-EUC-H'" font-size="15">体重</text>
<line fill="none" stroke="#847F7F" stroke-width="2" x1="81.544" y1="726.871" x2="1051.544" y2="726.871"/>
<line fill="none" stroke="#DCDDDD" stroke-width="15" x1="425.544" y1="726.871" x2="608.544" y2="726.871"/>
<circle stroke="#FFFFFF" stroke-width="0.5" cx="81.544" cy="726.871" r="5"/>
<circle fill="#595757" stroke="#FFFFFF" stroke-width="2" cx="535.544" cy="726.871" r="9"/>
<circle stroke="#FFFFFF" stroke-width="0.5" cx="1051.544" cy="726.871" r="5"/>
<circle fill="#3261C7" stroke="#FFFFFF" stroke-width="0.5" cx="371.544" cy="726.871" r="5"/>
<line fill="none" stroke="#DAD7D7" stroke-width="0.5" x1="81.547" y1="631.719" x2="81.547" y2="641.719"/>
<text transform="matrix(1 0 0 1 61.5456 661.7191)" fill="#716D6D" font-family="'ArialMT'" font-size="15">2.05105</text>
<line fill="none" stroke="#DAD7D7" stroke-width="0.5" x1="238.547" y1="631.719" x2="238.547" y2="641.719"/>
<text transform="matrix(1 0 0 1 218.5454 661.7191)" fill="#716D6D" font-family="'ArialMT'" font-size="15">2.15105</text>
<line fill="none" stroke="#DAD7D7" stroke-width="0.5" x1="395.547" y1="631.719" x2="395.547" y2="641.719"/>
<text transform="matrix(1 0 0 1 375.5454 661.7191)" fill="#716D6D" font-family="'ArialMT'" font-size="15">2.25105</text>
<line fill="none" stroke="#DAD7D7" stroke-width="0.5" x1="553.547" y1="631.719" x2="553.547" y2="641.719"/>
<text transform="matrix(1 0 0 1 533.5454 661.7191)" fill="#716D6D" font-family="'ArialMT'" font-size="15">2.35105</text>
<line fill="none" stroke="#DAD7D7" stroke-width="0.5" x1="710.547" y1="631.719" x2="710.547" y2="641.719"/>
<text transform="matrix(1 0 0 1 690.5454 661.7191)" fill="#716D6D" font-family="'ArialMT'" font-size="15">2.45105</text>
<line fill="none" stroke="#DAD7D7" stroke-width="0.5" x1="868.547" y1="631.719" x2="868.547" y2="641.719"/>
<text transform="matrix(1 0 0 1 848.5454 661.7191)" fill="#716D6D" font-family="'ArialMT'" font-size="15">2.55105</text>
<line fill="none" stroke="#DAD7D7" stroke-width="0.5" x1="1025.547" y1="631.719" x2="1025.547" y2="641.719"/>
<text transform="matrix(1 0 0 1 1005.5454 661.7191)" fill="#716D6D" font-family="'ArialMT'" font-size="15">2.65105</text>
<text transform="matrix(1 0 0 1 71.5456 619.7191)" fill="#716D6D" font-family="'AdobeSongStd-Light-GBpc-EUC-H'" font-size="12">最短（米）</text>
<text transform="matrix(1 0 0 1 281.5454 619.7191)" fill="#716D6D" font-family="'ArialMT'" font-size="12">Mid</text>
<text transform="matrix(1 0 0 1 1041.5454 619.7191)" fill="#716D6D" font-family="'AdobeSongStd-Light-GBpc-EUC-H'" font-size="12">最长</text>
<text transform="matrix(1 0 0 1 36.5456 638.7191)" fill="#716D6D" font-family="'AdobeSongStd-Light-GBpc-EUC-H'" font-size="15">臂展</text>
<line fill="none" stroke="#847F7F" stroke-width="2" x1="81.547" y1="631.719" x2="1051.547" y2="631.719"/>
<line fill="none" stroke="#DCDDDD" stroke-width="15" x1="220.547" y1="631.719" x2="358.547" y2="631.719"/>
<circle stroke="#FFFFFF" stroke-width="0.5" cx="81.547" cy="631.719" r="5"/>
<circle fill="#595757" stroke="#FFFFFF" stroke-width="2" cx="291.547" cy="631.719" r="9"/>
<circle stroke="#FFFFFF" stroke-width="0.5" cx="1051.547" cy="631.719" r="5"/>
<circle fill="#3261C7" stroke="#FFFFFF" stroke-width="0.5" cx="520.547" cy="631.719" r="5"/>
<rect x="550.848" y="23.546" transform="matrix(0.7071 -0.7071 0.7071 0.7071 140.8801 405.6026)" fill="#005FAF" stroke="#FFFFFF" width="18.395" height="18.395"/>
<rect x="733.849" y="103.786" transform="matrix(0.7071 -0.7071 0.7071 0.7071 137.7417 558.5057)" fill="#005FAF" stroke="#FFFFFF" width="18.395" height="18.395"/>
<rect x="803.848" y="193.52" transform="matrix(0.7071 -0.7071 0.7071 0.7071 94.7924 634.2846)" fill="#005FAF" stroke="#FFFFFF" width="18.395" height="18.395"/>
<rect x="699.848" y="275.486" transform="matrix(0.7071 -0.7071 0.7071 0.7071 6.3729 584.7532)" fill="#005FAF" stroke="#FFFFFF" width="18.395" height="18.395"/>
<rect x="510.848" y="364.77" transform="matrix(0.7071 -0.7071 0.7071 0.7071 -112.1169 477.2603)" fill="#005FAF" stroke="#FFFFFF" width="18.395" height="18.395"/>
<rect x="1013.348" y="537.52" transform="matrix(0.7071 -0.7071 0.7071 0.7071 -87.091 883.1785)" fill="#005FAF" stroke="#FFFFFF" width="18.395" height="18.395"/>
<rect x="511.641" y="622.521" transform="matrix(0.7071 -0.7071 0.7071 0.7071 -294.1427 553.3149)" fill="#005FAF" stroke="#FFFFFF" width="18.395" height="18.395"/>
<rect x="362.347" y="717.674" transform="matrix(0.7071 -0.7071 0.7071 0.7071 -405.1528 475.6171)" fill="#005FAF" stroke="#FFFFFF" width="18.395" height="18.395"/>
<rect x="161.846" y="795.979" transform="matrix(0.7071 -0.7071 0.7071 0.7071 -519.2484 356.7771)" fill="#005FAF" stroke="#FFFFFF" width="18.395" height="18.395"/>
</svg>
