<?xml version="1.0" encoding="utf-8"?>
<!-- Generator: Adobe Illustrator 17.0.0, SVG Export Plug-In . SVG Version: 6.00 Build 0)  -->
<!DOCTYPE svg PUBLIC "-//W3C//DTD SVG 1.1//EN" "http://www.w3.org/Graphics/SVG/1.1/DTD/svg11.dtd">
<svg version="1.1" id="图层_1" xmlns="http://www.w3.org/2000/svg" xmlns:xlink="http://www.w3.org/1999/xlink" x="0px" y="0px"
	 width="1666.073px" height="481.342px" viewBox="0 0 1666.073 481.342" enable-background="new 0 0 1666.073 481.342"
	 xml:space="preserve">
<line fill="none" stroke="#DAD7D7" stroke-width="0.4037" x1="79.018" y1="38.053" x2="79.018" y2="336.758"/>
<text transform="matrix(1 0 0 1 74.1719 365.0716)" fill="#716D6D" font-family="'ArialMT'" font-size="14.8705">0</text>
<line fill="none" stroke="#DAD7D7" stroke-width="0.4037" x1="199.307" y1="38.053" x2="199.307" y2="336.758"/>
<text transform="matrix(1 0 0 1 194.4609 365.0716)" fill="#716D6D" font-family="'ArialMT'" font-size="14.8705">2</text>
<line fill="none" stroke="#DAD7D7" stroke-width="0.4037" x1="320.404" y1="38.053" x2="320.404" y2="336.758"/>
<text transform="matrix(1 0 0 1 315.5596 365.0716)" fill="#716D6D" font-family="'ArialMT'" font-size="14.8705">4</text>
<line fill="none" stroke="#DAD7D7" stroke-width="0.4037" x1="440.693" y1="38.053" x2="440.693" y2="336.758"/>
<text transform="matrix(1 0 0 1 435.8486 365.0716)" fill="#716D6D" font-family="'ArialMT'" font-size="14.8705">6</text>
<line fill="none" stroke="#DAD7D7" stroke-width="0.4037" x1="561.79" y1="38.053" x2="561.79" y2="336.758"/>
<text transform="matrix(1 0 0 1 556.9443 365.0716)" fill="#716D6D" font-family="'ArialMT'" font-size="14.8705">8</text>
<line fill="none" stroke="#DAD7D7" stroke-width="0.4037" x1="682.886" y1="38.053" x2="682.886" y2="336.758"/>
<text transform="matrix(1 0 0 1 678.042 365.0716)" fill="#716D6D" font-family="'ArialMT'" font-size="14.8705">10</text>
<line fill="none" stroke="#DAD7D7" stroke-width="0.4037" x1="803.176" y1="38.053" x2="803.176" y2="336.758"/>
<text transform="matrix(1 0 0 1 798.3286 365.0716)" fill="#716D6D" font-family="'ArialMT'" font-size="14.8705">12</text>
<line fill="none" stroke="#DAD7D7" stroke-width="0.4037" x1="924.272" y1="38.053" x2="924.272" y2="336.758"/>
<text transform="matrix(1 0 0 1 919.4263 365.0716)" fill="#716D6D" font-family="'ArialMT'" font-size="14.8705">14</text>
<line fill="none" stroke="#DAD7D7" stroke-width="0.4037" x1="1044.562" y1="38.053" x2="1044.562" y2="336.758"/>
<text transform="matrix(1 0 0 1 1039.7144 365.0716)" fill="#716D6D" font-family="'ArialMT'" font-size="14.8705">16</text>
<line fill="none" stroke="#DAD7D7" stroke-width="0.439" x1="1165.658" y1="40.736" x2="1165.658" y2="336.758"/>
<text transform="matrix(1 0 0 1 1160.813 365.0716)" fill="#716D6D" font-family="'ArialMT'" font-size="14.8705">18</text>
<line fill="none" stroke="#DAD7D7" stroke-width="0.441" x1="1286.755" y1="38.053" x2="1286.755" y2="336.758"/>
<text transform="matrix(1 0 0 1 1281.9087 365.0716)" fill="#716D6D" font-family="'ArialMT'" font-size="14.8705">20</text>
<line fill="none" stroke="#DAD7D7" stroke-width="0.441" x1="1407.044" y1="38.053" x2="1407.044" y2="336.758"/>
<text transform="matrix(1 0 0 1 1402.1978 365.0716)" fill="#716D6D" font-family="'ArialMT'" font-size="14.8705">22</text>
<line fill="none" stroke="#DAD7D7" stroke-width="0.441" x1="1528.141" y1="38.053" x2="1528.141" y2="336.758"/>
<text transform="matrix(1 0 0 1 1523.2944 365.0716)" fill="#716D6D" font-family="'ArialMT'" font-size="14.8705">24</text>
<line fill="none" stroke="#DAD7D7" stroke-width="0.441" x1="1648.43" y1="38.973" x2="1648.43" y2="336.758"/>
<text transform="matrix(1 0 0 1 1643.5854 365.0716)" fill="#716D6D" font-family="'ArialMT'" font-size="14.8705">26</text>
<text transform="matrix(1 0 0 1 95.9707 40.7357)" fill="#716D6D" font-family="'ArialMT'" font-size="16.2223">Min</text>
<text transform="matrix(1 0 0 1 350.2734 21.3656)" fill="#716D6D" font-family="'ArialMT'" font-size="9.6877">Avg</text>
<text transform="matrix(1 0 0 1 1076.0454 42.0892)" fill="#716D6D" font-family="'ArialMT'" font-size="16.2223">Max</text>
<text transform="matrix(1 0 0 1 674.8115 10.7884)" fill="#716D6D" font-family="'AdobeSongStd-Light-GBpc-EUC-H'" font-size="9.6877">周琦</text>
<g>
	<text transform="matrix(1 0 0 1 0 43.7044)" fill="#231815" font-family="'HYTieXianHei-EEJ'" font-size="16.2223">篮板</text>
</g>
<line fill="none" stroke="#847F7F" stroke-width="1.6146" x1="129.071" y1="38.053" x2="1068.781" y2="38.053"/>
<line fill="none" stroke="#DCDDDD" stroke-width="15" x1="201.729" y1="38.053" x2="644.135" y2="38.053"/>
<circle stroke="#FFFFFF" stroke-width="0.4037" cx="129.071" cy="38.053" r="4.037"/>
<circle fill="#595757" stroke="#FFFFFF" stroke-width="2" cx="358.347" cy="38.053" r="7.266"/>
<circle stroke="#FFFFFF" stroke-width="0.4037" cx="1068.781" cy="38.053" r="4.037"/>
<circle fill="#3261C7" stroke="#FFFFFF" stroke-width="0.4037" cx="682.886" cy="38.053" r="4.037"/>
<g>
	<text transform="matrix(1 0 0 1 0 92.1429)" fill="#231815" font-family="'HYTieXianHei-EEJ'" font-size="16.2223">得分</text>
</g>
<line fill="none" stroke="#847F7F" stroke-width="1.6146" x1="158.942" y1="86.491" x2="1588.689" y2="86.491"/>
<line fill="none" stroke="#DCDDDD" stroke-width="15" x1="246.131" y1="86.491" x2="1076.047" y2="86.491"/>
<circle stroke="#FFFFFF" stroke-width="0.4037" cx="158.942" cy="86.491" r="4.037"/>
<circle fill="#595757" stroke="#FFFFFF" stroke-width="2" cx="530.305" cy="86.491" r="7.266"/>
<circle fill="#595757" stroke="#FFFFFF" stroke-width="3.1783" cx="1360.514" cy="430.634" r="11.546"/>
<circle stroke="#FFFFFF" stroke-width="0.4037" cx="1588.689" cy="86.491" r="4.037"/>
<circle fill="#3261C7" stroke="#FFFFFF" stroke-width="0.4037" cx="1044.562" cy="86.491" r="4.037"/>
<g>
	<text transform="matrix(1 0 0 1 0 140.5814)" fill="#231815" font-family="'HYTieXianHei-EEJ'" font-size="16.2223">助攻</text>
</g>
<line fill="none" stroke="#847F7F" stroke-width="1.6146" x1="79.018" y1="134.93" x2="368.842" y2="134.93"/>
<line fill="none" stroke="#DCDDDD" stroke-width="15" x1="93.549" y1="134.93" x2="149.254" y2="134.93"/>
<circle stroke="#FFFFFF" stroke-width="0.4037" cx="79.018" cy="134.93" r="4.037"/>
<circle fill="#595757" stroke="#FFFFFF" stroke-width="2" cx="116.961" cy="134.93" r="7.266"/>
<circle stroke="#FFFFFF" stroke-width="0.4037" cx="368.842" cy="134.93" r="4.037"/>
<circle fill="#3261C7" stroke="#FFFFFF" stroke-width="0.4037" cx="150.868" cy="134.93" r="4.037"/>
<g>
	<text transform="matrix(1 0 0 1 0 189.0199)" fill="#231815" font-family="'HYTieXianHei-EEJ'" font-size="16.2223">抢断</text>
</g>
<line fill="none" stroke="#847F7F" stroke-width="1.6146" x1="79.018" y1="183.369" x2="217.875" y2="183.369"/>
<line fill="none" stroke="#DCDDDD" stroke-width="15" x1="93.549" y1="183.369" x2="132.3" y2="183.369"/>
<circle stroke="#FFFFFF" stroke-width="0.4037" cx="79.018" cy="183.369" r="4.037"/>
<circle fill="#595757" stroke="#FFFFFF" stroke-width="2" cx="107.274" cy="183.369" r="7.266"/>
<circle stroke="#FFFFFF" stroke-width="0.4037" cx="217.875" cy="183.369" r="4.037"/>
<circle fill="#3261C7" stroke="#FFFFFF" stroke-width="0.4037" cx="150.868" cy="183.369" r="4.037"/>
<g>
	<text transform="matrix(1 0 0 1 0 237.4574)" fill="#231815" font-family="'HYTieXianHei-EEJ'" font-size="16.2223">盖帽</text>
</g>
<line fill="none" stroke="#847F7F" stroke-width="1.6146" x1="79.018" y1="231.807" x2="223.526" y2="231.807"/>
<line fill="none" stroke="#DCDDDD" stroke-width="15" x1="86.284" y1="231.807" x2="127.456" y2="231.807"/>
<circle stroke="#FFFFFF" stroke-width="0.4037" cx="79.018" cy="231.807" r="4.037"/>
<circle fill="#595757" stroke="#FFFFFF" stroke-width="2" cx="102.43" cy="231.807" r="7.266"/>
<circle stroke="#FFFFFF" stroke-width="0.4037" cx="223.526" cy="231.807" r="4.037"/>
<circle fill="#3261C7" stroke="#FFFFFF" stroke-width="0.4037" cx="217.875" cy="231.807" r="4.037"/>
<g>
	<text transform="matrix(1 0 0 1 0 285.8958)" fill="#231815" font-family="'HYTieXianHei-EEJ'" font-size="16.2223">失误</text>
</g>
<line fill="none" stroke="#847F7F" stroke-width="1.6146" x1="79.018" y1="280.246" x2="289.726" y2="280.246"/>
<line fill="none" stroke="#DCDDDD" stroke-width="15" x1="114.539" y1="280.246" x2="205.766" y2="280.246"/>
<circle stroke="#FFFFFF" stroke-width="0.4037" cx="79.018" cy="280.246" r="4.037"/>
<circle stroke="#FFFFFF" stroke-width="0.4037" cx="289.726" cy="280.246" r="4.037"/>
<circle fill="#3261C7" stroke="#FFFFFF" stroke-width="0.4037" cx="199.307" cy="280.246" r="4.037"/>
<g>
	<text transform="matrix(1 0 0 1 0 334.3343)" fill="#231815" font-family="'HYTieXianHei-EEJ'" font-size="16.2223">犯规</text>
</g>
<line fill="none" stroke="#847F7F" stroke-width="1.6146" x1="100.008" y1="328.685" x2="326.055" y2="328.685"/>
<line fill="none" stroke="#DCDDDD" stroke-width="15" x1="185.583" y1="328.685" x2="267.929" y2="328.685"/>
<line fill="none" stroke="#DCDDDD" stroke-width="15.6502" x1="1503.506" y1="429.486" x2="1585.851" y2="429.486"/>
<circle stroke="#FFFFFF" stroke-width="0.4037" cx="100.008" cy="328.685" r="4.037"/>
<circle fill="#595757" stroke="#FFFFFF" stroke-width="0.4037" cx="221.912" cy="328.685" r="7.266"/>
<circle stroke="#FFFFFF" stroke-width="0.4037" cx="326.055" cy="328.685" r="4.037"/>
<circle fill="#3261C7" stroke="#FFFFFF" stroke-width="0.4037" cx="223.526" cy="328.685" r="4.037"/>
<rect x="673.689" y="29.394" transform="matrix(0.7071 -0.7071 0.7071 0.7071 172.7246 494.1768)" fill="#E52C2C" stroke="#F7F8F8" width="18.395" height="18.395"/>
<rect x="142.075" y="125.732" transform="matrix(0.7071 -0.7071 0.7071 0.7071 -51.1033 146.4856)" fill="#E52C2C" stroke="#F7F8F8" width="18.395" height="18.395"/>
<rect x="190.11" y="271.048" transform="matrix(0.7071 -0.7071 0.7071 0.7071 -139.7881 223.0135)" fill="#E52C2C" stroke="#F7F8F8" width="18.395" height="18.395"/>
<rect x="214.733" y="319.487" transform="matrix(0.7071 -0.7071 0.7071 0.7071 -166.8275 254.612)" fill="#E52C2C" stroke="#F7F8F8" width="18.395" height="18.395"/>
<rect x="208.678" y="222.61" transform="matrix(0.7071 -0.7071 0.7071 0.7071 -100.0983 221.9559)" fill="#E52C2C" stroke="#F7F8F8" width="18.395" height="18.395"/>
<rect x="141.671" y="174.171" transform="matrix(0.7071 -0.7071 0.7071 0.7071 -85.4728 160.3875)" fill="#E52C2C" stroke="#F7F8F8" width="18.395" height="18.395"/>
<rect x="1035.364" y="77.294" transform="matrix(0.7071 -0.7071 0.7071 0.7071 244.7866 763.9495)" fill="#E52C2C" stroke="#F7F8F8" width="18.395" height="18.395"/>
<rect x="1351.317" y="459.137" transform="matrix(0.7071 -0.7071 0.7071 0.7071 67.3231 1099.2009)" fill="#E52C2C" stroke="#F7F8F8" width="18.395" height="18.395"/>
<circle fill="#595757" stroke="#FFFFFF" stroke-width="2" cx="138.759" cy="280.246" r="7.266"/>
<text transform="matrix(1 0 0 1 1391.3298 435.1781)" font-family="'HYTieXianHei-EEJ'" font-size="13"> 联盟中值</text>
<text transform="matrix(1 0 0 1 1391.3298 475.6244)" font-family="'HYTieXianHei-EEJ'" font-size="13"> 周琦数据</text>
<text transform="matrix(1 0 0 1 1502.8792 475.6244)" font-family="'HYTieXianHei-EEJ'" font-size="13">同位置球员正常范围</text>
<rect x="1194.422" y="397.119" fill="none" width="158.899" height="25.57"/>
</svg>
