<?xml version="1.0" encoding="utf-8"?>
<!-- Generator: Adobe Illustrator 17.0.0, SVG Export Plug-In . SVG Version: 6.00 Build 0)  -->
<!DOCTYPE svg PUBLIC "-//W3C//DTD SVG 1.1//EN" "http://www.w3.org/Graphics/SVG/1.1/DTD/svg11.dtd">
<svg version="1.1" id="图层_1" xmlns="http://www.w3.org/2000/svg" xmlns:xlink="http://www.w3.org/1999/xlink" x="0px" y="0px"
	 width="241.807px" height="203.921px" viewBox="0 0 241.807 203.921" enable-background="new 0 0 241.807 203.921"
	 xml:space="preserve">
<rect x="105.121" y="94.33" transform="matrix(-0.7071 0.7071 -0.7071 -0.7071 344.9543 94.3297)" opacity="0.8" fill="#DCDDDD" stroke="#FFFFFF" stroke-width="0.2943" width="95.639" height="48.555"/>
<g>
	
		<text transform="matrix(0.7071 -0.7071 0.7071 0.7071 151.1806 122.0083)" fill="#727171" font-family="'FZLTXHK'" font-size="4.1706">亚当斯</text>
</g>
<rect x="9.016" y="91.945" transform="matrix(-0.7071 0.7071 -0.7071 -0.7071 128.1964 148.7396)" opacity="0.8" fill="#DCDDDD" stroke="#FFFFFF" stroke-width="0.2943" width="48.555" height="17.951"/>
<g>
	
		<text transform="matrix(0.7071 -0.7071 0.7071 0.7071 31.5318 104.3209)" fill="#727171" font-family="'FZLTXHK'" font-size="4.1706">俞长栋</text>
</g>
<g transform="translate(5,5)" opacity="0.8">
	
		<rect x="-0.584" y="93.791" transform="matrix(-0.7071 0.7071 -0.7071 -0.7071 72.9758 171.1846)" fill="#DCDDDD" stroke="#FFFFFF" stroke-width="0.2943" width="3.237" height="13.831"/>
	<title>卡米然斯地克江:</title>
</g>
<rect x="38.563" y="117.961" transform="matrix(-0.7071 0.7071 -0.7071 -0.7071 199.531 178.2874)" opacity="0.8" fill="#DCDDDD" stroke="#FFFFFF" stroke-width="0.2943" width="48.555" height="25.013"/>
<g>
	
		<text transform="matrix(0.7071 -0.7071 0.7071 0.7071 60.2224 134.7276)" fill="#727171" font-family="'FZLTXHK'" font-size="4.1706">可兰白克</text>
</g>
<rect x="84.223" y="21.178" transform="matrix(-0.7071 0.7071 -0.7071 -0.7071 219.1472 -1.9224)" opacity="0.9" fill="#F22525" width="51.498" height="46.495"/>
<text transform="matrix(0.7071 -0.7071 0.7071 0.7071 104.8973 52.3923)" fill="#FFFFFF" font-family="'FZLTXHK'" font-size="7.09">周琦</text>
<g transform="translate(16,5)" opacity="0.8">
	
		<rect x="-9.295" y="91.502" transform="matrix(-0.7071 0.7071 -0.7071 -0.7071 56.4865 173.4368)" fill="#DCDDDD" stroke="#FFFFFF" stroke-width="0.2943" width="3.237" height="13.831"/>
	<title>唐才育:</title>
</g>
<rect x="10.046" y="86.098" transform="matrix(-0.7071 0.7071 -0.7071 -0.7071 97.7399 145.5408)" opacity="0.8" fill="#DCDDDD" stroke="#FFFFFF" stroke-width="0.2943" width="17.362" height="13.831"/>
<g>
	
		<text transform="matrix(0.7071 -0.7071 0.7071 0.7071 15.2973 97.6656)" fill="#727171" font-family="'FZLTXHK'" font-size="4.1706">孙鸣阳</text>
</g>
<rect x="75.47" y="71.299" transform="matrix(-0.7071 0.7071 -0.7071 -0.7071 273.3685 64.6779)" opacity="0.8" fill="#DCDDDD" stroke="#FFFFFF" stroke-width="0.2943" width="95.639" height="35.313"/>
<g>
	
		<text transform="matrix(0.7071 -0.7071 0.7071 0.7071 121.5288 92.3571)" fill="#727171" font-family="'FZLTXHK'" font-size="4.1706">布莱切</text>
</g>
<rect x="22.541" y="104.293" transform="matrix(-0.7071 0.7071 -0.7071 -0.7071 160.8496 162.265)" opacity="0.8" fill="#DCDDDD" stroke="#FFFFFF" stroke-width="0.2943" width="48.555" height="20.305"/>
<g>
	
		<text transform="matrix(0.7071 -0.7071 0.7071 0.7071 45.058 117.8471)" fill="#727171" font-family="'FZLTXHK'" font-size="4.1706">张桐林</text>
</g>
<rect x="54.088" y="54.992" transform="matrix(-0.7071 0.7071 -0.7071 -0.7071 185.3338 79.7105)" opacity="0.8" fill="#DCDDDD" stroke="#FFFFFF" stroke-width="0.2943" width="44.141" height="46.495"/>
<g>
	
		<text transform="matrix(0.7071 -0.7071 0.7071 0.7071 74.3979 81.6405)" fill="#727171" font-family="'FZLTXHK'" font-size="4.1706">本特尔</text>
</g>
<rect x="80.388" y="151.841" transform="matrix(-0.7071 0.7071 -0.7071 -0.7071 300.5046 220.112)" opacity="0.8" fill="#DCDDDD" stroke="#FFFFFF" stroke-width="0.2943" width="48.555" height="40.904"/>
<g>
	
		<text transform="matrix(0.7071 -0.7071 0.7071 0.7071 103.7631 174.8354)" fill="#727171" font-family="'FZLTXHK'" font-size="4.1706">李根</text>
</g>
<rect x="71.686" y="12.54" transform="matrix(-0.7071 0.7071 -0.7071 -0.7071 171.2971 -32.0421)" opacity="0.8" fill="#DCDDDD" stroke="#FFFFFF" stroke-width="0.2943" width="41.198" height="13.831"/>
<g>
	
		<text transform="matrix(0.7071 -0.7071 0.7071 0.7071 90.5246 22.8568)" fill="#727171" font-family="'FZLTXHK'" font-size="4.1706">王子瑞</text>
</g>
<g transform="translate(27,5)" opacity="0.8">
	
		<rect x="-18.179" y="88.797" transform="matrix(-0.7071 0.7071 -0.7071 -0.7071 40.4134 174.6844)" fill="#DCDDDD" stroke="#FFFFFF" stroke-width="0.2943" width="4.414" height="13.831"/>
	<title>王政博:</title>
</g>
<rect x="42.554" y="41.672" transform="matrix(-0.7071 0.7071 -0.7071 -0.7071 142.1656 38.2878)" opacity="0.8" fill="#DCDDDD" stroke="#FFFFFF" stroke-width="0.2943" width="41.198" height="13.831"/>
<g>
	
		<text transform="matrix(0.7071 -0.7071 0.7071 0.7071 61.3928 51.9886)" fill="#727171" font-family="'FZLTXHK'" font-size="4.1706">罗旭东</text>
</g>
<rect x="56.667" y="135.476" transform="matrix(-0.7071 0.7071 -0.7071 -0.7071 243.236 196.3905)" opacity="0.8" fill="#DCDDDD" stroke="#FFFFFF" stroke-width="0.2943" width="48.555" height="26.19"/>
<g>
	
		<text transform="matrix(0.7071 -0.7071 0.7071 0.7071 78.3254 152.8307)" fill="#727171" font-family="'FZLTXHK'" font-size="4.1706">西热力江</text>
</g>
<rect x="19.953" y="68.098" transform="matrix(-0.7071 0.7071 -0.7071 -0.7071 115.739 102.087)" opacity="0.8" fill="#DCDDDD" stroke="#FFFFFF" stroke-width="0.2943" width="33.547" height="13.831"/>
<g>
	
		<text transform="matrix(0.7071 -0.7071 0.7071 0.7071 29.4706 84.3279)" fill="#727171" font-family="'FZLTXHK'" font-size="4.1706">阿布都沙拉木</text>
</g>
<text transform="matrix(1 0 0 1 187.2292 200.9327)" fill="#3E3A39" font-family="'HYTieXianHei-EEJ'" font-size="10.0094">场均得分</text>
<g>
	<g>
		<path fill="none" stroke="#898989" stroke-width="0.4172" d="M195.815,186.043c-0.821-17.523-17.946-31.555-39.191-32.016"/>
		<g>
			<path fill="#898989" d="M195.756,185.892c-0.411-0.364-1.188-0.502-1.72-0.484c0.746,0.488,1.41,1.14,1.81,1.953
				c0.283-0.855,0.903-1.555,1.559-2.158C196.838,185.283,196.156,185.464,195.756,185.892z"/>
		</g>
		<g>
			
				<rect x="155.544" y="152.933" transform="matrix(0.0417 -0.9991 0.9991 0.0417 -3.7853 304.1785)" fill="#898989" width="2.258" height="2.258"/>
		</g>
	</g>
</g>
<text transform="matrix(1 0 0 1 164.5812 25.2188)"><tspan x="0" y="0" font-family="'FZLTXHK'" font-size="8.3412">16-17赛季</tspan><tspan x="0" y="10.01" font-family="'FZLTXHK'" font-size="8.3412">周琦场均贡献15.9分</tspan><tspan x="0" y="20.019" font-family="'FZLTXHK'" font-size="8.3412">位列新疆队第三</tspan></text>
</svg>
