<?xml version="1.0" encoding="utf-8"?>
<!-- Generator: Adobe Illustrator 17.0.0, SVG Export Plug-In . SVG Version: 6.00 Build 0)  -->
<!DOCTYPE svg PUBLIC "-//W3C//DTD SVG 1.1//EN" "http://www.w3.org/Graphics/SVG/1.1/DTD/svg11.dtd">
<svg version="1.1" id="图层_1" xmlns="http://www.w3.org/2000/svg" xmlns:xlink="http://www.w3.org/1999/xlink" x="0px" y="0px"
	 width="251.259px" height="203.921px" viewBox="0 0 251.259 203.921" enable-background="new 0 0 251.259 203.921"
	 xml:space="preserve">
<rect x="89.909" y="26.768" transform="matrix(-0.7071 0.7071 -0.7071 -0.7071 230.8664 1.7547)" opacity="0.8" fill="#DCDDDD" stroke="#FFFFFF" stroke-width="0.2943" width="50.321" height="43.847"/>
<text transform="matrix(0.7071 -0.7071 0.7071 0.7071 113.3094 52.092)" fill="#727171" font-family="'FZLTXHK'" font-size="4.1706">亚当斯</text>
<rect x="54.895" y="131.787" transform="matrix(-0.7071 0.7071 -0.7071 -0.7071 236.4616 197.1157)" opacity="0.8" fill="#DCDDDD" stroke="#FFFFFF" stroke-width="0.2943" width="45.024" height="31.487"/>
<text transform="matrix(0.7071 -0.7071 0.7071 0.7071 75.6453 150.9305)" fill="#727171" font-family="'FZLTXHK'" font-size="4.1706">俞长栋</text>
<rect x="7.699" y="98.771" fill="#BF6969" stroke="#FFFFFF" stroke-width="0.2943" width="0" height="21.776"/>
<rect x="70.978" y="12.833" transform="matrix(-0.7071 0.7071 -0.7071 -0.7071 176.6224 -25.7165)" opacity="0.8" fill="#DCDDDD" stroke="#FFFFFF" stroke-width="0.2943" width="45.318" height="21.776"/>
<text transform="matrix(0.7071 -0.7071 0.7071 0.7071 91.0193 27.981)" fill="#727171" font-family="'FZLTXHK'" font-size="4.1706">可兰白克</text>
<rect x="77.345" y="75.819" transform="matrix(-0.7071 0.7071 -0.7071 -0.7071 283.9254 72.5819)" opacity="0.9" fill="#F22525" stroke="#FFFFFF" stroke-width="0.2943" width="99.17" height="38.55"/>
<text transform="matrix(0.7071 -0.7071 0.7071 0.7071 121.4382 102.6421)" fill="#FFFFFF" font-family="'FZLTXHK'" font-size="7.09">周琦</text>
<rect x="7.699" y="98.771" fill="#BF6969" stroke="#FFFFFF" stroke-width="0.2943" width="0" height="21.776"/>
<rect x="7.352" y="89.408" transform="matrix(-0.7071 0.7071 -0.7071 -0.7071 100.0479 159.1506)" opacity="0.8" fill="#DCDDDD" stroke="#FFFFFF" stroke-width="0.2943" width="19.422" height="21.776"/>
<text transform="matrix(0.7071 -0.7071 0.7071 0.7071 14.0505 104.9485)" fill="#727171" font-family="'FZLTXHK'" font-size="4.1706">孙鸣阳</text>
<rect x="105.124" y="102.862" transform="matrix(-0.7071 0.7071 -0.7071 -0.7071 350.9899 100.3609)" opacity="0.8" fill="#DCDDDD" stroke="#FFFFFF" stroke-width="0.2943" width="99.17" height="40.021"/>
<text transform="matrix(0.7071 -0.7071 0.7071 0.7071 152.9499 126.2737)" fill="#727171" font-family="'FZLTXHK'" font-size="4.1706">布莱切</text>
<rect x="55.583" y="61.83" transform="matrix(-0.7071 0.7071 -0.7071 -0.7071 195.8044 86.4018)" opacity="0.8" fill="#DCDDDD" stroke="#FFFFFF" stroke-width="0.2943" width="48.849" height="43.847"/>
<text transform="matrix(0.7071 -0.7071 0.7071 0.7071 78.2474 87.154)" fill="#727171" font-family="'FZLTXHK'" font-size="4.1706">张桐林</text>
<rect x="80.697" y="152.587" transform="matrix(-0.7071 0.7071 -0.7071 -0.7071 298.7538 222.918)" opacity="0.8" fill="#DCDDDD" stroke="#FFFFFF" stroke-width="0.2943" width="45.024" height="41.493"/>
<text transform="matrix(0.7071 -0.7071 0.7071 0.7071 101.4485 176.7337)" fill="#727171" font-family="'FZLTXHK'" font-size="4.1706">本特尔</text>
<rect x="16.92" y="98.079" transform="matrix(-0.7071 0.7071 -0.7071 -0.7071 144.7816 159.1406)" opacity="0.8" fill="#DCDDDD" stroke="#FFFFFF" stroke-width="0.2943" width="45.024" height="22.953"/>
<text transform="matrix(0.7071 -0.7071 0.7071 0.7071 38.5286 112.0967)" fill="#727171" font-family="'FZLTXHK'" font-size="4.1706">李根</text>
<rect x="20.827" y="75.05" transform="matrix(-0.7071 0.7071 -0.7071 -0.7071 114.4056 124.488)" opacity="0.8" fill="#DCDDDD" stroke="#FFFFFF" stroke-width="0.2943" width="21.188" height="21.776"/>
<text transform="matrix(0.7071 -0.7071 0.7071 0.7071 28.4083 90.5906)" fill="#727171" font-family="'FZLTXHK'" font-size="4.1706">王子瑞</text>
<rect x="7.182" y="97.523" transform="matrix(-0.7071 0.7071 -0.7071 -0.7071 91.9327 178.7425)" opacity="0.8" fill="#DCDDDD" stroke="#FFFFFF" stroke-width="0.2943" width="3.531" height="21.776"/>
<rect x="53.502" y="38.844" transform="matrix(-0.7071 0.7071 -0.7071 -0.7071 150.612 37.078)" opacity="0.8" fill="#DCDDDD" stroke="#FFFFFF" stroke-width="0.2943" width="28.25" height="21.776"/>
<text transform="matrix(0.7071 -0.7071 0.7071 0.7071 63.7809 55.2194)" fill="#727171" font-family="'FZLTXHK'" font-size="4.1706">罗旭东</text>
<rect x="34.399" y="113.792" transform="matrix(-0.7071 0.7071 -0.7071 -0.7071 186.9795 176.6196)" opacity="0.8" fill="#DCDDDD" stroke="#FFFFFF" stroke-width="0.2943" width="45.024" height="26.485"/>
<text transform="matrix(0.7071 -0.7071 0.7071 0.7071 54.2915 131.2929)" fill="#727171" font-family="'FZLTXHK'" font-size="4.1706">西热力江</text>
<rect x="35.033" y="58.195" transform="matrix(-0.7071 0.7071 -0.7071 -0.7071 131.2603 83.7971)" opacity="0.8" fill="#DCDDDD" stroke="#FFFFFF" stroke-width="0.2943" width="26.485" height="21.776"/>
<text transform="matrix(0.7071 -0.7071 0.7071 0.7071 40.186 78.3987)" fill="#727171" font-family="'FZLTXHK'" font-size="4.1706">阿布都沙拉木</text>
<text transform="matrix(1 0 0 1 195.3056 201.5049)" fill="#3E3A39" font-family="'HYTieXianHei-EEJ'" font-size="10.0094">场均篮板</text>
<g>
	<g>
		<path fill="none" stroke="#898989" stroke-width="0.4172" d="M203.89,186.615c-0.821-17.523-17.946-31.555-39.191-32.016"/>
		<g>
			<path fill="#898989" d="M203.832,186.464c-0.411-0.364-1.188-0.502-1.72-0.484c0.746,0.488,1.41,1.14,1.81,1.953
				c0.283-0.855,0.903-1.555,1.559-2.158C204.914,185.855,204.232,186.036,203.832,186.464z"/>
		</g>
		<g>
			
				<rect x="163.619" y="153.506" transform="matrix(0.0417 -0.9991 0.9991 0.0417 3.3821 312.7955)" fill="#898989" width="2.258" height="2.258"/>
		</g>
	</g>
</g>
<text transform="matrix(1 0 0 1 165.6288 25.7911)"><tspan x="0" y="0" font-family="'FZLTXHK'" font-size="8.3412">16-17赛季</tspan><tspan x="0" y="10.01" font-family="'FZLTXHK'" font-size="8.3412">周琦场均贡献10个篮板</tspan><tspan x="0" y="20.019" font-family="'FZLTXHK'" font-size="8.3412">位列新疆队第二</tspan></text>
</svg>
