<?xml version="1.0" encoding="utf-8"?>
<!-- Generator: Adobe Illustrator 17.0.0, SVG Export Plug-In . SVG Version: 6.00 Build 0)  -->
<!DOCTYPE svg PUBLIC "-//W3C//DTD SVG 1.1//EN" "http://www.w3.org/Graphics/SVG/1.1/DTD/svg11.dtd">
<svg version="1.1" id="图层_1" xmlns="http://www.w3.org/2000/svg" xmlns:xlink="http://www.w3.org/1999/xlink" x="0px" y="0px"
	 width="242.814px" height="203.921px" viewBox="0 0 242.814 203.921" enable-background="new 0 0 242.814 203.921"
	 xml:space="preserve">
<rect x="61.843" y="28.563" transform="matrix(-0.7071 0.7071 -0.7071 -0.7071 155.2747 6.6393)" opacity="0.8" fill="#DCDDDD" stroke="#FFFFFF" stroke-width="0.2943" width="28.839" height="13.831"/>
<g>
	
		<text transform="matrix(0.7071 -0.7071 0.7071 0.7071 74.5033 38.8791)" fill="#727171" font-family="'FZLTXHK'" font-size="4.1706">亚当斯</text>
</g>
<rect x="82.407" y="156.716" transform="matrix(-0.7071 0.7071 -0.7071 -0.7071 290.6059 236.9052)" opacity="0.8" fill="#DCDDDD" stroke="#FFFFFF" stroke-width="0.2943" width="27.662" height="43.847"/>
<g>
	
		<text transform="matrix(0.7071 -0.7071 0.7071 0.7071 91.9757 184.544)" fill="#727171" font-family="'FZLTXHK'" font-size="4.1706">俞长栋</text>
</g>
<rect x="4.89" y="99.935" fill="#BF6969" stroke="#FFFFFF" stroke-width="0.2943" width="0" height="13.831"/>
<rect x="36.317" y="118.129" transform="matrix(-0.7071 0.7071 -0.7071 -0.7071 179.334 190.8149)" opacity="0.8" fill="#DCDDDD" stroke="#FFFFFF" stroke-width="0.2943" width="27.662" height="28.839"/>
<g>
	
		<text transform="matrix(0.7071 -0.7071 0.7071 0.7071 45.0265 139.3111)" fill="#727171" font-family="'FZLTXHK'" font-size="4.1706">可兰白克</text>
</g>
<rect x="97.548" y="15.659" transform="matrix(-0.7071 0.7071 -0.7071 -0.7071 283.9702 44.056)" opacity="0.9" fill="#F22525" stroke="#FFFFFF" stroke-width="0.2943" width="70.626" height="130.363"/>
<text transform="matrix(0.7071 -0.7071 0.7071 0.7071 129.458 85.8874)" fill="#FFFFFF" font-family="'FZLTXHK'" font-size="7.09">周琦</text>
<rect x="4.89" y="99.935" fill="#BF6969" stroke="#FFFFFF" stroke-width="0.2943" width="0" height="13.831"/>
<rect x="21.059" y="69.347" transform="matrix(-0.7071 0.7071 -0.7071 -0.7071 114.4905 105.1011)" opacity="0.8" fill="#DCDDDD" stroke="#FFFFFF" stroke-width="0.2943" width="28.839" height="13.831"/>
<g>
	
		<text transform="matrix(0.7071 -0.7071 0.7071 0.7071 33.7192 79.6632)" fill="#727171" font-family="'FZLTXHK'" font-size="4.1706">孙鸣阳</text>
</g>
<rect x="68.707" y="56.859" transform="matrix(-0.7071 0.7071 -0.7071 -0.7071 242.7699 143.5225)" opacity="0.8" fill="#DCDDDD" stroke="#FFFFFF" stroke-width="0.2943" width="45.907" height="130.363"/>
<g>
	
		<text transform="matrix(0.7071 -0.7071 0.7071 0.7071 89.9026 125.4427)" fill="#727171" font-family="'FZLTXHK'" font-size="4.1706">布莱切</text>
</g>
<rect x="82.235" y="8.171" transform="matrix(-0.7071 0.7071 -0.7071 -0.7071 175.6669 -42.5916)" opacity="0.8" fill="#DCDDDD" stroke="#FFFFFF" stroke-width="0.2943" width="28.839" height="13.831"/>
<g>
	
		<text transform="matrix(0.7071 -0.7071 0.7071 0.7071 94.8958 18.4867)" fill="#727171" font-family="'FZLTXHK'" font-size="4.1706">张桐林</text>
</g>
<rect x="15.925" y="97.737" transform="matrix(-0.7071 0.7071 -0.7071 -0.7071 130.1031 170.4227)" opacity="0.8" fill="#DCDDDD" stroke="#FFFFFF" stroke-width="0.2943" width="27.662" height="28.839"/>
<g>
	
		<text transform="matrix(0.7071 -0.7071 0.7071 0.7071 25.9113 117.2276)" fill="#727171" font-family="'FZLTXHK'" font-size="4.1706">本特尔</text>
</g>
<rect x="41.451" y="48.955" transform="matrix(-0.7071 0.7071 -0.7071 -0.7071 134.8826 55.8702)" opacity="0.8" fill="#DCDDDD" stroke="#FFFFFF" stroke-width="0.2943" width="28.839" height="13.831"/>
<g>
	
		<text transform="matrix(0.7071 -0.7071 0.7071 0.7071 54.9684 58.4113)" fill="#727171" font-family="'FZLTXHK'" font-size="4.1706">李根</text>
</g>
<rect x="4.89" y="99.935" fill="#BF6969" stroke="#FFFFFF" stroke-width="0.2943" width="0" height="13.831"/>
<rect x="4.89" y="99.935" fill="#BF6969" stroke="#FFFFFF" stroke-width="0.2943" width="0" height="13.831"/>
<rect x="4.89" y="99.935" fill="#BF6969" stroke="#FFFFFF" stroke-width="0.2943" width="0" height="13.831"/>
<rect x="56.709" y="138.521" transform="matrix(-0.7071 0.7071 -0.7071 -0.7071 228.5649 211.207)" opacity="0.8" fill="#DCDDDD" stroke="#FFFFFF" stroke-width="0.2943" width="27.662" height="28.839"/>
<g>
	
		<text transform="matrix(0.7071 -0.7071 0.7071 0.7071 65.4195 159.7038)" fill="#727171" font-family="'FZLTXHK'" font-size="4.1706">西热力江</text>
</g>
<rect x="0.667" y="89.739" transform="matrix(-0.7071 0.7071 -0.7071 -0.7071 94.0984 154.332)" opacity="0.8" fill="#DCDDDD" stroke="#FFFFFF" stroke-width="0.2943" width="28.839" height="13.831"/>
<g>
	
		<text transform="matrix(0.7071 -0.7071 0.7071 0.7071 6.9964 106.3861)" fill="#727171" font-family="'FZLTXHK'" font-size="4.1706">阿布都沙拉木</text>
</g>
<text transform="matrix(1 0 0 1 191.8138 201.5049)" fill="#3E3A39" font-family="'HYTieXianHei-EEJ'" font-size="10.0094">场均封盖</text>
<g>
	<g>
		<path fill="none" stroke="#898989" stroke-width="0.4172" d="M200.4,186.615c-0.821-17.523-17.945-31.555-39.191-32.016"/>
		<g>
			<path fill="#898989" d="M200.341,186.464c-0.411-0.364-1.188-0.502-1.72-0.484c0.746,0.488,1.41,1.14,1.81,1.953
				c0.283-0.855,0.903-1.555,1.559-2.158C201.423,185.855,200.741,186.036,200.341,186.464z"/>
		</g>
		<g>
			
				<rect x="160.129" y="153.506" transform="matrix(0.0417 -0.9991 0.9991 0.0417 0.0369 309.3079)" fill="#898989" width="2.258" height="2.258"/>
		</g>
	</g>
</g>
<text transform="matrix(1 0 0 1 153.9799 25.7911)"><tspan x="0" y="0" font-family="'FZLTXHK'" font-size="8.3412">16-17赛季</tspan><tspan x="0" y="10.01" font-family="'FZLTXHK'" font-size="8.3412">周琦场均贡献2.3次封盖</tspan><tspan x="0" y="20.019" font-family="'FZLTXHK'" font-size="8.3412">位列新疆队第一</tspan></text>
</svg>
