<?xml version="1.0" encoding="utf-8"?>
<!-- Generator: Adobe Illustrator 17.0.0, SVG Export Plug-In . SVG Version: 6.00 Build 0)  -->
<!DOCTYPE svg PUBLIC "-//W3C//DTD SVG 1.1//EN" "http://www.w3.org/Graphics/SVG/1.1/DTD/svg11.dtd">
<svg version="1.1" id="图层_1" xmlns="http://www.w3.org/2000/svg" xmlns:xlink="http://www.w3.org/1999/xlink" x="0px" y="0px"
	 width="696.239px" height="203.401px" viewBox="0 0 696.239 203.401" enable-background="new 0 0 696.239 203.401"
	 xml:space="preserve">
<line fill="none" stroke="#DAD7D7" stroke-width="0.1684" x1="35.57" y1="18.464" x2="35.57" y2="143.081"/>
<text transform="matrix(1 0 0 1 33.5478 154.8944)" fill="#716D6D" font-family="'ArialMT'" font-size="6.2019">0</text>
<line fill="none" stroke="#DAD7D7" stroke-width="0.1684" x1="85.754" y1="18.464" x2="85.754" y2="143.081"/>
<text transform="matrix(1 0 0 1 83.7314 154.8944)" fill="#716D6D" font-family="'ArialMT'" font-size="6.2019">2</text>
<line fill="none" stroke="#DAD7D7" stroke-width="0.1684" x1="136.274" y1="18.464" x2="136.274" y2="143.081"/>
<text transform="matrix(1 0 0 1 134.2528 154.8944)" fill="#716D6D" font-family="'ArialMT'" font-size="6.2019">4</text>
<line fill="none" stroke="#DAD7D7" stroke-width="0.1684" x1="186.458" y1="18.464" x2="186.458" y2="143.081"/>
<text transform="matrix(1 0 0 1 184.4374 154.8944)" fill="#716D6D" font-family="'ArialMT'" font-size="6.2019">6</text>
<line fill="none" stroke="#DAD7D7" stroke-width="0.1684" x1="236.978" y1="18.464" x2="236.978" y2="143.081"/>
<text transform="matrix(1 0 0 1 234.9565 154.8944)" fill="#716D6D" font-family="'ArialMT'" font-size="6.2019">8</text>
<line fill="none" stroke="#DAD7D7" stroke-width="0.1684" x1="287.499" y1="18.464" x2="287.499" y2="143.081"/>
<text transform="matrix(1 0 0 1 285.4774 154.8944)" fill="#716D6D" font-family="'ArialMT'" font-size="6.2019">10</text>
<line fill="none" stroke="#DAD7D7" stroke-width="0.1684" x1="337.683" y1="18.464" x2="337.683" y2="143.081"/>
<text transform="matrix(1 0 0 1 335.6606 154.8944)" fill="#716D6D" font-family="'ArialMT'" font-size="6.2019">12</text>
<line fill="none" stroke="#DAD7D7" stroke-width="0.1684" x1="388.203" y1="18.464" x2="388.203" y2="143.081"/>
<text transform="matrix(1 0 0 1 386.1825 154.8944)" fill="#716D6D" font-family="'ArialMT'" font-size="6.2019">14</text>
<line fill="none" stroke="#DAD7D7" stroke-width="0.1684" x1="438.387" y1="18.464" x2="438.387" y2="143.081"/>
<text transform="matrix(1 0 0 1 436.3651 154.8944)" fill="#716D6D" font-family="'ArialMT'" font-size="6.2019">16</text>
<line fill="none" stroke="#DAD7D7" stroke-width="0.1832" x1="488.908" y1="19.583" x2="488.908" y2="143.081"/>
<text transform="matrix(1 0 0 1 486.8866 154.8944)" fill="#716D6D" font-family="'ArialMT'" font-size="6.2019">18</text>
<line fill="none" stroke="#DAD7D7" stroke-width="0.184" x1="539.428" y1="18.464" x2="539.428" y2="143.081"/>
<text transform="matrix(1 0 0 1 537.4072 154.8944)" fill="#716D6D" font-family="'ArialMT'" font-size="6.2019">20</text>
<line fill="none" stroke="#DAD7D7" stroke-width="0.184" x1="589.612" y1="18.464" x2="589.612" y2="143.081"/>
<text transform="matrix(1 0 0 1 587.5908 154.8944)" fill="#716D6D" font-family="'ArialMT'" font-size="6.2019">22</text>
<line fill="none" stroke="#DAD7D7" stroke-width="0.184" x1="640.133" y1="18.464" x2="640.133" y2="143.081"/>
<text transform="matrix(1 0 0 1 638.1103 154.8944)" fill="#716D6D" font-family="'ArialMT'" font-size="6.2019">24</text>
<line fill="none" stroke="#DAD7D7" stroke-width="0.184" x1="690.316" y1="18.464" x2="690.316" y2="143.081"/>
<text transform="matrix(1 0 0 1 688.2949 154.8944)" fill="#716D6D" font-family="'ArialMT'" font-size="6.2019">26</text>
<text transform="matrix(1 0 0 1 42.643 19.5848)" fill="#716D6D" font-family="'ArialMT'" font-size="6.7657">Min</text>
<text transform="matrix(1 0 0 1 148.7353 11.5028)" fill="#716D6D" font-family="'ArialMT'" font-size="4.0403">Avg</text>
<text transform="matrix(1 0 0 1 451.5233 20.1492)" fill="#716D6D" font-family="'ArialMT'" font-size="6.7657">Max</text>
<text transform="matrix(1 0 0 1 284.1303 7.0906)" fill="#716D6D" font-family="'AdobeSongStd-Light-GBpc-EUC-H'" font-size="4.0403">周琦</text>
<g>
	<text transform="matrix(1 0 0 1 2.6034 20.8231)" fill="#231815" font-family="'HYTieXianHei-EEJ'" font-size="6.7657">篮板</text>
</g>
<line fill="none" stroke="#847F7F" stroke-width="0.6736" x1="56.452" y1="18.464" x2="448.491" y2="18.464"/>
<line fill="none" stroke="#DCDDDD" stroke-width="6.2579" x1="86.764" y1="18.464" x2="271.332" y2="18.464"/>
<circle stroke="#FFFFFF" stroke-width="0.1684" cx="56.452" cy="18.464" r="1.684"/>
<circle fill="#595757" stroke="#FFFFFF" stroke-width="0.8344" cx="152.104" cy="18.464" r="3.031"/>
<circle stroke="#FFFFFF" stroke-width="0.1684" cx="448.491" cy="18.464" r="1.684"/>
<circle fill="#3261C7" stroke="#FFFFFF" stroke-width="0.1684" cx="287.499" cy="18.464" r="1.684"/>
<g>
	<text transform="matrix(1 0 0 1 2.6034 41.0311)" fill="#231815" font-family="'HYTieXianHei-EEJ'" font-size="6.7657">得分</text>
</g>
<line fill="none" stroke="#847F7F" stroke-width="0.6736" x1="68.913" y1="38.672" x2="665.393" y2="38.672"/>
<line fill="none" stroke="#DCDDDD" stroke-width="6.2579" x1="105.288" y1="38.672" x2="451.522" y2="38.672"/>
<circle stroke="#FFFFFF" stroke-width="0.1684" cx="68.913" cy="38.672" r="1.684"/>
<circle fill="#595757" stroke="#FFFFFF" stroke-width="0.8344" cx="223.843" cy="38.672" r="3.031"/>
<circle fill="#595757" stroke="#FFFFFF" stroke-width="1.326" cx="570.2" cy="182.246" r="4.817"/>
<circle stroke="#FFFFFF" stroke-width="0.1684" cx="665.393" cy="38.672" r="1.684"/>
<circle fill="#3261C7" stroke="#FFFFFF" stroke-width="0.1684" cx="438.387" cy="38.672" r="1.684"/>
<g>
	<text transform="matrix(1 0 0 1 2.6034 61.2391)" fill="#231815" font-family="'HYTieXianHei-EEJ'" font-size="6.7657">助攻</text>
</g>
<line fill="none" stroke="#847F7F" stroke-width="0.6736" x1="35.57" y1="58.88" x2="156.482" y2="58.88"/>
<line fill="none" stroke="#DCDDDD" stroke-width="6.2579" x1="41.632" y1="58.88" x2="64.872" y2="58.88"/>
<circle stroke="#FFFFFF" stroke-width="0.1684" cx="35.57" cy="58.88" r="1.684"/>
<circle fill="#595757" stroke="#FFFFFF" stroke-width="0.8344" cx="51.4" cy="58.88" r="3.031"/>
<circle stroke="#FFFFFF" stroke-width="0.1684" cx="156.482" cy="58.88" r="1.684"/>
<circle fill="#3261C7" stroke="#FFFFFF" stroke-width="0.1684" cx="65.545" cy="58.88" r="1.684"/>
<g>
	<text transform="matrix(1 0 0 1 2.6034 81.4461)" fill="#231815" font-family="'HYTieXianHei-EEJ'" font-size="6.7657">抢断</text>
</g>
<line fill="none" stroke="#847F7F" stroke-width="0.6736" x1="35.57" y1="79.089" x2="93.5" y2="79.089"/>
<line fill="none" stroke="#DCDDDD" stroke-width="6.2579" x1="41.632" y1="79.089" x2="57.799" y2="79.089"/>
<circle stroke="#FFFFFF" stroke-width="0.1684" cx="35.57" cy="79.089" r="1.684"/>
<circle fill="#595757" stroke="#FFFFFF" stroke-width="0.8344" cx="47.358" cy="79.089" r="3.031"/>
<circle stroke="#FFFFFF" stroke-width="0.1684" cx="93.5" cy="79.089" r="1.684"/>
<circle fill="#3261C7" stroke="#FFFFFF" stroke-width="0.1684" cx="65.545" cy="79.089" r="1.684"/>
<g>
	<text transform="matrix(1 0 0 1 2.6034 101.6551)" fill="#231815" font-family="'HYTieXianHei-EEJ'" font-size="6.7657">盖帽</text>
</g>
<line fill="none" stroke="#847F7F" stroke-width="0.6736" x1="35.57" y1="99.297" x2="95.858" y2="99.297"/>
<line fill="none" stroke="#DCDDDD" stroke-width="6.2579" x1="38.601" y1="99.297" x2="55.778" y2="99.297"/>
<circle stroke="#FFFFFF" stroke-width="0.1684" cx="35.57" cy="99.297" r="1.684"/>
<circle fill="#595757" stroke="#FFFFFF" stroke-width="0.8344" cx="45.337" cy="99.297" r="3.031"/>
<circle stroke="#FFFFFF" stroke-width="0.1684" cx="95.858" cy="99.297" r="1.684"/>
<circle fill="#3261C7" stroke="#FFFFFF" stroke-width="0.1684" cx="93.5" cy="99.297" r="1.684"/>
<g>
	<text transform="matrix(1 0 0 1 2.6034 121.8631)" fill="#231815" font-family="'HYTieXianHei-EEJ'" font-size="6.7657">失误</text>
</g>
<line fill="none" stroke="#847F7F" stroke-width="0.6736" x1="35.57" y1="119.505" x2="123.476" y2="119.505"/>
<line fill="none" stroke="#DCDDDD" stroke-width="6.2579" x1="50.389" y1="119.505" x2="88.448" y2="119.505"/>
<circle stroke="#FFFFFF" stroke-width="0.1684" cx="35.57" cy="119.505" r="1.684"/>
<circle stroke="#FFFFFF" stroke-width="0.1684" cx="123.476" cy="119.505" r="1.684"/>
<circle fill="#3261C7" stroke="#FFFFFF" stroke-width="0.1684" cx="85.754" cy="119.505" r="1.684"/>
<g>
	<text transform="matrix(1 0 0 1 2.6034 142.0711)" fill="#231815" font-family="'HYTieXianHei-EEJ'" font-size="6.7657">犯规</text>
</g>
<line fill="none" stroke="#847F7F" stroke-width="0.6736" x1="44.327" y1="139.713" x2="138.632" y2="139.713"/>
<line fill="none" stroke="#DCDDDD" stroke-width="6.2579" x1="80.028" y1="139.713" x2="114.382" y2="139.713"/>
<line fill="none" stroke="#DCDDDD" stroke-width="6.5291" x1="629.855" y1="181.767" x2="664.209" y2="181.767"/>
<circle stroke="#FFFFFF" stroke-width="0.1684" cx="44.327" cy="139.713" r="1.684"/>
<circle fill="#595757" stroke="#FFFFFF" stroke-width="0.1684" cx="95.184" cy="139.713" r="3.031"/>
<circle stroke="#FFFFFF" stroke-width="0.1684" cx="138.632" cy="139.713" r="1.684"/>
<circle fill="#3261C7" stroke="#FFFFFF" stroke-width="0.1684" cx="95.858" cy="139.713" r="1.684"/>
<rect x="283.662" y="14.851" transform="matrix(0.7071 -0.7071 0.7071 0.7071 70.9917 208.7663)" fill="#E52C2C" stroke="#F7F8F8" stroke-width="0.4172" width="7.674" height="7.674"/>
<rect x="61.877" y="55.043" transform="matrix(0.7071 -0.7071 0.7071 0.7071 -22.3876 63.7123)" fill="#E52C2C" stroke="#F7F8F8" stroke-width="0.4172" width="7.674" height="7.674"/>
<rect x="81.916" y="115.668" transform="matrix(0.7071 -0.7071 0.7071 0.7071 -59.3861 95.6391)" fill="#E52C2C" stroke="#F7F8F8" stroke-width="0.4172" width="7.674" height="7.674"/>
<rect x="92.189" y="135.876" transform="matrix(0.7071 -0.7071 0.7071 0.7071 -70.6668 108.8217)" fill="#E52C2C" stroke="#F7F8F8" stroke-width="0.4172" width="7.674" height="7.674"/>
<rect x="89.663" y="95.46" transform="matrix(0.7071 -0.7071 0.7071 0.7071 -42.8279 95.1979)" fill="#E52C2C" stroke="#F7F8F8" stroke-width="0.4172" width="7.674" height="7.674"/>
<rect x="61.708" y="75.251" transform="matrix(0.7071 -0.7071 0.7071 0.7071 -36.7263 69.5121)" fill="#E52C2C" stroke="#F7F8F8" stroke-width="0.4172" width="7.674" height="7.674"/>
<rect x="434.55" y="34.835" transform="matrix(0.7071 -0.7071 0.7071 0.7071 101.0553 321.3133)" fill="#E52C2C" stroke="#F7F8F8" stroke-width="0.4172" width="7.674" height="7.674"/>
<rect x="566.363" y="194.137" transform="matrix(0.7071 -0.7071 0.7071 0.7071 27.0189 461.1775)" fill="#E52C2C" stroke="#F7F8F8" stroke-width="0.4172" width="7.674" height="7.674"/>
<circle fill="#595757" stroke="#FFFFFF" stroke-width="0.8344" cx="60.493" cy="119.505" r="3.031"/>
<text transform="matrix(1 0 0 1 583.0576 184.1414)" font-family="'HYTieXianHei-EEJ'" font-size="5.4218"> 联盟中值</text>
<text transform="matrix(1 0 0 1 583.0576 201.0155)" font-family="'HYTieXianHei-EEJ'" font-size="5.4218"> 周琦数据</text>
<text transform="matrix(1 0 0 1 629.5937 201.0155)" font-family="'HYTieXianHei-EEJ'" font-size="5.4218">同位置球员正常范围</text>
</svg>
