<?xml version="1.0" encoding="utf-8"?>
<!-- Generator: Adobe Illustrator 17.0.0, SVG Export Plug-In . SVG Version: 6.00 Build 0)  -->
<!DOCTYPE svg PUBLIC "-//W3C//DTD SVG 1.1//EN" "http://www.w3.org/Graphics/SVG/1.1/DTD/svg11.dtd">
<svg version="1.1" id="图层_1" xmlns="http://www.w3.org/2000/svg" xmlns:xlink="http://www.w3.org/1999/xlink" x="0px" y="0px"
	 width="447.655px" height="398.204px" viewBox="0 0 447.655 398.204" enable-background="new 0 0 447.655 398.204"
	 xml:space="preserve">
<circle fill="#595757" stroke="#FFFFFF" stroke-width="1.326" cx="336.89" cy="377.049" r="4.817"/>
<line fill="none" stroke="#DCDDDD" stroke-width="6.5291" x1="396.545" y1="376.57" x2="430.899" y2="376.57"/>
<rect x="333.053" y="388.94" transform="matrix(0.7071 -0.7071 0.7071 0.7071 -179.0624 353.2592)" fill="#005FAF" stroke="#FFFFFF" stroke-width="0.4172" width="7.674" height="7.674"/>
<text transform="matrix(1 0 0 1 349.7476 378.9461)" font-family="'HYTieXianHei-EEJ'" font-size="5.4218"> 中值</text>
<text transform="matrix(1 0 0 1 349.7476 395.8201)" font-family="'HYTieXianHei-EEJ'" font-size="5.4218"> 周琦数据</text>
<text transform="matrix(1 0 0 1 396.2847 395.8201)" font-family="'HYTieXianHei-EEJ'" font-size="5.4218">同位置球员正常范围</text>
<text transform="matrix(1 0 0 1 425.5356 26.282)" fill="#716D6D" font-family="'ArialMT'" font-size="6.2559">3.10</text>
<text transform="matrix(1 0 0 1 368.3813 26.282)" fill="#716D6D" font-family="'ArialMT'" font-size="6.2559">3.20</text>
<text transform="matrix(1 0 0 1 311.2261 26.282)" fill="#716D6D" font-family="'ArialMT'" font-size="6.2559">3.30</text>
<text transform="matrix(1 0 0 1 254.4868 26.282)" fill="#716D6D" font-family="'ArialMT'" font-size="6.2559">3.40</text>
<text transform="matrix(1 0 0 1 197.3315 26.282)" fill="#716D6D" font-family="'ArialMT'" font-size="6.2559">3.50</text>
<text transform="matrix(1 0 0 1 140.1763 26.282)" fill="#716D6D" font-family="'ArialMT'" font-size="6.2559">3.60</text>
<text transform="matrix(1 0 0 1 83.4385 26.282)" fill="#716D6D" font-family="'ArialMT'" font-size="6.2559">3.70</text>
<text transform="matrix(1 0 0 1 26.2832 26.282)" fill="#716D6D" font-family="'ArialMT'" font-size="6.2559">3.80</text>
<text transform="matrix(1 0 0 1 429.7075 8.7596)" fill="#716D6D" font-family="'AdobeSongStd-Light-GBpc-EUC-H'" font-size="5.0047">最快</text>
<text transform="matrix(1 0 0 1 281.188 8.7596)" fill="#716D6D" font-family="'ArialMT'" font-size="5.0047">Mid</text>
<text transform="matrix(1 0 0 1 25.0308 8.7596)" enable-background="new    "><tspan x="0" y="0" fill="#716D6D" font-family="'ArialMT'" font-size="5.0047"> </tspan><tspan x="1.391" y="0" fill="#716D6D" font-family="'AdobeSongStd-Light-GBpc-EUC-H'" font-size="5.0047">最慢（秒）</tspan></text>
<text transform="matrix(1 0 0 1 7.5088 16.6883)" fill="#716D6D" font-family="'AdobeSongStd-Light-GBpc-EUC-H'" font-size="6.2559">冲刺跑</text>
<line fill="none" stroke="#847F7F" stroke-width="0.8344" x1="433.88" y1="13.766" x2="29.204" y2="13.766"/>
<line fill="none" stroke="#DCDDDD" stroke-width="6.2579" x1="336.674" y1="13.766" x2="228.622" y2="13.766"/>
<circle stroke="#FFFFFF" stroke-width="0.2086" cx="433.88" cy="13.766" r="2.086"/>
<circle fill="#595757" stroke="#FFFFFF" stroke-width="0.8344" cx="285.36" cy="13.766" r="3.755"/>
<circle stroke="#FFFFFF" stroke-width="0.2086" cx="29.204" cy="13.766" r="2.086"/>
<circle fill="#3261C7" stroke="#FFFFFF" stroke-width="0.2086" cx="228.622" cy="13.766" r="2.086"/>
<text transform="matrix(1 0 0 1 425.5356 59.7566)" fill="#716D6D" font-family="'ArialMT'" font-size="6.2559">10.26</text>
<text transform="matrix(1 0 0 1 374.2202 59.7566)" fill="#716D6D" font-family="'ArialMT'" font-size="6.2559">10.66</text>
<text transform="matrix(1 0 0 1 323.3237 59.7566)" fill="#716D6D" font-family="'ArialMT'" font-size="6.2559">11.06</text>
<text transform="matrix(1 0 0 1 272.4272 59.7566)" fill="#716D6D" font-family="'ArialMT'" font-size="6.2559">11.46</text>
<text transform="matrix(1 0 0 1 221.5288 59.7566)" fill="#716D6D" font-family="'ArialMT'" font-size="6.2559">11.86</text>
<text transform="matrix(1 0 0 1 170.6313 59.7566)" fill="#716D6D" font-family="'ArialMT'" font-size="6.2559">12.26</text>
<text transform="matrix(1 0 0 1 119.7334 59.7566)" fill="#716D6D" font-family="'ArialMT'" font-size="6.2559">12.66</text>
<text transform="matrix(1 0 0 1 68.8369 59.7566)" fill="#716D6D" font-family="'ArialMT'" font-size="6.2559">13.06</text>
<text transform="matrix(1 0 0 1 17.9385 59.7566)" fill="#716D6D" font-family="'ArialMT'" font-size="6.2559">13.46</text>
<text transform="matrix(1 0 0 1 429.7075 42.2352)" fill="#716D6D" font-family="'AdobeSongStd-Light-GBpc-EUC-H'" font-size="5.0047">最快</text>
<text transform="matrix(1 0 0 1 243.6392 42.2352)" fill="#716D6D" font-family="'ArialMT'" font-size="5.0047">Mid</text>
<text transform="matrix(1 0 0 1 25.0308 42.2352)" enable-background="new    "><tspan x="0" y="0" fill="#716D6D" font-family="'ArialMT'" font-size="5.0047"> </tspan><tspan x="1.391" y="0" fill="#716D6D" font-family="'AdobeSongStd-Light-GBpc-EUC-H'" font-size="5.0047">最慢（秒）</tspan></text>
<text transform="matrix(1 0 0 1 1.2515 50.1639)" fill="#716D6D" font-family="'AdobeSongStd-Light-GBpc-EUC-H'" font-size="6.2559">绕桩变向</text>
<line fill="none" stroke="#847F7F" stroke-width="0.8344" x1="433.88" y1="47.242" x2="29.204" y2="47.242"/>
<line fill="none" stroke="#DCDDDD" stroke-width="6.2579" x1="296.207" y1="47.659" x2="199.418" y2="47.659"/>
<circle stroke="#FFFFFF" stroke-width="0.2086" cx="433.88" cy="47.242" r="2.086"/>
<circle fill="#595757" stroke="#FFFFFF" stroke-width="0.8344" cx="247.813" cy="47.242" r="3.755"/>
<circle stroke="#FFFFFF" stroke-width="0.2086" cx="29.204" cy="47.242" r="2.086"/>
<circle fill="#3261C7" stroke="#FFFFFF" stroke-width="0.2086" cx="304.968" cy="47.242" r="2.086"/>
<text transform="matrix(1 0 0 1 425.9536 97.1941)" fill="#716D6D" font-family="'ArialMT'" font-size="6.2559">2.69</text>
<text transform="matrix(1 0 0 1 377.9771 97.1941)" fill="#716D6D" font-family="'ArialMT'" font-size="6.2559">2.79</text>
<text transform="matrix(1 0 0 1 330.4165 97.1941)" fill="#716D6D" font-family="'ArialMT'" font-size="6.2559">2.89</text>
<text transform="matrix(1 0 0 1 282.8569 97.1941)" fill="#716D6D" font-family="'ArialMT'" font-size="6.2559">2.99</text>
<text transform="matrix(1 0 0 1 235.2964 97.1941)" fill="#716D6D" font-family="'ArialMT'" font-size="6.2559">3.09</text>
<text transform="matrix(1 0 0 1 187.7368 97.1941)" fill="#716D6D" font-family="'ArialMT'" font-size="6.2559">3.19</text>
<text transform="matrix(1 0 0 1 140.1763 97.1941)" fill="#716D6D" font-family="'ArialMT'" font-size="6.2559">3.29</text>
<text transform="matrix(1 0 0 1 92.6167 97.1941)" fill="#716D6D" font-family="'ArialMT'" font-size="6.2559">3.39</text>
<text transform="matrix(1 0 0 1 45.0571 97.1941)" fill="#716D6D" font-family="'ArialMT'" font-size="6.2559">3.49</text>
<text transform="matrix(1 0 0 1 430.1245 79.6727)" fill="#716D6D" font-family="'AdobeSongStd-Light-GBpc-EUC-H'" font-size="5.0047">最快</text>
<text transform="matrix(1 0 0 1 225.2842 79.6727)" fill="#716D6D" font-family="'ArialMT'" font-size="5.0047">Mid</text>
<text transform="matrix(1 0 0 1 25.4482 79.6727)" enable-background="new    "><tspan x="0" y="0" fill="#716D6D" font-family="'ArialMT'" font-size="5.0047"> </tspan><tspan x="1.391" y="0" fill="#716D6D" font-family="'AdobeSongStd-Light-GBpc-EUC-H'" font-size="5.0047">最慢（秒）</tspan></text>
<text transform="matrix(1 0 0 1 8.3438 87.6004)" fill="#716D6D" font-family="'AdobeSongStd-Light-GBpc-EUC-H'" font-size="6.2559">折反跑</text>
<line fill="none" stroke="#847F7F" stroke-width="0.8344" x1="434.297" y1="84.678" x2="29.62" y2="84.678"/>
<line fill="none" stroke="#DCDDDD" stroke-width="6.2579" x1="291.2" y1="84.678" x2="162.705" y2="84.678"/>
<circle stroke="#FFFFFF" stroke-width="0.2086" cx="434.297" cy="84.678" r="2.086"/>
<circle fill="#595757" stroke="#FFFFFF" stroke-width="0.8344" cx="229.455" cy="84.678" r="3.755"/>
<circle stroke="#FFFFFF" stroke-width="0.2086" cx="29.62" cy="84.678" r="2.086"/>
<circle fill="#3261C7" stroke="#FFFFFF" stroke-width="0.2086" cx="334.171" cy="84.678" r="2.086"/>
<line fill="none" stroke="#DAD7D7" stroke-width="0.2086" x1="29.204" y1="118.874" x2="29.204" y2="123.046"/>
<text transform="matrix(1 0 0 1 20.8594 131.3904)" fill="#716D6D" font-family="'ArialMT'" font-size="6.2559">20.5</text>
<line fill="none" stroke="#DAD7D7" stroke-width="0.2086" x1="78.849" y1="118.874" x2="78.849" y2="123.046"/>
<text transform="matrix(1 0 0 1 70.5054 131.3904)" fill="#716D6D" font-family="'ArialMT'" font-size="6.2559">22.6</text>
<line fill="none" stroke="#DAD7D7" stroke-width="0.2086" x1="128.912" y1="118.874" x2="128.912" y2="123.046"/>
<text transform="matrix(1 0 0 1 120.5693 131.3904)" fill="#716D6D" font-family="'ArialMT'" font-size="6.2559">24.7</text>
<line fill="none" stroke="#DAD7D7" stroke-width="0.2086" x1="178.976" y1="118.874" x2="178.976" y2="123.046"/>
<text transform="matrix(1 0 0 1 170.6313 131.3904)" fill="#716D6D" font-family="'ArialMT'" font-size="6.2559">26.8</text>
<line fill="none" stroke="#DAD7D7" stroke-width="0.2086" x1="229.039" y1="118.874" x2="229.039" y2="123.046"/>
<text transform="matrix(1 0 0 1 220.6948 131.3904)" fill="#716D6D" font-family="'ArialMT'" font-size="6.2559">28.9</text>
<line fill="none" stroke="#DAD7D7" stroke-width="0.2086" x1="279.102" y1="118.874" x2="279.102" y2="123.046"/>
<text transform="matrix(1 0 0 1 270.7583 131.3904)" fill="#716D6D" font-family="'ArialMT'" font-size="6.2559">31</text>
<line fill="none" stroke="#DAD7D7" stroke-width="0.2086" x1="328.747" y1="118.874" x2="328.747" y2="123.046"/>
<text transform="matrix(1 0 0 1 320.4038 131.3904)" fill="#716D6D" font-family="'ArialMT'" font-size="6.2559">33.1</text>
<line fill="none" stroke="#DAD7D7" stroke-width="0.2086" x1="378.811" y1="118.874" x2="378.811" y2="123.046"/>
<text transform="matrix(1 0 0 1 370.4663 131.3904)" fill="#716D6D" font-family="'ArialMT'" font-size="6.2559">35.2</text>
<line fill="none" stroke="#DAD7D7" stroke-width="0.2086" x1="428.874" y1="118.874" x2="428.874" y2="123.046"/>
<text transform="matrix(1 0 0 1 420.5288 131.3904)" fill="#716D6D" font-family="'ArialMT'" font-size="6.2559">37.3</text>
<text transform="matrix(1 0 0 1 25.0308 113.868)" fill="#716D6D" font-family="'AdobeSongStd-Light-GBpc-EUC-H'" font-size="5.0047">最低（英寸）</text>
<text transform="matrix(1 0 0 1 215.271 113.868)" fill="#716D6D" font-family="'ArialMT'" font-size="5.0047">Mid</text>
<text transform="matrix(1 0 0 1 429.7075 113.868)" fill="#716D6D" font-family="'AdobeSongStd-Light-GBpc-EUC-H'" font-size="5.0047">最高</text>
<text transform="matrix(1 0 0 1 0 121.7947)" fill="#716D6D" font-family="'AdobeSongStd-Light-GBpc-EUC-H'" font-size="6.2559">垂直纵跳</text>
<line fill="none" stroke="#847F7F" stroke-width="0.8344" x1="29.204" y1="118.874" x2="433.88" y2="118.874"/>
<line fill="none" stroke="#DCDDDD" stroke-width="6.2579" x1="159.785" y1="118.874" x2="267.003" y2="118.874"/>
<circle stroke="#FFFFFF" stroke-width="0.2086" cx="29.204" cy="118.874" r="2.086"/>
<circle fill="#595757" stroke="#FFFFFF" stroke-width="0.8344" cx="219.443" cy="118.874" r="3.755"/>
<circle stroke="#FFFFFF" stroke-width="0.2086" cx="433.88" cy="118.874" r="2.086"/>
<circle fill="#3261C7" stroke="#FFFFFF" stroke-width="0.2086" cx="290.783" cy="118.874" r="2.086"/>
<line fill="none" stroke="#DAD7D7" stroke-width="0.2086" x1="29.203" y1="156.122" x2="29.203" y2="160.294"/>
<text transform="matrix(1 0 0 1 20.8594 168.6385)" fill="#716D6D" font-family="'ArialMT'" font-size="6.2559">25</text>
<line fill="none" stroke="#DAD7D7" stroke-width="0.2086" x1="78.432" y1="156.122" x2="78.432" y2="160.294"/>
<text transform="matrix(1 0 0 1 70.0884 168.6385)" fill="#716D6D" font-family="'ArialMT'" font-size="6.2559">26.9</text>
<line fill="none" stroke="#DAD7D7" stroke-width="0.2086" x1="128.078" y1="156.122" x2="128.078" y2="160.294"/>
<text transform="matrix(1 0 0 1 119.7334 168.6385)" fill="#716D6D" font-family="'ArialMT'" font-size="6.2559">28.8</text>
<line fill="none" stroke="#DAD7D7" stroke-width="0.2086" x1="177.724" y1="156.122" x2="177.724" y2="160.294"/>
<text transform="matrix(1 0 0 1 169.3809 168.6385)" fill="#716D6D" font-family="'ArialMT'" font-size="6.2559">30.7</text>
<line fill="none" stroke="#DAD7D7" stroke-width="0.2086" x1="227.37" y1="156.122" x2="227.37" y2="160.294"/>
<text transform="matrix(1 0 0 1 219.0249 168.6385)" fill="#716D6D" font-family="'ArialMT'" font-size="6.2559">32.6</text>
<line fill="none" stroke="#DAD7D7" stroke-width="0.2086" x1="277.016" y1="156.122" x2="277.016" y2="160.294"/>
<text transform="matrix(1 0 0 1 268.6714 168.6385)" fill="#716D6D" font-family="'ArialMT'" font-size="6.2559">34.5</text>
<line fill="none" stroke="#DAD7D7" stroke-width="0.2086" x1="326.661" y1="156.122" x2="326.661" y2="160.294"/>
<text transform="matrix(1 0 0 1 318.3179 168.6385)" fill="#716D6D" font-family="'ArialMT'" font-size="6.2559">36.4</text>
<line fill="none" stroke="#DAD7D7" stroke-width="0.2086" x1="376.307" y1="156.122" x2="376.307" y2="160.294"/>
<text transform="matrix(1 0 0 1 367.9634 168.6385)" fill="#716D6D" font-family="'ArialMT'" font-size="6.2559">38.3</text>
<line fill="none" stroke="#DAD7D7" stroke-width="0.2086" x1="425.953" y1="156.122" x2="425.953" y2="160.294"/>
<text transform="matrix(1 0 0 1 417.6099 168.6385)" fill="#716D6D" font-family="'ArialMT'" font-size="6.2559">40.2</text>
<text transform="matrix(1 0 0 1 25.0308 151.118)" fill="#716D6D" font-family="'AdobeSongStd-Light-GBpc-EUC-H'" font-size="5.0047">最低（英寸）</text>
<text transform="matrix(1 0 0 1 220.6948 151.118)" fill="#716D6D" font-family="'ArialMT'" font-size="5.0047">Mid</text>
<text transform="matrix(1 0 0 1 429.7075 151.118)" fill="#716D6D" font-family="'AdobeSongStd-Light-GBpc-EUC-H'" font-size="5.0047">最高</text>
<text transform="matrix(1 0 0 1 5.4238 159.0428)" fill="#716D6D" font-family="'AdobeSongStd-Light-GBpc-EUC-H'" font-size="6.2559">助跑跳</text>
<line fill="none" stroke="#847F7F" stroke-width="0.8344" x1="29.203" y1="156.122" x2="433.88" y2="156.122"/>
<line fill="none" stroke="#DCDDDD" stroke-width="6.2579" x1="172.717" y1="156.122" x2="303.299" y2="156.122"/>
<circle stroke="#FFFFFF" stroke-width="0.2086" cx="29.203" cy="156.122" r="2.086"/>
<circle fill="#595757" stroke="#FFFFFF" stroke-width="0.8344" cx="224.867" cy="156.122" r="3.755"/>
<circle stroke="#FFFFFF" stroke-width="0.2086" cx="433.88" cy="156.122" r="2.086"/>
<circle fill="#3261C7" stroke="#FFFFFF" stroke-width="0.2086" cx="211.934" cy="156.122" r="2.086"/>
<line fill="none" stroke="#DAD7D7" stroke-width="0.2086" x1="29.203" y1="191.896" x2="29.203" y2="196.068"/>
<text transform="matrix(1 0 0 1 20.8594 204.4129)" fill="#716D6D" font-family="'ArialMT'" font-size="6.2559">0</text>
<line fill="none" stroke="#DAD7D7" stroke-width="0.2086" x1="79.684" y1="191.896" x2="79.684" y2="196.068"/>
<text transform="matrix(1 0 0 1 71.3398 204.4129)" fill="#716D6D" font-family="'ArialMT'" font-size="6.2559">3.25</text>
<line fill="none" stroke="#DAD7D7" stroke-width="0.2086" x1="130.164" y1="191.896" x2="130.164" y2="196.068"/>
<text transform="matrix(1 0 0 1 121.8193 204.4129)" fill="#716D6D" font-family="'ArialMT'" font-size="6.2559">6.5</text>
<line fill="none" stroke="#DAD7D7" stroke-width="0.2086" x1="180.644" y1="191.896" x2="180.644" y2="196.068"/>
<text transform="matrix(1 0 0 1 172.3003 204.4129)" fill="#716D6D" font-family="'ArialMT'" font-size="6.2559">9.75</text>
<line fill="none" stroke="#DAD7D7" stroke-width="0.2086" x1="231.541" y1="191.896" x2="231.541" y2="196.068"/>
<text transform="matrix(1 0 0 1 223.1982 204.4129)" fill="#716D6D" font-family="'ArialMT'" font-size="6.2559">13</text>
<line fill="none" stroke="#DAD7D7" stroke-width="0.2086" x1="282.022" y1="191.896" x2="282.022" y2="196.068"/>
<text transform="matrix(1 0 0 1 273.6792 204.4129)" fill="#716D6D" font-family="'ArialMT'" font-size="6.2559">16.25</text>
<line fill="none" stroke="#DAD7D7" stroke-width="0.2086" x1="332.502" y1="191.896" x2="332.502" y2="196.068"/>
<text transform="matrix(1 0 0 1 324.1587 204.4129)" fill="#716D6D" font-family="'ArialMT'" font-size="6.2559">19.5</text>
<line fill="none" stroke="#DAD7D7" stroke-width="0.2086" x1="382.982" y1="191.896" x2="382.982" y2="196.068"/>
<text transform="matrix(1 0 0 1 374.6382 204.4129)" fill="#716D6D" font-family="'ArialMT'" font-size="6.2559">22.75</text>
<line fill="none" stroke="#DAD7D7" stroke-width="0.2086" x1="433.88" y1="191.896" x2="433.88" y2="196.068"/>
<text transform="matrix(1 0 0 1 425.5356 204.4129)" fill="#716D6D" font-family="'ArialMT'" font-size="6.2559">26</text>
<text transform="matrix(1 0 0 1 25.0308 186.8914)" fill="#716D6D" font-family="'AdobeSongStd-Light-GBpc-EUC-H'" font-size="5.0047">最少（84kg重复推起次数）</text>
<text transform="matrix(1 0 0 1 219.4434 186.8914)" fill="#716D6D" font-family="'ArialMT'" font-size="5.0047">Mid</text>
<text transform="matrix(1 0 0 1 429.7075 186.8914)" fill="#716D6D" font-family="'AdobeSongStd-Light-GBpc-EUC-H'" font-size="5.0047">最多</text>
<text transform="matrix(1 0 0 1 8.7612 194.8172)" fill="#716D6D" font-family="'AdobeSongStd-Light-GBpc-EUC-H'" font-size="6.2559">卧推</text>
<line fill="none" stroke="#847F7F" stroke-width="0.8344" x1="29.203" y1="191.896" x2="433.88" y2="191.896"/>
<line fill="none" stroke="#DCDDDD" stroke-width="6.2579" x1="168.963" y1="191.896" x2="277.85" y2="191.896"/>
<circle stroke="#FFFFFF" stroke-width="0.2086" cx="29.203" cy="191.896" r="2.086"/>
<circle fill="#595757" stroke="#FFFFFF" stroke-width="0.8344" cx="223.615" cy="191.896" r="3.755"/>
<circle stroke="#FFFFFF" stroke-width="0.2086" cx="433.88" cy="191.896" r="2.086"/>
<line fill="none" stroke="#DAD7D7" stroke-width="0.2086" x1="29.829" y1="228.192" x2="29.829" y2="232.364"/>
<text transform="matrix(1 0 0 1 21.4844 240.7068)" fill="#716D6D" font-family="'ArialMT'" font-size="6.2559">1.9939</text>
<line fill="none" stroke="#DAD7D7" stroke-width="0.2086" x1="79.475" y1="228.192" x2="79.475" y2="232.364"/>
<text transform="matrix(1 0 0 1 71.1313 240.7068)" fill="#716D6D" font-family="'ArialMT'" font-size="6.2559">2.0189</text>
<line fill="none" stroke="#DAD7D7" stroke-width="0.2086" x1="129.121" y1="228.192" x2="129.121" y2="232.364"/>
<text transform="matrix(1 0 0 1 120.7769 240.7068)" fill="#716D6D" font-family="'ArialMT'" font-size="6.2559">2.0439</text>
<line fill="none" stroke="#DAD7D7" stroke-width="0.2086" x1="179.184" y1="228.192" x2="179.184" y2="232.364"/>
<text transform="matrix(1 0 0 1 170.8408 240.7068)" fill="#716D6D" font-family="'ArialMT'" font-size="6.2559">2.0689</text>
<line fill="none" stroke="#DAD7D7" stroke-width="0.2086" x1="228.83" y1="228.192" x2="228.83" y2="232.364"/>
<text transform="matrix(1 0 0 1 220.4854 240.7068)" fill="#716D6D" font-family="'ArialMT'" font-size="6.2559">2.0939</text>
<line fill="none" stroke="#DAD7D7" stroke-width="0.2086" x1="278.475" y1="228.192" x2="278.475" y2="232.364"/>
<text transform="matrix(1 0 0 1 270.1323 240.7068)" fill="#716D6D" font-family="'ArialMT'" font-size="6.2559">2.1189</text>
<line fill="none" stroke="#DAD7D7" stroke-width="0.2086" x1="328.538" y1="228.192" x2="328.538" y2="232.364"/>
<text transform="matrix(1 0 0 1 320.1958 240.7068)" fill="#716D6D" font-family="'ArialMT'" font-size="6.2559">2.1439</text>
<line fill="none" stroke="#DAD7D7" stroke-width="0.2086" x1="378.184" y1="228.192" x2="378.184" y2="232.364"/>
<text transform="matrix(1 0 0 1 369.8403 240.7068)" fill="#716D6D" font-family="'ArialMT'" font-size="6.2559">2.1689</text>
<line fill="none" stroke="#DAD7D7" stroke-width="0.2086" x1="427.83" y1="228.192" x2="427.83" y2="232.364"/>
<text transform="matrix(1 0 0 1 419.4858 240.7068)" fill="#716D6D" font-family="'ArialMT'" font-size="6.2559">2.1939</text>
<text transform="matrix(1 0 0 1 25.6567 223.1863)" fill="#716D6D" font-family="'AdobeSongStd-Light-GBpc-EUC-H'" font-size="5.0047">最低（米）</text>
<text transform="matrix(1 0 0 1 202.5464 223.1863)" fill="#716D6D" font-family="'ArialMT'" font-size="5.0047">Mid</text>
<text transform="matrix(1 0 0 1 430.3335 223.1863)" fill="#716D6D" font-family="'AdobeSongStd-Light-GBpc-EUC-H'" font-size="5.0047">最高</text>
<text transform="matrix(1 0 0 1 0.6255 231.1121)" fill="#716D6D" font-family="'AdobeSongStd-Light-GBpc-EUC-H'" font-size="6.2559">穿鞋身高</text>
<line fill="none" stroke="#847F7F" stroke-width="0.8344" x1="29.829" y1="228.192" x2="434.505" y2="228.192"/>
<line fill="none" stroke="#DCDDDD" stroke-width="6.2579" x1="143.305" y1="228.192" x2="269.714" y2="228.192"/>
<circle stroke="#FFFFFF" stroke-width="0.2086" cx="29.829" cy="228.192" r="2.086"/>
<circle fill="#595757" stroke="#FFFFFF" stroke-width="0.8344" cx="206.718" cy="228.192" r="3.755"/>
<circle stroke="#FFFFFF" stroke-width="0.2086" cx="434.505" cy="228.192" r="2.086"/>
<circle fill="#3261C7" stroke="#FFFFFF" stroke-width="0.2086" cx="421.572" cy="228.192" r="2.086"/>
<line fill="none" stroke="#DAD7D7" stroke-width="0.2086" x1="29.62" y1="336.019" x2="29.62" y2="340.191"/>
<text transform="matrix(1 0 0 1 21.2759 348.535)" fill="#716D6D" font-family="'ArialMT'" font-size="6.2559">0.032</text>
<line fill="none" stroke="#DAD7D7" stroke-width="0.2086" x1="80.1" y1="336.019" x2="80.1" y2="340.191"/>
<text transform="matrix(1 0 0 1 71.7563 348.535)" fill="#716D6D" font-family="'ArialMT'" font-size="6.2559">0.054</text>
<line fill="none" stroke="#DAD7D7" stroke-width="0.2086" x1="130.58" y1="336.019" x2="130.58" y2="340.191"/>
<text transform="matrix(1 0 0 1 122.2368 348.535)" fill="#716D6D" font-family="'ArialMT'" font-size="6.2559">0.076</text>
<line fill="none" stroke="#DAD7D7" stroke-width="0.2086" x1="181.061" y1="336.019" x2="181.061" y2="340.191"/>
<text transform="matrix(1 0 0 1 172.7163 348.535)" fill="#716D6D" font-family="'ArialMT'" font-size="6.2559">0.098</text>
<line fill="none" stroke="#DAD7D7" stroke-width="0.2086" x1="231.958" y1="336.019" x2="231.958" y2="340.191"/>
<text transform="matrix(1 0 0 1 223.6143 348.535)" fill="#716D6D" font-family="'ArialMT'" font-size="6.2559">0.12</text>
<line fill="none" stroke="#DAD7D7" stroke-width="0.2086" x1="282.438" y1="336.019" x2="282.438" y2="340.191"/>
<text transform="matrix(1 0 0 1 274.0952 348.535)" fill="#716D6D" font-family="'ArialMT'" font-size="6.2559">0.142</text>
<line fill="none" stroke="#DAD7D7" stroke-width="0.2086" x1="332.918" y1="336.019" x2="332.918" y2="340.191"/>
<text transform="matrix(1 0 0 1 324.5747 348.535)" fill="#716D6D" font-family="'ArialMT'" font-size="6.2559">0.164</text>
<line fill="none" stroke="#DAD7D7" stroke-width="0.2086" x1="383.399" y1="336.019" x2="383.399" y2="340.191"/>
<text transform="matrix(1 0 0 1 375.0562 348.535)" fill="#716D6D" font-family="'ArialMT'" font-size="6.2559">0.186</text>
<line fill="none" stroke="#DAD7D7" stroke-width="0.2086" x1="434.296" y1="336.019" x2="434.296" y2="340.191"/>
<text transform="matrix(1 0 0 1 425.9517 348.535)" fill="#716D6D" font-family="'ArialMT'" font-size="6.2559">0.208</text>
<text transform="matrix(1 0 0 1 25.4482 331.0115)" fill="#716D6D" font-family="'AdobeSongStd-Light-GBpc-EUC-H'" font-size="5.0047">最低</text>
<text transform="matrix(1 0 0 1 132.248 331.0115)" fill="#716D6D" font-family="'ArialMT'" font-size="5.0047">Mid</text>
<text transform="matrix(1 0 0 1 430.1255 331.0115)" fill="#716D6D" font-family="'AdobeSongStd-Light-GBpc-EUC-H'" font-size="5.0047">最高</text>
<text transform="matrix(1 0 0 1 5.8403 338.9402)" fill="#716D6D" font-family="'AdobeSongStd-Light-GBpc-EUC-H'" font-size="6.2559">体脂率</text>
<line fill="none" stroke="#847F7F" stroke-width="0.8344" x1="29.62" y1="336.019" x2="434.296" y2="336.019"/>
<line fill="none" stroke="#DCDDDD" stroke-width="6.2579" x1="95.953" y1="336.019" x2="190.239" y2="336.019"/>
<circle stroke="#FFFFFF" stroke-width="0.2086" cx="29.62" cy="336.019" r="2.086"/>
<circle fill="#595757" stroke="#FFFFFF" stroke-width="0.8344" cx="136.421" cy="336.019" r="3.755"/>
<circle stroke="#FFFFFF" stroke-width="0.2086" cx="434.296" cy="336.019" r="2.086"/>
<circle fill="#3261C7" stroke="#FFFFFF" stroke-width="0.2086" cx="66.333" cy="336.019" r="2.086"/>
<line fill="none" stroke="#DAD7D7" stroke-width="0.2086" x1="28.994" y1="303.351" x2="28.994" y2="307.523"/>
<text transform="matrix(1 0 0 1 20.6499 315.867)" fill="#716D6D" font-family="'ArialMT'" font-size="6.2559">82.64</text>
<line fill="none" stroke="#DAD7D7" stroke-width="0.2086" x1="80.726" y1="303.351" x2="80.726" y2="307.523"/>
<text transform="matrix(1 0 0 1 72.3828 315.867)" fill="#716D6D" font-family="'ArialMT'" font-size="6.2559">89.64</text>
<line fill="none" stroke="#DAD7D7" stroke-width="0.2086" x1="132.458" y1="303.351" x2="132.458" y2="307.523"/>
<text transform="matrix(1 0 0 1 124.1143 315.867)" fill="#716D6D" font-family="'ArialMT'" font-size="6.2559">96.64</text>
<line fill="none" stroke="#DAD7D7" stroke-width="0.2086" x1="184.607" y1="303.351" x2="184.607" y2="307.523"/>
<text transform="matrix(1 0 0 1 176.2632 315.867)" fill="#716D6D" font-family="'ArialMT'" font-size="6.2559">103.64</text>
<line fill="none" stroke="#DAD7D7" stroke-width="0.2086" x1="236.339" y1="303.351" x2="236.339" y2="307.523"/>
<text transform="matrix(1 0 0 1 227.9951 315.867)" fill="#716D6D" font-family="'ArialMT'" font-size="6.2559">110.64</text>
<line fill="none" stroke="#DAD7D7" stroke-width="0.2086" x1="288.07" y1="303.351" x2="288.07" y2="307.523"/>
<text transform="matrix(1 0 0 1 279.7271 315.867)" fill="#716D6D" font-family="'ArialMT'" font-size="6.2559">117.64</text>
<line fill="none" stroke="#DAD7D7" stroke-width="0.2086" x1="340.219" y1="303.351" x2="340.219" y2="307.523"/>
<text transform="matrix(1 0 0 1 331.8755 315.867)" fill="#716D6D" font-family="'ArialMT'" font-size="6.2559">124.64</text>
<line fill="none" stroke="#DAD7D7" stroke-width="0.2086" x1="391.951" y1="303.351" x2="391.951" y2="307.523"/>
<text transform="matrix(1 0 0 1 383.606 315.867)" fill="#716D6D" font-family="'ArialMT'" font-size="6.2559">131.64</text>
<line fill="none" stroke="#DAD7D7" stroke-width="0.2086" x1="443.683" y1="303.351" x2="443.683" y2="307.523"/>
<text transform="matrix(1 0 0 1 416.3384 315.867)" fill="#716D6D" font-family="'ArialMT'" font-size="6.2559">138.64</text>
<text transform="matrix(1 0 0 1 24.8223 298.3455)" fill="#716D6D" font-family="'AdobeSongStd-Light-GBpc-EUC-H'" font-size="5.0047">最轻（公斤）</text>
<text transform="matrix(1 0 0 1 214.2266 298.3455)" fill="#716D6D" font-family="'ArialMT'" font-size="5.0047">Mid</text>
<text transform="matrix(1 0 0 1 429.4985 298.3455)" fill="#716D6D" font-family="'AdobeSongStd-Light-GBpc-EUC-H'" font-size="5.0047">最重</text>
<text transform="matrix(1 0 0 1 6.8828 306.2713)" fill="#716D6D" font-family="'AdobeSongStd-Light-GBpc-EUC-H'" font-size="6.2559">体重</text>
<line fill="none" stroke="#847F7F" stroke-width="0.8344" x1="28.994" y1="303.351" x2="433.67" y2="303.351"/>
<line fill="none" stroke="#DCDDDD" stroke-width="6.2579" x1="172.508" y1="303.351" x2="248.854" y2="303.351"/>
<circle stroke="#FFFFFF" stroke-width="0.2086" cx="28.994" cy="303.351" r="2.086"/>
<circle fill="#595757" stroke="#FFFFFF" stroke-width="0.8344" cx="218.399" cy="303.351" r="3.755"/>
<circle stroke="#FFFFFF" stroke-width="0.2086" cx="433.67" cy="303.351" r="2.086"/>
<circle fill="#3261C7" stroke="#FFFFFF" stroke-width="0.2086" cx="149.98" cy="303.351" r="2.086"/>
<line fill="none" stroke="#DAD7D7" stroke-width="0.2086" x1="28.995" y1="263.654" x2="28.995" y2="267.826"/>
<text transform="matrix(1 0 0 1 20.6509 276.1697)" fill="#716D6D" font-family="'ArialMT'" font-size="6.2559">2.05105</text>
<line fill="none" stroke="#DAD7D7" stroke-width="0.2086" x1="94.494" y1="263.654" x2="94.494" y2="267.826"/>
<text transform="matrix(1 0 0 1 86.1504 276.1697)" fill="#716D6D" font-family="'ArialMT'" font-size="6.2559">2.15105</text>
<line fill="none" stroke="#DAD7D7" stroke-width="0.2086" x1="159.994" y1="263.654" x2="159.994" y2="267.826"/>
<text transform="matrix(1 0 0 1 151.6504 276.1697)" fill="#716D6D" font-family="'ArialMT'" font-size="6.2559">2.25105</text>
<line fill="none" stroke="#DAD7D7" stroke-width="0.2086" x1="225.91" y1="263.654" x2="225.91" y2="267.826"/>
<text transform="matrix(1 0 0 1 217.5654 276.1697)" fill="#716D6D" font-family="'ArialMT'" font-size="6.2559">2.35105</text>
<line fill="none" stroke="#DAD7D7" stroke-width="0.2086" x1="291.409" y1="263.654" x2="291.409" y2="267.826"/>
<text transform="matrix(1 0 0 1 283.0659 276.1697)" fill="#716D6D" font-family="'ArialMT'" font-size="6.2559">2.45105</text>
<line fill="none" stroke="#DAD7D7" stroke-width="0.2086" x1="357.325" y1="263.654" x2="357.325" y2="267.826"/>
<text transform="matrix(1 0 0 1 348.9819 276.1697)" fill="#716D6D" font-family="'ArialMT'" font-size="6.2559">2.55105</text>
<line fill="none" stroke="#DAD7D7" stroke-width="0.2086" x1="422.825" y1="263.654" x2="422.825" y2="267.826"/>
<text transform="matrix(1 0 0 1 414.481 276.1697)" fill="#716D6D" font-family="'ArialMT'" font-size="6.2559">2.65105</text>
<text transform="matrix(1 0 0 1 24.8223 258.6483)" fill="#716D6D" font-family="'AdobeSongStd-Light-GBpc-EUC-H'" font-size="5.0047">最短（米）</text>
<text transform="matrix(1 0 0 1 112.4331 258.6483)" fill="#716D6D" font-family="'ArialMT'" font-size="5.0047">Mid</text>
<text transform="matrix(1 0 0 1 429.5005 258.6483)" fill="#716D6D" font-family="'AdobeSongStd-Light-GBpc-EUC-H'" font-size="5.0047">最长</text>
<text transform="matrix(1 0 0 1 10.2222 266.574)" fill="#716D6D" font-family="'AdobeSongStd-Light-GBpc-EUC-H'" font-size="6.2559">臂展</text>
<line fill="none" stroke="#847F7F" stroke-width="0.8344" x1="28.995" y1="263.654" x2="433.672" y2="263.654"/>
<line fill="none" stroke="#DCDDDD" stroke-width="6.2579" x1="86.985" y1="263.654" x2="144.557" y2="263.654"/>
<circle stroke="#FFFFFF" stroke-width="0.2086" cx="28.995" cy="263.654" r="2.086"/>
<circle fill="#595757" stroke="#FFFFFF" stroke-width="0.8344" cx="116.606" cy="263.654" r="3.755"/>
<circle stroke="#FFFFFF" stroke-width="0.2086" cx="433.672" cy="263.654" r="2.086"/>
<circle fill="#3261C7" stroke="#FFFFFF" stroke-width="0.2086" cx="212.143" cy="263.654" r="2.086"/>
<rect x="224.784" y="9.929" transform="matrix(0.7071 -0.7071 0.7071 0.7071 57.2273 165.6917)" fill="#005FAF" stroke="#FFFFFF" stroke-width="0.4172" width="7.674" height="7.674"/>
<rect x="301.131" y="43.405" transform="matrix(0.7071 -0.7071 0.7071 0.7071 55.918 229.4816)" fill="#005FAF" stroke="#FFFFFF" stroke-width="0.4172" width="7.674" height="7.674"/>
<rect x="330.334" y="80.841" transform="matrix(0.7071 -0.7071 0.7071 0.7071 37.9999 261.096)" fill="#005FAF" stroke="#FFFFFF" stroke-width="0.4172" width="7.674" height="7.674"/>
<rect x="286.946" y="115.036" transform="matrix(0.7071 -0.7071 0.7071 0.7071 1.112 240.4319)" fill="#005FAF" stroke="#FFFFFF" stroke-width="0.4172" width="7.674" height="7.674"/>
<rect x="208.096" y="152.285" transform="matrix(0.7071 -0.7071 0.7071 0.7071 -48.321 195.5867)" fill="#005FAF" stroke="#FFFFFF" stroke-width="0.4172" width="7.674" height="7.674"/>
<rect x="417.735" y="224.355" transform="matrix(0.7071 -0.7071 0.7071 0.7071 -37.8804 364.9325)" fill="#005FAF" stroke="#FFFFFF" stroke-width="0.4172" width="7.674" height="7.674"/>
<rect x="208.427" y="259.817" transform="matrix(0.7071 -0.7071 0.7071 0.7071 -124.2607 227.3161)" fill="#005FAF" stroke="#FFFFFF" stroke-width="0.4172" width="7.674" height="7.674"/>
<rect x="146.143" y="299.514" transform="matrix(0.7071 -0.7071 0.7071 0.7071 -170.5733 194.9012)" fill="#005FAF" stroke="#FFFFFF" stroke-width="0.4172" width="7.674" height="7.674"/>
<rect x="62.496" y="332.182" transform="matrix(0.7071 -0.7071 0.7071 0.7071 -218.173 145.3221)" fill="#005FAF" stroke="#FFFFFF" stroke-width="0.4172" width="7.674" height="7.674"/>
</svg>
