<?xml version="1.0" encoding="utf-8"?>
<!-- Generator: Adobe Illustrator 17.0.0, SVG Export Plug-In . SVG Version: 6.00 Build 0)  -->
<!DOCTYPE svg PUBLIC "-//W3C//DTD SVG 1.1//EN" "http://www.w3.org/Graphics/SVG/1.1/DTD/svg11.dtd">
<svg version="1.1" id="图层_1" xmlns="http://www.w3.org/2000/svg" xmlns:xlink="http://www.w3.org/1999/xlink" x="0px" y="0px"
	 width="443.275px" height="306.508px" viewBox="0 0 443.275 306.508" enable-background="new 0 0 443.275 306.508"
	 xml:space="preserve">
<g>
	<text transform="matrix(1 0 0 1 307.4794 297.0228)" font-family="'AdobeSongStd-Light-GBpc-EUC-H'" font-size="5.0047">中锋</text>
	<rect x="307.477" y="277.805" fill="#E80F4C" width="9.375" height="9.375"/>
	<rect x="328.369" y="277.805" fill="#F7931E" width="9.375" height="9.375"/>
	<rect x="348.845" y="277.805" fill="#FCDB3D" width="9.375" height="9.375"/>
	<rect x="369.738" y="277.805" fill="#BBCD2A" width="9.375" height="9.375"/>
	<rect x="390.213" y="277.805" fill="#69C9BB" width="9.375" height="9.375"/>
	
		<rect x="411.106" y="277.805" transform="matrix(0.7071 -0.7071 0.7071 0.7071 -77.9696 376.7506)" fill="#F7931E" stroke="#231815" stroke-width="0.2086" stroke-miterlimit="10" width="9.375" height="9.375"/>
	<text transform="matrix(1 0 0 1 321.1699 297.0238)" font-family="'AdobeSongStd-Light-GBpc-EUC-H'" font-size="5.0047">中锋&amp;大前</text>
	<text transform="matrix(1 0 0 1 346.1552 297.0238)" font-family="'AdobeSongStd-Light-GBpc-EUC-H'" font-size="5.0047">大前锋</text>
	<text transform="matrix(1 0 0 1 363.0615 297.0238)" font-family="'AdobeSongStd-Light-GBpc-EUC-H'" font-size="5.0047">小前&amp;后卫</text>
	<text transform="matrix(1 0 0 1 390.2822 297.0238)" font-family="'AdobeSongStd-Light-GBpc-EUC-H'" font-size="5.0047">后卫</text>
	<text transform="matrix(1 0 0 1 410.7372 297.0238)" font-family="'AdobeSongStd-Light-GBpc-EUC-H'" font-size="5.0047">周琦</text>
</g>
<text transform="matrix(0.9972 0 0 1 328.1669 21.098)"><tspan x="0" y="0" fill="#727171" font-family="'AdobeHeitiStd-Regular-GBpc-EUC-H'" font-size="4.1706">身高：2.18m</tspan><tspan x="0" y="5.005" fill="#727171" font-family="'AdobeHeitiStd-Regular-GBpc-EUC-H'" font-size="4.1706">臂展：2.29m</tspan><tspan x="0" y="10.01" fill="#727171" font-family="'AdobeHeitiStd-Regular-GBpc-EUC-H'" font-size="4.1706">体重：94kg</tspan></text>
<text transform="matrix(0.9972 0 0 1 384.6005 56.8646)"><tspan x="0" y="0" fill="#727171" font-family="'AdobeHeitiStd-Regular-GBpc-EUC-H'" font-size="4.1706">身高：2.12m</tspan><tspan x="0" y="5.005" fill="#727171" font-family="'AdobeHeitiStd-Regular-GBpc-EUC-H'" font-size="4.1706">臂展：2.31m</tspan><tspan x="0" y="10.01" fill="#727171" font-family="'AdobeHeitiStd-Regular-GBpc-EUC-H'" font-size="4.1706">体重：102kg</tspan></text>
<text transform="matrix(0.9972 0 0 1 411.5615 86.308)"><tspan x="0" y="0" fill="#727171" font-family="'AdobeHeitiStd-Regular-GBpc-EUC-H'" font-size="4.1706">身高：2.18m</tspan><tspan x="0" y="5.005" fill="#727171" font-family="'AdobeHeitiStd-Regular-GBpc-EUC-H'" font-size="4.1706">臂展：2.34m</tspan><tspan x="0" y="10.01" fill="#727171" font-family="'AdobeHeitiStd-Regular-GBpc-EUC-H'" font-size="4.1706">体重：107kg</tspan></text>
<text transform="matrix(0.9972 0 0 1 413.3837 116.39)"><tspan x="0" y="0" fill="#727171" font-family="'AdobeHeitiStd-Regular-GBpc-EUC-H'" font-size="4.1706">身高：2.13m</tspan><tspan x="0" y="5.005" fill="#727171" font-family="'AdobeHeitiStd-Regular-GBpc-EUC-H'" font-size="4.1706">臂展：2.28m</tspan><tspan x="0" y="10.01" fill="#727171" font-family="'AdobeHeitiStd-Regular-GBpc-EUC-H'" font-size="4.1706">体重：109kg</tspan></text>
<text transform="matrix(0.9972 0 0 1 406.7548 16.5462)"><tspan x="0" y="0" fill="#727171" font-family="'AdobeHeitiStd-Regular-GBpc-EUC-H'" font-size="4.1706">身高：2.19m</tspan><tspan x="0" y="5.005" fill="#727171" font-family="'AdobeHeitiStd-Regular-GBpc-EUC-H'" font-size="4.1706">臂展：2.33m</tspan><tspan x="0" y="10.01" fill="#727171" font-family="'AdobeHeitiStd-Regular-GBpc-EUC-H'" font-size="4.1706">体重：98kg</tspan></text>
<rect x="0.154" y="1.221" fill="none" stroke="#727171" stroke-width="0.4172" stroke-miterlimit="10" width="441.669" height="304.36"/>
<rect x="108.75" y="154.451" fill="#69C9BB" width="4.44" height="4.44"/>
<rect x="48.602" y="105.595" fill="#69C9BB" width="4.44" height="4.44"/>
<rect x="90.373" y="165.642" fill="#69C9BB" width="4.44" height="4.44"/>
<rect x="275.712" y="115.427" fill="#FCDB3D" width="4.44" height="4.44"/>
<rect x="417.926" y="159.603" fill="#E80F4C" width="4.44" height="4.44"/>
<rect x="273.279" y="116.612" fill="#FCDB3D" width="4.44" height="4.44"/>
<rect x="137.705" y="115.441" fill="#69C9BB" width="4.44" height="4.44"/>
<rect x="270.932" y="143.105" fill="#FCDB3D" width="4.44" height="4.44"/>
<rect x="156.765" y="86.662" fill="#69C9BB" width="4.44" height="4.44"/>
<rect x="326.345" y="150.999" fill="#FCDB3D" width="4.44" height="4.44"/>
<rect x="269.773" y="117.094" fill="#FCDB3D" width="4.44" height="4.44"/>
<rect x="339.022" y="179.743" fill="#FCDB3D" width="4.44" height="4.44"/>
<rect x="348.641" y="101.269" fill="#FCDB3D" width="4.44" height="4.44"/>
<rect x="199.554" y="90.822" fill="#69C9BB" width="4.44" height="4.44"/>
<rect x="372.191" y="193.795" fill="#E80F4C" width="4.44" height="4.44"/>
<rect x="366.404" y="137.94" fill="#FCDB3D" width="4.44" height="4.44"/>
<rect x="296.874" y="84.855" fill="#FCDB3D" width="4.44" height="4.44"/>
<rect x="356.839" y="133.938" fill="#F7931E" width="4.44" height="4.44"/>
<rect x="218.335" y="89.703" fill="#69C9BB" width="4.44" height="4.44"/>
<rect x="432.308" y="162.647" fill="#E80F4C" width="4.44" height="4.44"/>
<rect x="234.253" y="103.112" fill="#FCDB3D" width="4.44" height="4.44"/>
<rect x="126.319" y="156.054" fill="#69C9BB" width="4.44" height="4.44"/>
<rect x="212.219" y="138.015" fill="#69C9BB" width="4.44" height="4.44"/>
<rect x="143.885" y="109.881" fill="#69C9BB" width="4.44" height="4.44"/>
<rect x="335.54" y="107.68" fill="#FCDB3D" width="4.44" height="4.44"/>
<rect x="163.713" y="114.784" fill="#69C9BB" width="4.44" height="4.44"/>
<rect x="303.984" y="146.392" fill="#FCDB3D" width="4.44" height="4.44"/>
<rect x="243.256" y="111.403" fill="#BBCD2A" width="4.44" height="4.44"/>
<rect x="288.328" y="43.062" fill="#FCDB3D" width="4.44" height="4.44"/>
<rect x="323.328" y="137.728" fill="#FCDB3D" width="4.44" height="4.44"/>
<rect x="183.49" y="91.42" fill="#69C9BB" width="4.44" height="4.44"/>
<rect x="159.106" y="123.137" fill="#69C9BB" width="4.44" height="4.44"/>
<rect x="332.033" y="111.418" fill="#FCDB3D" width="4.44" height="4.44"/>
<rect x="376.082" y="180.026" fill="#E80F4C" width="4.44" height="4.44"/>
<rect x="284.704" y="32.78" fill="#FCDB3D" width="4.44" height="4.44"/>
<rect x="179.821" y="133.581" fill="#69C9BB" width="4.44" height="4.44"/>
<rect x="134.368" y="101.21" fill="#69C9BB" width="4.44" height="4.44"/>
<rect x="283.264" y="88.173" fill="#FCDB3D" width="4.44" height="4.44"/>
<rect x="296.565" y="122.446" fill="#FCDB3D" width="4.44" height="4.44"/>
<rect x="164.392" y="106.419" fill="#69C9BB" width="4.44" height="4.44"/>
<rect x="327.003" y="104.438" fill="#FCDB3D" width="4.44" height="4.44"/>
<rect x="319.498" y="164.57" fill="#FCDB3D" width="4.44" height="4.44"/>
<rect x="228.093" y="132.029" fill="#69C9BB" width="4.44" height="4.44"/>
<rect x="79.721" y="112.158" fill="#69C9BB" width="4.44" height="4.44"/>
<rect x="344.312" y="138.962" fill="#FCDB3D" width="4.44" height="4.44"/>
<rect x="198.601" y="117.622" fill="#69C9BB" width="4.44" height="4.44"/>
<rect x="182.257" y="127.784" fill="#69C9BB" width="4.44" height="4.44"/>
<rect x="295.782" y="44.598" fill="#FCDB3D" width="4.44" height="4.44"/>
<rect x="262.389" y="149.087" fill="#FCDB3D" width="4.44" height="4.44"/>
<rect x="316.043" y="103.384" fill="#FCDB3D" width="4.44" height="4.44"/>
<rect x="332.201" y="135.608" fill="#FCDB3D" width="4.44" height="4.44"/>
<rect x="138.022" y="101.561" fill="#69C9BB" width="4.44" height="4.44"/>
<rect x="125.739" y="98.081" fill="#69C9BB" width="4.44" height="4.44"/>
<rect x="192.323" y="114.424" fill="#69C9BB" width="4.44" height="4.44"/>
<rect x="305.824" y="125.135" fill="#F7931E" width="4.44" height="4.44"/>
<rect x="55.911" y="139.233" fill="#69C9BB" width="4.44" height="4.44"/>
<rect x="284.799" y="80.442" fill="#FCDB3D" width="4.44" height="4.44"/>
<rect x="407.729" y="126.361" fill="#E80F4C" width="4.44" height="4.44"/>
<rect x="195.813" y="138.359" fill="#69C9BB" width="4.44" height="4.44"/>
<rect x="382.517" y="150.769" fill="#E80F4C" width="4.44" height="4.44"/>
<rect x="247.263" y="131.106" fill="#FCDB3D" width="4.44" height="4.44"/>
<rect x="198.124" y="112.926" fill="#69C9BB" width="4.44" height="4.44"/>
<rect x="290.735" y="151.97" fill="#FCDB3D" width="4.44" height="4.44"/>
<rect x="334.375" y="162.732" fill="#FCDB3D" width="4.44" height="4.44"/>
<rect x="306.303" y="141.414" fill="#FCDB3D" width="4.44" height="4.44"/>
<rect x="120.031" y="114.305" fill="#69C9BB" width="4.44" height="4.44"/>
<rect x="302.071" y="173.025" fill="#FCDB3D" width="4.44" height="4.44"/>
<rect x="208.411" y="113.12" fill="#BBCD2A" width="4.44" height="4.44"/>
<rect x="236.379" y="134.905" fill="#FCDB3D" width="4.44" height="4.44"/>
<rect x="268.5" y="128.094" fill="#FCDB3D" width="4.44" height="4.44"/>
<rect x="311.546" y="120.142" fill="#FCDB3D" width="4.44" height="4.44"/>
<rect x="181.593" y="165.474" fill="#69C9BB" width="4.44" height="4.44"/>
<rect x="296.63" y="165.198" fill="#FCDB3D" width="4.44" height="4.44"/>
<rect x="202.109" y="131.98" fill="#BBCD2A" width="4.44" height="4.44"/>
<rect x="112.957" y="108.707" fill="#69C9BB" width="4.44" height="4.44"/>
<rect x="315.374" y="78.46" fill="#FCDB3D" width="4.44" height="4.44"/>
<rect x="344.269" y="134.406" fill="#E80F4C" width="4.44" height="4.44"/>
<rect x="334.358" y="172.31" fill="#F7931E" width="4.44" height="4.44"/>
<rect x="354.801" y="140.935" fill="#FCDB3D" width="4.44" height="4.44"/>
<rect x="301.143" y="124.024" fill="#FCDB3D" width="4.44" height="4.44"/>
<rect x="290.16" y="69.933" fill="#FCDB3D" width="4.44" height="4.44"/>
<rect x="282.597" y="78.088" fill="#FCDB3D" width="4.44" height="4.44"/>
<rect x="146.972" y="138.585" fill="#69C9BB" width="4.44" height="4.44"/>
<rect x="239.192" y="110.205" fill="#FCDB3D" width="4.44" height="4.44"/>
<rect x="209.69" y="110.991" fill="#69C9BB" width="4.44" height="4.44"/>
<rect x="314.605" y="123.128" fill="#F7931E" width="4.44" height="4.44"/>
<rect x="361.566" y="97.445" fill="#E80F4C" width="4.44" height="4.44"/>
<rect x="380.009" y="161.942" fill="#E80F4C" width="4.44" height="4.44"/>
<rect x="192.974" y="80.342" fill="#BBCD2A" width="4.44" height="4.44"/>
<rect x="139.97" y="124.356" fill="#69C9BB" width="4.44" height="4.44"/>
<rect x="282.225" y="105.861" fill="#FCDB3D" width="4.44" height="4.44"/>
<rect x="127.253" y="123.992" fill="#69C9BB" width="4.44" height="4.44"/>
<rect x="298.848" y="125.039" fill="#FCDB3D" width="4.44" height="4.44"/>
<rect x="324.986" y="134.793" fill="#FCDB3D" width="4.44" height="4.44"/>
<rect x="255.951" y="148.665" fill="#FCDB3D" width="4.44" height="4.44"/>
<rect x="55.186" y="129.558" fill="#69C9BB" width="4.44" height="4.44"/>
<rect x="195.732" y="123.28" fill="#69C9BB" width="4.44" height="4.44"/>
<rect x="310.19" y="151.71" fill="#FCDB3D" width="4.44" height="4.44"/>
<rect x="379.789" y="166.484" fill="#E80F4C" width="4.44" height="4.44"/>
<rect x="365.355" y="117.078" fill="#E80F4C" width="4.44" height="4.44"/>
<rect x="144.063" y="115.623" fill="#69C9BB" width="4.44" height="4.44"/>
<rect x="282.178" y="125.37" fill="#FCDB3D" width="4.44" height="4.44"/>
<rect x="202.182" y="123.349" fill="#BBCD2A" width="4.44" height="4.44"/>
<rect x="216.677" y="95.894" fill="#BBCD2A" width="4.44" height="4.44"/>
<rect x="381.761" y="170.477" fill="#E80F4C" width="4.44" height="4.44"/>
<rect x="223.833" y="116.571" fill="#BBCD2A" width="4.44" height="4.44"/>
<rect x="273.746" y="136.501" fill="#FCDB3D" width="4.44" height="4.44"/>
<rect x="200.084" y="101.077" fill="#69C9BB" width="4.44" height="4.44"/>
<rect x="212.144" y="113.711" fill="#BBCD2A" width="4.44" height="4.44"/>
<rect x="169.482" y="162.121" fill="#69C9BB" width="4.44" height="4.44"/>
<rect x="257.39" y="165.111" fill="#BBCD2A" width="4.44" height="4.44"/>
<rect x="168.296" y="107.137" fill="#69C9BB" width="4.44" height="4.44"/>
<rect x="287.282" y="161.266" fill="#FCDB3D" width="4.44" height="4.44"/>
<rect x="259.865" y="116.094" fill="#FCDB3D" width="4.44" height="4.44"/>
<rect x="64.25" y="113.375" fill="#69C9BB" width="4.44" height="4.44"/>
<rect x="343.533" y="123.729" fill="#E80F4C" width="4.44" height="4.44"/>
<rect x="26.923" y="140.399" fill="#69C9BB" width="4.44" height="4.44"/>
<rect x="217.672" y="145.488" fill="#69C9BB" width="4.44" height="4.44"/>
<rect x="337.594" y="128.652" fill="#F7931E" width="4.44" height="4.44"/>
<rect x="225.994" y="129.209" fill="#FCDB3D" width="4.44" height="4.44"/>
<rect x="228.11" y="104.356" fill="#BBCD2A" width="4.44" height="4.44"/>
<rect x="208.473" y="122.938" fill="#BBCD2A" width="4.44" height="4.44"/>
<rect x="261.5" y="56.866" fill="#FCDB3D" width="4.44" height="4.44"/>
<rect x="386.934" y="115.676" fill="#E80F4C" width="4.44" height="4.44"/>
<rect x="177.394" y="125.543" fill="#69C9BB" width="4.44" height="4.44"/>
<rect x="296.791" y="108.679" fill="#FCDB3D" width="4.44" height="4.44"/>
<rect x="342.801" y="214.57" fill="#FCDB3D" width="4.44" height="4.44"/>
<rect x="159.984" y="90.128" fill="#69C9BB" width="4.44" height="4.44"/>
<rect x="219.623" y="129.38" fill="#BBCD2A" width="4.44" height="4.44"/>
<rect x="434.845" y="195.287" fill="#E80F4C" width="4.44" height="4.44"/>
<rect x="169.154" y="119.355" fill="#69C9BB" width="4.44" height="4.44"/>
<rect x="155.754" y="151.419" fill="#69C9BB" width="4.44" height="4.44"/>
<rect x="256.015" y="101.483" fill="#FCDB3D" width="4.44" height="4.44"/>
<rect x="116.962" y="147.862" fill="#69C9BB" width="4.44" height="4.44"/>
<rect x="106.516" y="75.35" fill="#69C9BB" width="4.44" height="4.44"/>
<rect x="225.577" y="119.491" fill="#BBCD2A" width="4.44" height="4.44"/>
<rect x="128.044" y="135.616" fill="#69C9BB" width="4.44" height="4.44"/>
<rect x="201.211" y="107.339" fill="#FCDB3D" width="4.44" height="4.44"/>
<rect x="301.496" y="105.828" fill="#FCDB3D" width="4.44" height="4.44"/>
<rect x="362.414" y="218.045" fill="#FCDB3D" width="4.44" height="4.44"/>
<rect x="357.027" y="124.487" fill="#FCDB3D" width="4.44" height="4.44"/>
<rect x="152.675" y="128.33" fill="#69C9BB" width="4.44" height="4.44"/>
<rect x="80.808" y="161.639" fill="#69C9BB" width="4.44" height="4.44"/>
<rect x="160.61" y="110.497" fill="#69C9BB" width="4.44" height="4.44"/>
<rect x="325.612" y="155.161" fill="#FCDB3D" width="4.44" height="4.44"/>
<rect x="243.594" y="135.72" fill="#FCDB3D" width="4.44" height="4.44"/>
<rect x="199.245" y="128.413" fill="#69C9BB" width="4.44" height="4.44"/>
<rect x="259.435" y="91.89" fill="#FCDB3D" width="4.44" height="4.44"/>
<rect x="240.712" y="55.052" fill="#FCDB3D" width="4.44" height="4.44"/>
<rect x="340.962" y="110.244" fill="#F7931E" width="4.44" height="4.44"/>
<rect x="196.035" y="94.913" fill="#69C9BB" width="4.44" height="4.44"/>
<rect x="361.389" y="106.543" fill="#E80F4C" width="4.44" height="4.44"/>
<rect x="195.941" y="133.931" fill="#69C9BB" width="4.44" height="4.44"/>
<rect x="358.29" y="150.031" fill="#E80F4C" width="4.44" height="4.44"/>
<rect x="201.286" y="169.19" fill="#BBCD2A" width="4.44" height="4.44"/>
<rect x="209.208" y="133.615" fill="#69C9BB" width="4.44" height="4.44"/>
<rect x="168.885" y="131.821" fill="#69C9BB" width="4.44" height="4.44"/>
<rect x="49.719" y="145.146" fill="#69C9BB" width="4.44" height="4.44"/>
<rect x="260.349" y="126.405" fill="#FCDB3D" width="4.44" height="4.44"/>
<rect x="212.832" y="143.897" fill="#69C9BB" width="4.44" height="4.44"/>
<rect x="193.402" y="140.195" fill="#69C9BB" width="4.44" height="4.44"/>
<rect x="264.927" y="127.983" fill="#FCDB3D" width="4.44" height="4.44"/>
<rect x="256.388" y="106.645" fill="#FCDB3D" width="4.44" height="4.44"/>
<rect x="168.965" y="132.061" fill="#69C9BB" width="4.44" height="4.44"/>
<rect x="242.603" y="133.9" fill="#FCDB3D" width="4.44" height="4.44"/>
<rect x="295.104" y="139.641" fill="#FCDB3D" width="4.44" height="4.44"/>
<rect x="297.369" y="151.812" fill="#FCDB3D" width="4.44" height="4.44"/>
<rect x="64.372" y="137.623" fill="#69C9BB" width="4.44" height="4.44"/>
<rect x="190.036" y="139.15" fill="#69C9BB" width="4.44" height="4.44"/>
<rect x="238.418" y="142.747" fill="#BBCD2A" width="4.44" height="4.44"/>
<rect x="322.127" y="125.257" fill="#FCDB3D" width="4.44" height="4.44"/>
<rect x="323.612" y="104.1" fill="#FCDB3D" width="4.44" height="4.44"/>
<rect x="295.836" y="120.639" fill="#FCDB3D" width="4.44" height="4.44"/>
<rect x="338.528" y="130.882" fill="#F7931E" width="4.44" height="4.44"/>
<rect x="314.411" y="48.614" fill="#FCDB3D" width="4.44" height="4.44"/>
<rect x="346.396" y="109.2" fill="#FCDB3D" width="4.44" height="4.44"/>
<rect x="151.767" y="102.686" fill="#69C9BB" width="4.44" height="4.44"/>
<rect x="363.945" y="162.539" fill="#F7931E" width="4.44" height="4.44"/>
<rect x="200.956" y="165.328" fill="#69C9BB" width="4.44" height="4.44"/>
<rect x="74.224" y="103.385" fill="#69C9BB" width="4.44" height="4.44"/>
<rect x="287.167" y="145.89" fill="#F7931E" width="4.44" height="4.44"/>
<rect x="297.583" y="156.494" fill="#FCDB3D" width="4.44" height="4.44"/>
<rect x="174.11" y="102.031" fill="#69C9BB" width="4.44" height="4.44"/>
<rect x="219.618" y="138.604" fill="#69C9BB" width="4.44" height="4.44"/>
<rect x="374.335" y="144.171" fill="#E80F4C" width="4.44" height="4.44"/>
<rect x="407.65" y="140.961" fill="#F7931E" width="4.44" height="4.44"/>
<rect x="291.825" y="72.613" fill="#FCDB3D" width="4.44" height="4.44"/>
<rect x="165.502" y="137.099" fill="#69C9BB" width="4.44" height="4.44"/>
<rect x="79.792" y="160.526" fill="#69C9BB" width="4.44" height="4.44"/>
<rect x="296.933" y="136.832" fill="#FCDB3D" width="4.44" height="4.44"/>
<rect x="242.362" y="134.537" fill="#69C9BB" width="4.44" height="4.44"/>
<rect x="142.324" y="103.479" fill="#69C9BB" width="4.44" height="4.44"/>
<rect x="216.567" y="87.489" fill="#69C9BB" width="4.44" height="4.44"/>
<rect x="142.079" y="93.888" fill="#69C9BB" width="4.44" height="4.44"/>
<rect x="272.266" y="148.434" fill="#FCDB3D" width="4.44" height="4.44"/>
<rect x="219.3" y="134.389" fill="#BBCD2A" width="4.44" height="4.44"/>
<rect x="213.742" y="130.638" fill="#BBCD2A" width="4.44" height="4.44"/>
<rect x="230.577" y="121.562" fill="#FCDB3D" width="4.44" height="4.44"/>
<rect x="223.962" y="130.238" fill="#FCDB3D" width="4.44" height="4.44"/>
<rect x="324.017" y="114.171" fill="#FCDB3D" width="4.44" height="4.44"/>
<rect x="351.826" y="135.475" fill="#F7931E" width="4.44" height="4.44"/>
<rect x="391.237" y="135.689" fill="#E80F4C" width="4.44" height="4.44"/>
<rect x="344.313" y="153.802" fill="#F7931E" width="4.44" height="4.44"/>
<rect x="205.944" y="95.914" fill="#BBCD2A" width="4.44" height="4.44"/>
<rect x="273.826" y="136.741" fill="#BBCD2A" width="4.44" height="4.44"/>
<rect x="336.776" y="104.251" fill="#FCDB3D" width="4.44" height="4.44"/>
<rect x="366.879" y="109.7" fill="#F7931E" width="4.44" height="4.44"/>
<rect x="321.116" y="114.92" fill="#E80F4C" width="4.44" height="4.44"/>
<rect x="232.081" y="108.923" fill="#FCDB3D" width="4.44" height="4.44"/>
<rect x="379.358" y="124.185" fill="#E80F4C" width="4.44" height="4.44"/>
<rect x="227.122" y="150.311" fill="#69C9BB" width="4.44" height="4.44"/>
<rect x="351.199" y="62.72" fill="#FCDB3D" width="4.44" height="4.44"/>
<rect x="196.501" y="168.546" fill="#69C9BB" width="4.44" height="4.44"/>
<rect x="89.571" y="151.115" fill="#69C9BB" width="4.44" height="4.44"/>
<rect x="155.599" y="126.874" fill="#69C9BB" width="4.44" height="4.44"/>
<rect x="296.089" y="135.845" fill="#FCDB3D" width="4.44" height="4.44"/>
<rect x="254.891" y="128.156" fill="#FCDB3D" width="4.44" height="4.44"/>
<rect x="46.594" y="174.501" fill="#69C9BB" width="4.44" height="4.44"/>
<rect x="196.235" y="138.853" fill="#69C9BB" width="4.44" height="4.44"/>
<rect x="301.869" y="96.151" fill="#FCDB3D" width="4.44" height="4.44"/>
<rect x="302.941" y="116.306" fill="#FCDB3D" width="4.44" height="4.44"/>
<rect x="206.047" y="95.447" fill="#BBCD2A" width="4.44" height="4.44"/>
<rect x="179.482" y="128.716" fill="#69C9BB" width="4.44" height="4.44"/>
<rect x="76.542" y="155.406" fill="#69C9BB" width="4.44" height="4.44"/>
<rect x="319.056" y="140.719" fill="#FCDB3D" width="4.44" height="4.44"/>
<rect x="259.32" y="182.644" fill="#FCDB3D" width="4.44" height="4.44"/>
<rect x="48.055" y="157.306" fill="#69C9BB" width="4.44" height="4.44"/>
<rect x="306.232" y="93.046" fill="#FCDB3D" width="4.44" height="4.44"/>
<rect x="245.679" y="109.214" fill="#FCDB3D" width="4.44" height="4.44"/>
<rect x="54.962" y="123.873" fill="#69C9BB" width="4.44" height="4.44"/>
<rect x="232.835" y="124.862" fill="#BBCD2A" width="4.44" height="4.44"/>
<rect x="203.559" y="129.977" fill="#FCDB3D" width="4.44" height="4.44"/>
<rect x="232.092" y="90.474" fill="#FCDB3D" width="4.44" height="4.44"/>
<rect x="123.889" y="152.627" fill="#69C9BB" width="4.44" height="4.44"/>
<rect x="308.061" y="86.982" fill="#FCDB3D" width="4.44" height="4.44"/>
<rect x="235.175" y="143.242" fill="#69C9BB" width="4.44" height="4.44"/>
<rect x="308.34" y="62.578" fill="#E80F4C" width="4.44" height="4.44"/>
<rect x="320.571" y="181.47" fill="#FCDB3D" width="4.44" height="4.44"/>
<rect x="290.904" y="119.161" fill="#FCDB3D" width="4.44" height="4.44"/>
<rect x="305.683" y="111.822" fill="#FCDB3D" width="4.44" height="4.44"/>
<rect x="279.184" y="111.392" fill="#FCDB3D" width="4.44" height="4.44"/>
<rect x="307.589" y="148.157" fill="#FCDB3D" width="4.44" height="4.44"/>
<rect x="295.363" y="91.879" fill="#FCDB3D" width="4.44" height="4.44"/>
<rect x="220.396" y="153.837" fill="#FCDB3D" width="4.44" height="4.44"/>
<rect x="63.134" y="163.759" fill="#69C9BB" width="4.44" height="4.44"/>
<rect x="350.876" y="191.954" fill="#FCDB3D" width="4.44" height="4.44"/>
<rect x="281.263" y="165.949" fill="#FCDB3D" width="4.44" height="4.44"/>
<rect x="339.145" y="184.539" fill="#FCDB3D" width="4.44" height="4.44"/>
<rect x="238.294" y="123.111" fill="#FCDB3D" width="4.44" height="4.44"/>
<rect x="239.611" y="134.762" fill="#FCDB3D" width="4.44" height="4.44"/>
<rect x="352.754" y="94.543" fill="#E80F4C" width="4.44" height="4.44"/>
<rect x="276.417" y="101.743" fill="#FCDB3D" width="4.44" height="4.44"/>
<rect x="306.523" y="65.033" fill="#F7931E" width="4.44" height="4.44"/>
<rect x="310.934" y="132.355" fill="#FCDB3D" width="4.44" height="4.44"/>
<rect x="151.909" y="130.839" fill="#69C9BB" width="4.44" height="4.44"/>
<rect x="88.823" y="140.791" fill="#69C9BB" width="4.44" height="4.44"/>
<rect x="135.609" y="160.396" fill="#69C9BB" width="4.44" height="4.44"/>
<rect x="292.112" y="140.503" fill="#FCDB3D" width="4.44" height="4.44"/>
<rect x="322.85" y="136.288" fill="#FCDB3D" width="4.44" height="4.44"/>
<rect x="305.395" y="115.77" fill="#FCDB3D" width="4.44" height="4.44"/>
<rect x="206.449" y="147.677" fill="#BBCD2A" width="4.44" height="4.44"/>
<rect x="112.552" y="98.636" fill="#69C9BB" width="4.44" height="4.44"/>
<rect x="333.524" y="84.291" fill="#E80F4C" width="4.44" height="4.44"/>
<rect x="144.437" y="120.785" fill="#69C9BB" width="4.44" height="4.44"/>
<rect x="232.32" y="109.643" fill="#FCDB3D" width="4.44" height="4.44"/>
<rect x="179.545" y="119.082" fill="#69C9BB" width="4.44" height="4.44"/>
<rect x="183.531" y="63.04" fill="#69C9BB" width="4.44" height="4.44"/>
<rect x="133.145" y="176.124" fill="#69C9BB" width="4.44" height="4.44"/>
<rect x="389.311" y="147.836" fill="#F7931E" width="4.44" height="4.44"/>
<rect x="195.451" y="132.844" fill="#69C9BB" width="4.44" height="4.44"/>
<rect x="345.391" y="92.894" fill="#FCDB3D" width="4.44" height="4.44"/>
<rect x="130.659" y="171.751" fill="#69C9BB" width="4.44" height="4.44"/>
<rect x="233.48" y="153.749" fill="#FCDB3D" width="4.44" height="4.44"/>
<rect x="297.195" y="122.006" fill="#F7931E" width="4.44" height="4.44"/>
<rect x="323.905" y="94.182" fill="#FCDB3D" width="4.44" height="4.44"/>
<rect x="158.081" y="173.407" fill="#69C9BB" width="4.44" height="4.44"/>
<rect x="268.573" y="119.463" fill="#FCDB3D" width="4.44" height="4.44"/>
<rect x="170.369" y="167.663" fill="#69C9BB" width="4.44" height="4.44"/>
<rect x="197.24" y="158.415" fill="#69C9BB" width="4.44" height="4.44"/>
<rect x="244.743" y="108.341" fill="#FCDB3D" width="4.44" height="4.44"/>
<rect x="300.034" y="108.184" fill="#FCDB3D" width="4.44" height="4.44"/>
<rect x="333.625" y="191.312" fill="#F7931E" width="4.44" height="4.44"/>
<rect x="285.433" y="124.521" fill="#FCDB3D" width="4.44" height="4.44"/>
<rect x="194.21" y="145.497" fill="#69C9BB" width="4.44" height="4.44"/>
<rect x="177.323" y="111.466" fill="#69C9BB" width="4.44" height="4.44"/>
<rect x="339.841" y="166.597" fill="#FCDB3D" width="4.44" height="4.44"/>
<rect x="176.632" y="123.439" fill="#69C9BB" width="4.44" height="4.44"/>
<rect x="308.919" y="105.711" fill="#FCDB3D" width="4.44" height="4.44"/>
<rect x="306.341" y="155.194" fill="#FCDB3D" width="4.44" height="4.44"/>
<rect x="101.927" y="164.06" fill="#69C9BB" width="4.44" height="4.44"/>
<rect x="207.488" y="126.733" fill="#69C9BB" width="4.44" height="4.44"/>
<rect x="405.369" y="122.171" fill="#FCDB3D" width="4.44" height="4.44"/>
<rect x="277.625" y="123.085" fill="#FCDB3D" width="4.44" height="4.44"/>
<rect x="165.288" y="98.125" fill="#69C9BB" width="4.44" height="4.44"/>
<rect x="167.288" y="129.735" fill="#69C9BB" width="4.44" height="4.44"/>
<rect x="265.142" y="147.505" fill="#FCDB3D" width="4.44" height="4.44"/>
<rect x="320.407" y="118.375" fill="#F7931E" width="4.44" height="4.44"/>
<rect x="196.118" y="52.994" fill="#69C9BB" width="4.44" height="4.44"/>
<rect x="321.999" y="126.431" fill="#FCDB3D" width="4.44" height="4.44"/>
<rect x="102.581" y="159.658" fill="#69C9BB" width="4.44" height="4.44"/>
<rect x="316.304" y="160.397" fill="#FCDB3D" width="4.44" height="4.44"/>
<rect x="302.314" y="149.681" fill="#FCDB3D" width="4.44" height="4.44"/>
<rect x="105.73" y="126.34" fill="#69C9BB" width="4.44" height="4.44"/>
<rect x="288.555" y="134.07" fill="#FCDB3D" width="4.44" height="4.44"/>
<rect x="196.062" y="123.886" fill="#69C9BB" width="4.44" height="4.44"/>
<rect x="196.076" y="138.373" fill="#BBCD2A" width="4.44" height="4.44"/>
<rect x="343.1" y="141.684" fill="#F7931E" width="4.44" height="4.44"/>
<rect x="323.352" y="137.021" fill="#FCDB3D" width="4.44" height="4.44"/>
<rect x="133.258" y="142.369" fill="#69C9BB" width="4.44" height="4.44"/>
<rect x="106.05" y="145.396" fill="#69C9BB" width="4.44" height="4.44"/>
<rect x="165.563" y="132.077" fill="#69C9BB" width="4.44" height="4.44"/>
<rect x="282.377" y="82.631" fill="#FCDB3D" width="4.44" height="4.44"/>
<rect x="317.385" y="166.715" fill="#FCDB3D" width="4.44" height="4.44"/>
<rect x="264.103" y="147.098" fill="#BBCD2A" width="4.44" height="4.44"/>
<rect x="285.624" y="129.91" fill="#FCDB3D" width="4.44" height="4.44"/>
<rect x="229.031" y="75.903" fill="#FCDB3D" width="4.44" height="4.44"/>
<rect x="286.27" y="98.541" fill="#FCDB3D" width="4.44" height="4.44"/>
<rect x="240.372" y="87.734" fill="#FCDB3D" width="4.44" height="4.44"/>
<rect x="338.391" y="96.76" fill="#E80F4C" width="4.44" height="4.44"/>
<rect x="213.598" y="87.645" fill="#FCDB3D" width="4.44" height="4.44"/>
<rect x="155.96" y="114.295" fill="#69C9BB" width="4.44" height="4.44"/>
<rect x="294.252" y="114.944" fill="#FCDB3D" width="4.44" height="4.44"/>
<rect x="34.286" y="156.888" fill="#69C9BB" width="4.44" height="4.44"/>
<rect x="39.932" y="130.846" fill="#69C9BB" width="4.44" height="4.44"/>
<rect x="327.024" y="70.796" fill="#F7931E" width="4.44" height="4.44"/>
<rect x="200.936" y="91.482" fill="#FCDB3D" width="4.44" height="4.44"/>
<rect x="424.719" y="228.508" fill="#F7931E" width="4.44" height="4.44"/>
<rect x="308.921" y="138.646" fill="#F7931E" width="4.44" height="4.44"/>
<rect x="254.74" y="76.292" fill="#BBCD2A" width="4.44" height="4.44"/>
<rect x="85.739" y="145.022" fill="#69C9BB" width="4.44" height="4.44"/>
<rect x="152.473" y="141.39" fill="#69C9BB" width="4.44" height="4.44"/>
<rect x="371.751" y="202.879" fill="#E80F4C" width="4.44" height="4.44"/>
<rect x="271.022" y="128.152" fill="#FCDB3D" width="4.44" height="4.44"/>
<rect x="341.808" y="126.071" fill="#F7931E" width="4.44" height="4.44"/>
<rect x="191.95" y="127.357" fill="#69C9BB" width="4.44" height="4.44"/>
<rect x="341.164" y="258.958" fill="#E80F4C" width="4.44" height="4.44"/>
<rect x="325.304" y="63.914" fill="#FCDB3D" width="4.44" height="4.44"/>
<rect x="316.733" y="166.505" fill="#FCDB3D" width="4.44" height="4.44"/>
<rect x="322.823" y="179.154" fill="#FCDB3D" width="4.44" height="4.44"/>
<rect x="177.06" y="114.708" fill="#69C9BB" width="4.44" height="4.44"/>
<rect x="276.771" y="83.548" fill="#FCDB3D" width="4.44" height="4.44"/>
<rect x="257.637" y="117.703" fill="#FCDB3D" width="4.44" height="4.44"/>
<rect x="167.538" y="115.261" fill="#69C9BB" width="4.44" height="4.44"/>
<rect x="220.032" y="115.387" fill="#69C9BB" width="4.44" height="4.44"/>
<rect x="118.663" y="77.643" fill="#69C9BB" width="4.44" height="4.44"/>
<rect x="270.792" y="147.887" fill="#FCDB3D" width="4.44" height="4.44"/>
<rect x="290.396" y="112.812" fill="#BBCD2A" width="4.44" height="4.44"/>
<rect x="355.197" y="112.456" fill="#FCDB3D" width="4.44" height="4.44"/>
<rect x="269.575" y="142.606" fill="#FCDB3D" width="4.44" height="4.44"/>
<rect x="324.282" y="147.119" fill="#E80F4C" width="4.44" height="4.44"/>
<rect x="320.697" y="147.361" fill="#FCDB3D" width="4.44" height="4.44"/>
<rect x="142.864" y="117.992" fill="#69C9BB" width="4.44" height="4.44"/>
<rect x="242.25" y="148.84" fill="#69C9BB" width="4.44" height="4.44"/>
<rect x="244.349" y="151.66" fill="#69C9BB" width="4.44" height="4.44"/>
<rect x="303.106" y="141.853" fill="#FCDB3D" width="4.44" height="4.44"/>
<rect x="295.781" y="116.437" fill="#FCDB3D" width="4.44" height="4.44"/>
<rect x="345.292" y="69.296" fill="#F7931E" width="4.44" height="4.44"/>
<rect x="261.348" y="133.841" fill="#BBCD2A" width="4.44" height="4.44"/>
<rect x="143.973" y="130.577" fill="#69C9BB" width="4.44" height="4.44"/>
<rect x="163.18" y="109.141" fill="#69C9BB" width="4.44" height="4.44"/>
<rect x="287.066" y="104.197" fill="#FCDB3D" width="4.44" height="4.44"/>
<rect x="268.714" y="114.681" fill="#FCDB3D" width="4.44" height="4.44"/>
<rect x="272.513" y="172.865" fill="#FCDB3D" width="4.44" height="4.44"/>
<rect x="244.776" y="146.184" fill="#FCDB3D" width="4.44" height="4.44"/>
<rect x="357.969" y="116.136" fill="#E80F4C" width="4.44" height="4.44"/>
<rect x="227.264" y="88.53" fill="#BBCD2A" width="4.44" height="4.44"/>
<rect x="236.852" y="145.569" fill="#69C9BB" width="4.44" height="4.44"/>
<rect x="199.567" y="105.309" fill="#69C9BB" width="4.44" height="4.44"/>
<rect x="285.518" y="115.537" fill="#FCDB3D" width="4.44" height="4.44"/>
<rect x="198.198" y="122.391" fill="#69C9BB" width="4.44" height="4.44"/>
<rect x="126.769" y="113.681" fill="#69C9BB" width="4.44" height="4.44"/>
<rect x="205.502" y="161.997" fill="#69C9BB" width="4.44" height="4.44"/>
<rect x="125.65" y="131.129" fill="#69C9BB" width="4.44" height="4.44"/>
<rect x="246.082" y="101.19" fill="#FCDB3D" width="4.44" height="4.44"/>
<rect x="305.893" y="68.729" fill="#F7931E" width="4.44" height="4.44"/>
<rect x="90.447" y="85.172" fill="#69C9BB" width="4.44" height="4.44"/>
<rect x="209.536" y="173.126" fill="#69C9BB" width="4.44" height="4.44"/>
<rect x="129.76" y="94.723" fill="#69C9BB" width="4.44" height="4.44"/>
<rect x="138.386" y="140.012" fill="#69C9BB" width="4.44" height="4.44"/>
<rect x="301.836" y="144.986" fill="#FCDB3D" width="4.44" height="4.44"/>
<rect x="213.609" y="141.035" fill="#BBCD2A" width="4.44" height="4.44"/>
<rect x="154.202" y="96.888" fill="#69C9BB" width="4.44" height="4.44"/>
<rect x="362.185" y="184.037" fill="#E80F4C" width="4.44" height="4.44"/>
<rect x="308.401" y="129.395" fill="#FCDB3D" width="4.44" height="4.44"/>
<rect x="121.224" y="106.321" fill="#69C9BB" width="4.44" height="4.44"/>
<rect x="219.301" y="77.39" fill="#69C9BB" width="4.44" height="4.44"/>
<rect x="329.428" y="135.184" fill="#F7931E" width="4.44" height="4.44"/>
<rect x="260.83" y="88.941" fill="#FCDB3D" width="4.44" height="4.44"/>
<rect x="98.059" y="162.282" fill="#69C9BB" width="4.44" height="4.44"/>
<rect x="102.325" y="168.515" fill="#69C9BB" width="4.44" height="4.44"/>
<rect x="252.244" y="124.659" fill="#FCDB3D" width="4.44" height="4.44"/>
<rect x="384.314" y="124.956" fill="#E80F4C" width="4.44" height="4.44"/>
<rect x="298.581" y="149.09" fill="#FCDB3D" width="4.44" height="4.44"/>
<rect x="164.17" y="96.122" fill="#69C9BB" width="4.44" height="4.44"/>
<rect x="338.845" y="117.002" fill="#F7931E" width="4.44" height="4.44"/>
<rect x="174.289" y="125.868" fill="#69C9BB" width="4.44" height="4.44"/>
<rect x="201.484" y="126.451" fill="#69C9BB" width="4.44" height="4.44"/>
<rect x="281.311" y="143.185" fill="#FCDB3D" width="4.44" height="4.44"/>
<rect x="219.187" y="96.305" fill="#BBCD2A" width="4.44" height="4.44"/>
<rect x="90.473" y="114.145" fill="#69C9BB" width="4.44" height="4.44"/>
<rect x="325.926" y="111.602" fill="#F7931E" width="4.44" height="4.44"/>
<rect x="293.459" y="160.318" fill="#FCDB3D" width="4.44" height="4.44"/>
<rect x="104.16" y="81.388" fill="#69C9BB" width="4.44" height="4.44"/>
<rect x="189.406" y="142.846" fill="#69C9BB" width="4.44" height="4.44"/>
<rect x="354.202" y="152.795" fill="#F7931E" width="4.44" height="4.44"/>
<rect x="250.336" y="111.032" fill="#FCDB3D" width="4.44" height="4.44"/>
<rect x="93.68" y="117.965" fill="#69C9BB" width="4.44" height="4.44"/>
<rect x="316.478" y="121.619" fill="#FCDB3D" width="4.44" height="4.44"/>
<rect x="355.345" y="131.384" fill="#F7931E" width="4.44" height="4.44"/>
<rect x="138.139" y="115.581" fill="#69C9BB" width="4.44" height="4.44"/>
<rect x="121.187" y="110.636" fill="#69C9BB" width="4.44" height="4.44"/>
<rect x="153.972" y="134.719" fill="#69C9BB" width="4.44" height="4.44"/>
<rect x="240.25" y="97.778" fill="#BBCD2A" width="4.44" height="4.44"/>
<rect x="318.812" y="145.968" fill="#FCDB3D" width="4.44" height="4.44"/>
<rect x="334.89" y="159.857" fill="#FCDB3D" width="4.44" height="4.44"/>
<rect x="144.186" y="120.419" fill="#69C9BB" width="4.44" height="4.44"/>
<rect x="203.948" y="130.174" fill="#69C9BB" width="4.44" height="4.44"/>
<rect x="394.328" y="140.329" fill="#F7931E" width="4.44" height="4.44"/>
<rect x="354.032" y="129.961" fill="#FCDB3D" width="4.44" height="4.44"/>
<rect x="131.488" y="125.316" fill="#69C9BB" width="4.44" height="4.44"/>
<rect x="216.981" y="136.111" fill="#69C9BB" width="4.44" height="4.44"/>
<rect x="70.849" y="132.373" fill="#69C9BB" width="4.44" height="4.44"/>
<rect x="299.492" y="63.991" fill="#F7931E" width="4.44" height="4.44"/>
<rect x="158.593" y="140.852" fill="#69C9BB" width="4.44" height="4.44"/>
<rect x="140.777" y="114.819" fill="#69C9BB" width="4.44" height="4.44"/>
<rect x="351.239" y="143.726" fill="#E80F4C" width="4.44" height="4.44"/>
<rect x="248.941" y="113.981" fill="#FCDB3D" width="4.44" height="4.44"/>
<rect x="241.545" y="143.071" fill="#69C9BB" width="4.44" height="4.44"/>
<rect x="289.924" y="98.893" fill="#FCDB3D" width="4.44" height="4.44"/>
<rect x="259.396" y="63.27" fill="#FCDB3D" width="4.44" height="4.44"/>
<rect x="229.314" y="167.857" fill="#69C9BB" width="4.44" height="4.44"/>
<rect x="320.087" y="99.32" fill="#FCDB3D" width="4.44" height="4.44"/>
<rect x="203.775" y="149.499" fill="#69C9BB" width="4.44" height="4.44"/>
<rect x="269.847" y="126.559" fill="#FCDB3D" width="4.44" height="4.44"/>
<rect x="192.184" y="65.463" fill="#69C9BB" width="4.44" height="4.44"/>
<rect x="317.471" y="138.279" fill="#FCDB3D" width="4.44" height="4.44"/>
<rect x="57.656" y="142.153" fill="#69C9BB" width="4.44" height="4.44"/>
<rect x="255.533" y="124.107" fill="#FCDB3D" width="4.44" height="4.44"/>
<rect x="334.133" y="114.237" fill="#FCDB3D" width="4.44" height="4.44"/>
<rect x="192.923" y="123.915" fill="#BBCD2A" width="4.44" height="4.44"/>
<rect x="77.361" y="142.26" fill="#69C9BB" width="4.44" height="4.44"/>
<rect x="51.806" y="148.319" fill="#69C9BB" width="4.44" height="4.44"/>
<rect x="225.251" y="94.82" fill="#69C9BB" width="4.44" height="4.44"/>
<rect x="262.293" y="138.973" fill="#FCDB3D" width="4.44" height="4.44"/>
<rect x="295.114" y="106.353" fill="#FCDB3D" width="4.44" height="4.44"/>
<rect x="298.683" y="96.236" fill="#FCDB3D" width="4.44" height="4.44"/>
<rect x="93.491" y="127.416" fill="#69C9BB" width="4.44" height="4.44"/>
<rect x="255.287" y="114.516" fill="#BBCD2A" width="4.44" height="4.44"/>
<rect x="194.131" y="73.418" fill="#69C9BB" width="4.44" height="4.44"/>
<rect x="359.089" y="113.527" fill="#F7931E" width="4.44" height="4.44"/>
<rect x="110.467" y="128.398" fill="#69C9BB" width="4.44" height="4.44"/>
<rect x="120.424" y="127.985" fill="#69C9BB" width="4.44" height="4.44"/>
<rect x="284.071" y="147.218" fill="#FCDB3D" width="4.44" height="4.44"/>
<rect x="172.496" y="127.617" fill="#69C9BB" width="4.44" height="4.44"/>
<rect x="296.207" y="164.705" fill="#FCDB3D" width="4.44" height="4.44"/>
<rect x="204.609" y="165.679" fill="#BBCD2A" width="4.44" height="4.44"/>
<rect x="100.403" y="156.598" fill="#69C9BB" width="4.44" height="4.44"/>
<rect x="208.221" y="107.731" fill="#BBCD2A" width="4.44" height="4.44"/>
<rect x="181.589" y="117.699" fill="#69C9BB" width="4.44" height="4.44"/>
<rect x="177.26" y="86.809" fill="#69C9BB" width="4.44" height="4.44"/>
<rect x="251.311" y="137.269" fill="#FCDB3D" width="4.44" height="4.44"/>
<rect x="339.956" y="147.682" fill="#FCDB3D" width="4.44" height="4.44"/>
<rect x="326.02" y="141.168" fill="#FCDB3D" width="4.44" height="4.44"/>
<rect x="326.4" y="137.106" fill="#FCDB3D" width="4.44" height="4.44"/>
<rect x="182.709" y="118.346" fill="#69C9BB" width="4.44" height="4.44"/>
<rect x="243.869" y="135.38" fill="#FCDB3D" width="4.44" height="4.44"/>
<rect x="340.286" y="148.288" fill="#FCDB3D" width="4.44" height="4.44"/>
<rect x="265.34" y="86.67" fill="#FCDB3D" width="4.44" height="4.44"/>
<rect x="176.265" y="123.893" fill="#69C9BB" width="4.44" height="4.44"/>
<rect x="231.574" y="117.414" fill="#FCDB3D" width="4.44" height="4.44"/>
<rect x="180.134" y="143.766" fill="#69C9BB" width="4.44" height="4.44"/>
<rect x="147.525" y="92.49" fill="#69C9BB" width="4.44" height="4.44"/>
<rect x="204.992" y="137.553" fill="#69C9BB" width="4.44" height="4.44"/>
<rect x="157.655" y="125.139" fill="#69C9BB" width="4.44" height="4.44"/>
<rect x="96.237" y="136.414" fill="#69C9BB" width="4.44" height="4.44"/>
<rect x="265.2" y="91.452" fill="#FCDB3D" width="4.44" height="4.44"/>
<rect x="53.149" y="102.264" fill="#69C9BB" width="4.44" height="4.44"/>
<rect x="207.98" y="160.755" fill="#69C9BB" width="4.44" height="4.44"/>
<rect x="142.761" y="133.299" fill="#69C9BB" width="4.44" height="4.44"/>
<rect x="155.513" y="117.763" fill="#69C9BB" width="4.44" height="4.44"/>
<rect x="23.172" y="149.385" fill="#69C9BB" width="4.44" height="4.44"/>
<rect x="332.516" y="106.889" fill="#FCDB3D" width="4.44" height="4.44"/>
<rect x="323.085" y="161.072" fill="#F7931E" width="4.44" height="4.44"/>
<rect x="274.252" y="113.17" fill="#FCDB3D" width="4.44" height="4.44"/>
<rect x="251.048" y="137.256" fill="#BBCD2A" width="4.44" height="4.44"/>
<rect x="249.56" y="125.478" fill="#69C9BB" width="4.44" height="4.44"/>
<rect x="364.242" y="125.302" fill="#F7931E" width="4.44" height="4.44"/>
<rect x="127.116" y="176.549" fill="#69C9BB" width="4.44" height="4.44"/>
<rect x="223.679" y="106.867" fill="#69C9BB" width="4.44" height="4.44"/>
<rect x="135.226" y="116.683" fill="#69C9BB" width="4.44" height="4.44"/>
<rect x="266.161" y="178.298" fill="#BBCD2A" width="4.44" height="4.44"/>
<rect x="246.893" y="136.171" fill="#BBCD2A" width="4.44" height="4.44"/>
<rect x="72.642" y="130.624" fill="#69C9BB" width="4.44" height="4.44"/>
<rect x="206.839" y="87.619" fill="#69C9BB" width="4.44" height="4.44"/>
<rect x="15.242" y="161.249" fill="#69C9BB" width="4.44" height="4.44"/>
<rect x="316.199" y="146.023" fill="#F7931E" width="4.44" height="4.44"/>
<rect x="184.385" y="120.673" fill="#69C9BB" width="4.44" height="4.44"/>
<rect x="164.873" y="155.634" fill="#69C9BB" width="4.44" height="4.44"/>
<rect x="106.778" y="219.041" fill="#69C9BB" width="4.44" height="4.44"/>
<rect x="211.001" y="131.866" fill="#BBCD2A" width="4.44" height="4.44"/>
<rect x="380.249" y="90.823" fill="#E80F4C" width="4.44" height="4.44"/>
<rect x="243.149" y="154.029" fill="#FCDB3D" width="4.44" height="4.44"/>
<rect x="195.099" y="94.04" fill="#BBCD2A" width="4.44" height="4.44"/>
<rect x="351.52" y="134.162" fill="#FCDB3D" width="4.44" height="4.44"/>
<rect x="144.555" y="149.645" fill="#69C9BB" width="4.44" height="4.44"/>
<rect x="267.96" y="95.486" fill="#FCDB3D" width="4.44" height="4.44"/>
<rect x="104.28" y="128.342" fill="#69C9BB" width="4.44" height="4.44"/>
<rect x="351.677" y="101.707" fill="#E80F4C" width="4.44" height="4.44"/>
<rect x="390.156" y="129.37" fill="#E80F4C" width="4.44" height="4.44"/>
<rect x="207.178" y="167.579" fill="#BBCD2A" width="4.44" height="4.44"/>
<rect x="215.639" y="128.422" fill="#69C9BB" width="4.44" height="4.44"/>
<rect x="258.544" y="128.507" fill="#FCDB3D" width="4.44" height="4.44"/>
<rect x="313.427" y="70.505" fill="#FCDB3D" width="4.44" height="4.44"/>
<rect x="298.865" y="187.3" fill="#FCDB3D" width="4.44" height="4.44"/>
<rect x="312" y="140.383" fill="#FCDB3D" width="4.44" height="4.44"/>
<rect x="59.179" y="134.775" fill="#69C9BB" width="4.44" height="4.44"/>
<rect x="263.868" y="122.314" fill="#FCDB3D" width="4.44" height="4.44"/>
<rect x="230.662" y="112.578" fill="#69C9BB" width="4.44" height="4.44"/>
<rect x="188.898" y="79.498" fill="#BBCD2A" width="4.44" height="4.44"/>
<rect x="343.732" y="152.828" fill="#FCDB3D" width="4.44" height="4.44"/>
<rect x="191.869" y="112.277" fill="#BBCD2A" width="4.44" height="4.44"/>
<rect x="219.654" y="134.289" fill="#BBCD2A" width="4.44" height="4.44"/>
<rect x="193.963" y="121.066" fill="#69C9BB" width="4.44" height="4.44"/>
<rect x="144.975" y="117.203" fill="#69C9BB" width="4.44" height="4.44"/>
<rect x="248.592" y="104.856" fill="#FCDB3D" width="4.44" height="4.44"/>
<rect x="234.29" y="98.796" fill="#FCDB3D" width="4.44" height="4.44"/>
<rect x="381.695" y="112.885" fill="#F7931E" width="4.44" height="4.44"/>
<rect x="334.735" y="135.313" fill="#FCDB3D" width="4.44" height="4.44"/>
<rect x="336.95" y="65.474" fill="#FCDB3D" width="4.44" height="4.44"/>
<rect x="185.891" y="122.873" fill="#69C9BB" width="4.44" height="4.44"/>
<rect x="282.092" y="119.514" fill="#FCDB3D" width="4.44" height="4.44"/>
<rect x="88.084" y="157.433" fill="#69C9BB" width="4.44" height="4.44"/>
<rect x="263.018" y="130.552" fill="#FCDB3D" width="4.44" height="4.44"/>
<rect x="115.46" y="121.598" fill="#69C9BB" width="4.44" height="4.44"/>
<rect x="374.725" y="121.66" fill="#E80F4C" width="4.44" height="4.44"/>
<rect x="231.894" y="133.213" fill="#69C9BB" width="4.44" height="4.44"/>
<rect x="318.78" y="126.219" fill="#FCDB3D" width="4.44" height="4.44"/>
<rect x="231.308" y="84.465" fill="#BBCD2A" width="4.44" height="4.44"/>
<rect x="204.629" y="117.198" fill="#69C9BB" width="4.44" height="4.44"/>
<rect x="201.876" y="118.78" fill="#69C9BB" width="4.44" height="4.44"/>
<rect x="305.269" y="153.134" fill="#FCDB3D" width="4.44" height="4.44"/>
<rect x="234.813" y="137.727" fill="#FCDB3D" width="4.44" height="4.44"/>
<rect x="266.57" y="164.305" fill="#FCDB3D" width="4.44" height="4.44"/>
<rect x="322.929" y="118.433" fill="#FCDB3D" width="4.44" height="4.44"/>
<rect x="108.43" y="135.396" fill="#69C9BB" width="4.44" height="4.44"/>
<rect x="185.313" y="169.674" fill="#69C9BB" width="4.44" height="4.44"/>
<rect x="319.619" y="136.43" fill="#FCDB3D" width="4.44" height="4.44"/>
<rect x="297.207" y="118.397" fill="#FCDB3D" width="4.44" height="4.44"/>
<rect x="224.214" y="145.444" fill="#FCDB3D" width="4.44" height="4.44"/>
<rect x="93.309" y="142.482" fill="#69C9BB" width="4.44" height="4.44"/>
<rect x="73.974" y="189.697" fill="#69C9BB" width="4.44" height="4.44"/>
<rect x="133.072" y="112.916" fill="#69C9BB" width="4.44" height="4.44"/>
<rect x="128.314" y="106.953" fill="#69C9BB" width="4.44" height="4.44"/>
<rect x="298.781" y="139.285" fill="#FCDB3D" width="4.44" height="4.44"/>
<rect x="128.666" y="111.465" fill="#69C9BB" width="4.44" height="4.44"/>
<rect x="206.357" y="75.952" fill="#FCDB3D" width="4.44" height="4.44"/>
<rect x="278.804" y="100.615" fill="#FCDB3D" width="4.44" height="4.44"/>
<rect x="221.839" y="128.124" fill="#FCDB3D" width="4.44" height="4.44"/>
<rect x="0" y="106.541" fill="#69C9BB" width="4.44" height="4.44"/>
<rect x="349.195" y="145.108" fill="#F7931E" width="4.44" height="4.44"/>
<rect x="237.53" y="137.205" fill="#69C9BB" width="4.44" height="4.44"/>
<rect x="28.936" y="134.108" fill="#69C9BB" width="4.44" height="4.44"/>
<rect x="129.313" y="98.192" fill="#69C9BB" width="4.44" height="4.44"/>
<rect x="108.742" y="130.74" fill="#69C9BB" width="4.44" height="4.44"/>
<rect x="222.44" y="80.616" fill="#BBCD2A" width="4.44" height="4.44"/>
<rect x="165.244" y="131.117" fill="#69C9BB" width="4.44" height="4.44"/>
<rect x="201.884" y="142.491" fill="#69C9BB" width="4.44" height="4.44"/>
<rect x="242.472" y="105.394" fill="#FCDB3D" width="4.44" height="4.44"/>
<rect x="380.577" y="148.429" fill="#E80F4C" width="4.44" height="4.44"/>
<rect x="201.551" y="108.949" fill="#69C9BB" width="4.44" height="4.44"/>
<rect x="175.63" y="136.812" fill="#69C9BB" width="4.44" height="4.44"/>
<rect x="232.666" y="67.737" fill="#BBCD2A" width="4.44" height="4.44"/>
<rect x="253.933" y="89.086" fill="#FCDB3D" width="4.44" height="4.44"/>
<rect x="174.663" y="59.191" fill="#BBCD2A" width="4.44" height="4.44"/>
<rect x="250.305" y="102.867" fill="#BBCD2A" width="4.44" height="4.44"/>
<rect x="213.131" y="139.595" fill="#BBCD2A" width="4.44" height="4.44"/>
<rect x="164.176" y="158.736" fill="#69C9BB" width="4.44" height="4.44"/>
<rect x="236.873" y="111.927" fill="#69C9BB" width="4.44" height="4.44"/>
<rect x="118.399" y="134.629" fill="#69C9BB" width="4.44" height="4.44"/>
<rect x="242.932" y="119.667" fill="#FCDB3D" width="4.44" height="4.44"/>
<rect x="167.807" y="102.795" fill="#69C9BB" width="4.44" height="4.44"/>
<rect x="168.003" y="82.763" fill="#69C9BB" width="4.44" height="4.44"/>
<text transform="matrix(1 0 0 1 400.7089 80.3968)" font-family="'AdobeHeitiStd-Regular-GBpc-EUC-H'" font-size="7.09">鲁迪-戈伯特</text>
<text transform="matrix(1 0 0 1 387.1357 110.3187)" font-family="'AdobeHeitiStd-Regular-GBpc-EUC-H'" font-size="7.09">贾维尔·麦基</text>
<text transform="matrix(1 0 0 1 317.1679 14.8783)" font-family="'AdobeHeitiStd-Regular-GBpc-EUC-H'" font-size="7.09">若纳唐-让纳</text>
<text transform="matrix(1 0 0 1 362.9667 50.8343)" font-family="'AdobeHeitiStd-Regular-GBpc-EUC-H'" font-size="7.09">哈桑·怀特塞德</text>
<line fill="none" stroke="#E80F4C" stroke-width="0.8344" stroke-miterlimit="10" x1="423.896" y1="63.991" x2="423.896" y2="73.736"/>
<line fill="none" stroke="#F7931E" stroke-width="0.8344" stroke-miterlimit="10" x1="369.556" y1="21.419" x2="356.376" y2="21.419"/>
<line fill="none" stroke="#F7931E" stroke-width="0.8344" stroke-miterlimit="10" x1="372.975" y1="65.474" x2="372.975" y2="54.019"/>
<line fill="none" stroke="#F7931E" stroke-width="0.8344" stroke-miterlimit="10" x1="387.775" y1="96.427" x2="387.775" y2="103.11"/>
<text transform="matrix(1 0 0 1 418.3906 36.4173)" font-family="'AdobeHeitiStd-Regular-GBpc-EUC-H'" font-size="7.09">周琦</text>
<line fill="none" stroke="#F7931E" stroke-width="0.8344" stroke-miterlimit="10" x1="401.86" y1="33.519" x2="417.294" y2="33.519"/>
<rect x="370.755" y="63.35" fill="#F7931E" stroke="#231815" stroke-width="0.2086" stroke-miterlimit="10" width="4.44" height="4.44"/>
<rect x="393.646" y="29.08" transform="matrix(-0.7071 0.7071 -0.7071 -0.7071 703.2756 -224.2677)" fill="#F7931E" stroke="#231815" stroke-width="0.2086" stroke-miterlimit="10" width="8.879" height="8.879"/>
<rect x="367.336" y="19.199" fill="#F7931E" stroke="#231815" stroke-width="0.2086" stroke-miterlimit="10" width="4.44" height="4.44"/>
<rect x="421.676" y="60.682" fill="#E80F4C" stroke="#231815" stroke-width="0.2086" stroke-miterlimit="10" width="4.44" height="4.44"/>
<rect x="385.555" y="94.208" fill="#F7931E" stroke="#231815" stroke-width="0.2086" stroke-miterlimit="10" width="4.44" height="4.44"/>
</svg>
